<svg id="Notifications_Icon_awesome-info-circle" data-name="Notifications_Icon awesome-info-circle" xmlns="http://www.w3.org/2000/svg" width="48" height="48" viewBox="0 0 48 48">
  <path id="Icon_awesome-info-circle" data-name="Icon awesome-info-circle" d="M24.563.563a24,24,0,1,0,24,24A24,24,0,0,0,24.563.563Zm0,10.645A4.065,4.065,0,1,1,20.5,15.272,4.065,4.065,0,0,1,24.563,11.208Zm5.419,24.581a1.161,1.161,0,0,1-1.161,1.161H20.3a1.161,1.161,0,0,1-1.161-1.161V33.466A1.161,1.161,0,0,1,20.3,32.3h1.161V26.111H20.3a1.161,1.161,0,0,1-1.161-1.161V22.627A1.161,1.161,0,0,1,20.3,21.466H26.5a1.161,1.161,0,0,1,1.161,1.161V32.3h1.161a1.161,1.161,0,0,1,1.161,1.161Z" transform="translate(-0.563 -0.563)" fill="#700066"/>
</svg>
