<svg id="Notification_DT_PopUp_pOST_ICON" xmlns="http://www.w3.org/2000/svg" xmlns:xlink="http://www.w3.org/1999/xlink" width="68" height="68" viewBox="0 0 68 68">
  <defs>
    <clipPath id="clip-path">
      <rect id="Rectangle_149" data-name="Rectangle 149" width="46.86" height="37.583" fill="#fff"/>
    </clipPath>
  </defs>
  <g id="Group_309" data-name="Group 309" transform="translate(-183 -311)">
    <g id="Ellipse_16" data-name="Ellipse 16" transform="translate(183 311)" fill="#9a038d" stroke="#707070" stroke-width="1">
      <circle cx="34" cy="34" r="34" stroke="none"/>
      <circle cx="34" cy="34" r="33.5" fill="none"/>
    </g>
    <g id="Group_306" data-name="Group 306" transform="translate(194.429 328.594)">
      <g id="Group_305" data-name="Group 305" transform="translate(0 0)" clip-path="url(#clip-path)">
        <path id="Path_211" data-name="Path 211" d="M45.419.051a.218.218,0,0,0-.056-.01A1.564,1.564,0,0,0,44.984,0H1.876A1.877,1.877,0,0,0,0,1.876v25.6a1.878,1.878,0,0,0,.923,1.615H.928a1.863,1.863,0,0,0,.948.256H6.469A1.876,1.876,0,0,1,8.34,31.226v4.48a1.873,1.873,0,0,0,3.2,1.322l7.13-7.125A1.878,1.878,0,0,1,20,29.35H44.984a1.873,1.873,0,0,0,1.876-1.871V1.876A1.875,1.875,0,0,0,45.419.051M8.581,18.381a3.7,3.7,0,1,1,3.706-3.706,3.7,3.7,0,0,1-3.706,3.706m14.793,0a3.7,3.7,0,1,1,3.7-3.706,3.708,3.708,0,0,1-3.7,3.706m14.906,0a3.7,3.7,0,1,1,3.7-3.706,3.708,3.708,0,0,1-3.7,3.706" transform="translate(0 0)" fill="#fff"/>
      </g>
    </g>
  </g>
</svg>
