<svg id="Notification_DT_PopUp_CONNECT_ICON" xmlns="http://www.w3.org/2000/svg" xmlns:xlink="http://www.w3.org/1999/xlink" width="68" height="68" viewBox="0 0 68 68">
  <defs>
    <clipPath id="clip-path">
      <rect id="Rectangle_147" data-name="Rectangle 147" width="44.871" height="44.871" fill="#fff"/>
    </clipPath>
  </defs>
  <g id="Group_303" data-name="Group 303">
    <circle id="Ellipse_15" data-name="Ellipse 15" cx="34" cy="34" r="34" fill="#9a038d"/>
    <g id="Group_302" data-name="Group 302" transform="translate(13.223 9.926)">
      <g id="Group_301" data-name="Group 301" clip-path="url(#clip-path)">
        <path id="Path_205" data-name="Path 205" d="M81.756,99.614a.9.9,0,0,0,.9-.9,16.016,16.016,0,0,1,16-16,.9.9,0,0,0,0-1.795A17.812,17.812,0,0,0,80.859,98.716a.9.9,0,0,0,.9.9" transform="translate(-76.215 -76.277)" fill="#fff"/>
        <path id="Path_206" data-name="Path 206" d="M392.845,375.118a.9.9,0,0,0-.9.9,16.016,16.016,0,0,1-16,16,.9.9,0,0,0,0,1.795,17.812,17.812,0,0,0,17.792-17.792.9.9,0,0,0-.9-.9" transform="translate(-353.515 -353.576)" fill="#fff"/>
        <path id="Path_207" data-name="Path 207" d="M441.721,178.148a5.951,5.951,0,0,1-9.544,0,10.186,10.186,0,0,0-5.408,8.983.889.889,0,0,0,.9.9h18.567a.894.894,0,0,0,.9-.9,10.183,10.183,0,0,0-5.41-8.983" transform="translate(-402.261 -167.917)" fill="#fff"/>
        <path id="Path_208" data-name="Path 208" d="M522.377,10.832c2.809,0,4.981-3.15,4.981-5.851a4.976,4.976,0,1,0-9.952,0c0,2.7,2.172,5.851,4.972,5.851" transform="translate(-487.692)" fill="#fff"/>
        <path id="Path_209" data-name="Path 209" d="M14.961,609.292a6.309,6.309,0,0,1-4.775,2.4,6.309,6.309,0,0,1-4.775-2.4A10.183,10.183,0,0,0,0,618.275a.894.894,0,0,0,.9.9H19.474a.894.894,0,0,0,.9-.9,10.183,10.183,0,0,0-5.41-8.983" transform="translate(0 -574.302)" fill="#fff"/>
        <path id="Path_210" data-name="Path 210" d="M90.635,436.273c0,2.7,2.172,5.851,4.981,5.851s4.981-3.15,4.981-5.851a4.981,4.981,0,0,0-9.961,0" transform="translate(-85.43 -406.533)" fill="#fff"/>
      </g>
    </g>
  </g>
</svg>
