<svg xmlns="http://www.w3.org/2000/svg" width="22" height="22" viewBox="0 0 22 22"><defs><style>.a{fill:#fff;stroke:#707070;opacity:0;}.b{stroke:none;}.c{fill:none;}</style></defs><g transform="translate(202 -642) rotate(90)"><g class="a" transform="translate(642 180)"><rect class="b" width="22" height="22"/><rect class="c" x="0.5" y="0.5" width="21" height="21"/></g><g transform="translate(618.734 187)"><g transform="translate(31.998 0)"><path d="M38.211,3.481,32.234.021A.157.157,0,0,0,32,.157V7.078a.157.157,0,0,0,.079.136.159.159,0,0,0,.079.021.157.157,0,0,0,.079-.021l5.977-3.46a.158.158,0,0,0,0-.272Z" transform="translate(-31.998 0)"/></g></g></g></svg>