<svg xmlns="http://www.w3.org/2000/svg" width="22" height="22" viewBox="0 0 22 22"><defs><style>.a{fill:#fff;stroke:#707070;opacity:0;}.b{fill:#1a1818;}.c{stroke:none;}.d{fill:none;}</style></defs><g transform="translate(-642 -228)"><g class="a" transform="translate(642 228)"><rect class="c" width="22" height="22"/><rect class="d" x="0.5" y="0.5" width="21" height="21"/></g><path class="b" d="M164.546,94.007h11.718a.219.219,0,0,0,.219-.219V87.169a.222.222,0,0,0-.02-.089A.228.228,0,0,0,176.48,87V85.114a.219.219,0,0,0-.219-.219h-5.921l-.5-.954a.219.219,0,0,0-.194-.117h-3.912a.219.219,0,0,0-.219.219v1.3h-.968a.219.219,0,0,0-.219.219V87a.221.221,0,0,0,.017.084.226.226,0,0,0-.018.086v6.619A.219.219,0,0,0,164.546,94.007Zm11.5-.438H164.765V87.388h11.281Zm-10.312-7.794a.219.219,0,0,0,.219-.219v-1.3h3.561l.5.954a.219.219,0,0,0,.194.117h5.834V86.95H164.766V85.776Z" transform="translate(482.673 150.176)"/></g></svg>