<svg xmlns="http://www.w3.org/2000/svg" width="28.253" height="35.955" viewBox="0 0 28.253 35.955"><defs><style>.a{fill:#e83e8c;}</style></defs><path class="a" d="M90.047,88.049l-1.135.043.813,21.216,1.135-.043Zm12.421,21.58-2.3,2.3H86.984l-2.178-2.177L82.554,88.012l-1.132.118,2.3,22.137,2.8,2.795h14.128l2.915-2.914,2.295-22.017-1.13-.118Zm-.779-26.463V80.694A3.592,3.592,0,0,0,98.1,77.107h-8.93a3.592,3.592,0,0,0-3.587,3.587v2.472H79.511V84.3h28.253V83.166Zm-1.137,0H86.722V80.694a2.454,2.454,0,0,1,2.451-2.451H98.1a2.453,2.453,0,0,1,2.451,2.451ZM96.919,88.05l-.751,21.216,1.135.04.751-21.216Z" transform="translate(-79.511 -77.107)"/></svg>