<svg xmlns="http://www.w3.org/2000/svg" width="26" height="26" viewBox="0 0 26 26"><defs><style>.a{fill:#fff;}</style></defs><g transform="translate(-842 -329)"><circle class="a" cx="13" cy="13" r="13" transform="translate(842 329)"/><path d="M9.791.416a1.523,1.523,0,0,0-2.152,0L7.1.958,1.365,6.69,1.352,6.7s0,.006-.006.006-.015.018-.021.027,0,0,0,.006l-.015.024s0,.006-.006.009-.006.015-.009.024,0,0,0,.006L.016,10.633a.3.3,0,0,0,.073.31.306.306,0,0,0,.216.088.359.359,0,0,0,.1-.015L4.226,9.741s0,0,.006,0a.11.11,0,0,0,.027-.012l.006,0L4.3,9.7c.009-.006.018-.015.027-.021s.006,0,.006-.006.009-.006.012-.012L10.616,3.39a1.523,1.523,0,0,0,0-2.152ZM4.129,9.025,2.01,6.906l5.3-5.3L9.432,3.722ZM1.712,7.47,3.563,9.321l-2.78.925Zm8.476-4.506-.323.326L7.745,1.171,8.071.845a.913.913,0,0,1,1.291,0l.828.828A.916.916,0,0,1,10.187,2.964Zm0,0" transform="translate(849 336.029)"/></g></svg>