<svg xmlns="http://www.w3.org/2000/svg" width="17.17" height="17.17" viewBox="0 0 17.17 17.17"><defs><style>.a{fill:#b5b5c3;}</style></defs><g transform="translate(0 0)"><path class="a" d="M17.056,3.236,13.934.114A.39.39,0,0,0,13.658,0H1.561A1.563,1.563,0,0,0,0,1.561V15.609A1.563,1.563,0,0,0,1.561,17.17H15.609a1.563,1.563,0,0,0,1.561-1.561V3.512A.39.39,0,0,0,17.056,3.236ZM3.9.78h8.585V5.463a.781.781,0,0,1-.78.78H4.683a.781.781,0,0,1-.78-.78ZM14.048,16.39H3.122V9.366H14.048Zm2.341-.78a.781.781,0,0,1-.78.78h-.78V8.975a.39.39,0,0,0-.39-.39H2.732a.39.39,0,0,0-.39.39V16.39h-.78a.781.781,0,0,1-.78-.78V1.561a.781.781,0,0,1,.78-.78H3.122V5.463A1.563,1.563,0,0,0,4.683,7.024h7.024a1.563,1.563,0,0,0,1.561-1.561V.78H13.5L16.39,3.674Z" transform="translate(0 0)"/><path class="a" d="M256.294,45.606h1.176a.294.294,0,0,0,.294-.294V42.96a.294.294,0,0,0-.294-.294h-1.176a.294.294,0,0,0-.294.294v2.352A.294.294,0,0,0,256.294,45.606Zm.294-2.352h.588v1.764h-.588Z" transform="translate(-246.27 -41.49)"/></g></svg>