<svg xmlns="http://www.w3.org/2000/svg" width="17.183" height="13.173" viewBox="0 0 17.183 13.173"><path d="M16.323,59.733H.859A.859.859,0,0,0,0,60.592V72.047a.859.859,0,0,0,.859.859H16.323a.859.859,0,0,0,.859-.859V60.592A.859.859,0,0,0,16.323,59.733Zm.286,12.314a.286.286,0,0,1-.286.286H.859a.286.286,0,0,1-.286-.286V60.592a.286.286,0,0,1,.286-.286H16.323a.286.286,0,0,1,.286.286V72.047Z" transform="translate(0 -59.733)"/><path d="M48.763,93.866a.286.286,0,0,0-.209.066l-6.607,5.55a.573.573,0,0,1-.737,0L34.6,93.932a.286.286,0,0,0-.368.439l6.607,5.55a1.144,1.144,0,0,0,1.474,0l6.607-5.55a.286.286,0,0,0-.159-.5Z" transform="translate(-32.987 -92.72)"/><path d="M38.367,272.932a.286.286,0,0,0-.276.089l-4.009,4.3a.286.286,0,1,0,.419.391l4.009-4.3a.286.286,0,0,0-.143-.48Z" transform="translate(-32.859 -265.77)"/><path d="M341.7,273.021a.286.286,0,1,0-.419.391l4.009,4.3a.286.286,0,0,0,.419-.391Z" transform="translate(-329.75 -265.77)"/></svg>