<svg xmlns="http://www.w3.org/2000/svg" width="22" height="22" viewBox="0 0 22 22"><defs><style>.a{fill:#fff;stroke:#707070;opacity:0;}.b{fill:#3699ff;}.c{stroke:none;}.d{fill:none;}</style></defs><g class="a"><rect class="c" width="22" height="22"/><rect class="d" x="0.5" y="0.5" width="21" height="21"/></g><g transform="translate(3.351 -4.134)"><g transform="translate(0 8.013)"><path class="b" d="M148.245,14.566a.252.252,0,0,0,0-.5,2.772,2.772,0,1,1,.052-5.544,2.838,2.838,0,0,1,2.72,2.873v1.663a.252.252,0,0,1-.252.252h-.252a.252.252,0,0,1-.252-.252V10.282a.252.252,0,0,0-.252-.252.248.248,0,0,0-.241.2,2.016,2.016,0,1,0-.011,2.646v.183a.756.756,0,0,0,.756.756h.252a.756.756,0,0,0,.756-.756V11.39a3.344,3.344,0,0,0-3.215-3.377,3.276,3.276,0,0,0-.061,6.552Zm0-1.512a1.512,1.512,0,1,1,1.512-1.512A1.512,1.512,0,0,1,148.245,13.054Z" transform="translate(-140.432 -8.013)"/><path class="b" d="M15.622,134.993a.252.252,0,0,0,0-.031.2.2,0,0,0-.009-.032.249.249,0,0,0-.014-.034l-.006-.016s-.005,0-.007-.008a.332.332,0,0,0-.047-.05l-.024-.019s0-.006-.008-.007l-3.538-2.124a.252.252,0,1,0-.26.432l3.178,1.906-3.92,2.352-3.02-1.812a.252.252,0,0,0-.26,0l-3.02,1.812-3.92-2.352L3.921,133.1a.252.252,0,0,0-.26-.432L.123,134.793s0,.005-.008.007l-.025.019a.262.262,0,0,0-.028.028.244.244,0,0,0-.019.024s-.006,0-.007.008L.03,134.9a.249.249,0,0,0-.014.034.2.2,0,0,0-.009.032.252.252,0,0,0,0,.031c0,.006,0,.011,0,.017v8.064a.756.756,0,0,0,.756.756H14.87a.756.756,0,0,0,.756-.756v-8.064C15.626,135,15.623,135,15.622,134.993Zm-15.117.462,3.668,2.2-3.668,2.2Zm14.617,7.619a.252.252,0,0,1-.252.252H.757a.252.252,0,0,1-.252-.252v-2.629l7.308-4.385,7.308,4.385Zm0-3.217-3.668-2.2,3.668-2.2Z" transform="translate(0 -128.709)"/><path class="b" d="M32.788,409.026h-.252v-.756a.252.252,0,1,0-.5,0v1.008a.252.252,0,0,0,.252.252h.5a.252.252,0,1,0,0-.5Z" transform="translate(-31.023 -395.417)"/><path class="b" d="M80.788,440.018h-.5a.252.252,0,1,0,0,.5h.5a.252.252,0,0,0,0-.5Z" transform="translate(-77.511 -426.409)"/></g></g></svg>