<svg xmlns="http://www.w3.org/2000/svg" width="22" height="22" viewBox="0 0 22 22"><defs><style>.a{fill:#fff;stroke:#707070;opacity:0;}.b{fill:#3699ff;}.c{stroke:none;}.d{fill:none;}</style></defs><g class="a"><rect class="c" width="22" height="22"/><rect class="d" x="0.5" y="0.5" width="21" height="21"/></g><g transform="translate(-1133.322 -479.475)"><g transform="translate(1141.231 483.33)"><path class="b" d="M1169.341,485.6H1163.2a.271.271,0,0,1-.271-.271v-.692a1.31,1.31,0,0,1,1.309-1.309h4.067a1.31,1.31,0,0,1,1.309,1.309v.692A.271.271,0,0,1,1169.341,485.6Zm-5.871-.541h5.6v-.421a.768.768,0,0,0-.767-.767h-4.067a.768.768,0,0,0-.767.767Z" transform="translate(-1162.928 -483.33)"/></g><g transform="translate(1135.401 491.195)"><path class="b" d="M1155.1,524.313h-15.855a1.246,1.246,0,0,1-1.244-1.244v-5.84a.271.271,0,0,1,.321-.266l3.62.677a.271.271,0,0,1,.221.266v1.721h1.188v-1.4a.271.271,0,0,1,.321-.266l3.5.655,3.5-.655a.271.271,0,0,1,.321.266v1.4h1.188v-1.721a.271.271,0,0,1,.221-.266l3.62-.677a.271.271,0,0,1,.321.266v5.84A1.245,1.245,0,0,1,1155.1,524.313Zm-16.557-6.758v5.514a.7.7,0,0,0,.7.7H1155.1a.7.7,0,0,0,.7-.7v-5.514l-3.078.576V519.9a.271.271,0,0,1-.271.271h-1.73a.271.271,0,0,1-.271-.271v-1.342l-3.23.6a.275.275,0,0,1-.1,0l-3.23-.6V519.9a.271.271,0,0,1-.271.271h-1.729a.271.271,0,0,1-.271-.271v-1.767Z" transform="translate(-1138.002 -516.958)"/></g><g transform="translate(1134.607 485.059)"><path class="b" d="M1144.573,499.067a.273.273,0,0,1-.05,0l-3.551-.664a.271.271,0,0,1-.221-.266V496.74h-1.187v1.069a.271.271,0,0,1-.321.266l-3.62-.678a1.244,1.244,0,0,1-1.015-1.223v-4.206a1.245,1.245,0,0,1,1.244-1.244h17.443a1.245,1.245,0,0,1,1.244,1.244v4.206a1.244,1.244,0,0,1-1.015,1.223l-3.62.678a.271.271,0,0,1-.321-.266V496.74h-1.187v1.393a.271.271,0,0,1-.221.266l-3.551.664A.275.275,0,0,1,1144.573,499.067Zm-3.28-1.16,3.28.614,3.28-.614v-1.439a.271.271,0,0,1,.271-.271h1.73a.271.271,0,0,1,.271.271v1.014l3.3-.617a.7.7,0,0,0,.573-.69v-4.206a.7.7,0,0,0-.7-.7h-17.443a.7.7,0,0,0-.7.7v4.206a.7.7,0,0,0,.573.69l3.3.617v-1.014a.271.271,0,0,1,.271-.271h1.729a.271.271,0,0,1,.271.271Z" transform="translate(-1134.607 -490.725)"/></g><g transform="translate(1144.302 492.196)"><path class="b" d="M1176.331,522.445a.271.271,0,0,1-.266-.221.279.279,0,0,1,0-.05.271.271,0,0,1,.221-.266l3.551-.664a.271.271,0,1,1,.1.532l-3.551.664A.287.287,0,0,1,1176.331,522.445Z" transform="translate(-1176.06 -521.239)"/></g><g transform="translate(1135.401 491.195)"><path class="b" d="M1141.894,518.178a.282.282,0,0,1-.05,0l-3.62-.677a.271.271,0,0,1-.221-.266.291.291,0,0,1,0-.05.271.271,0,0,1,.316-.216l3.62.677a.271.271,0,0,1,.221.266.29.29,0,0,1,0,.05A.271.271,0,0,1,1141.894,518.178Z" transform="translate(-1138.002 -516.958)"/></g><g transform="translate(1140.751 492.196)"><path class="b" d="M1164.7,522.445a.283.283,0,0,1-.05,0l-3.551-.664a.271.271,0,0,1-.221-.266.279.279,0,0,1,0-.05.27.27,0,0,1,.316-.216l3.551.664a.271.271,0,0,1,.221.266.317.317,0,0,1,0,.05A.271.271,0,0,1,1164.7,522.445Z" transform="translate(-1160.877 -521.239)"/></g><g transform="translate(1149.582 491.195)"><path class="b" d="M1198.909,518.178a.271.271,0,0,1-.266-.221.28.28,0,0,1,0-.05.271.271,0,0,1,.221-.266l3.62-.678a.271.271,0,0,1,.316.216.258.258,0,0,1,0,.05.271.271,0,0,1-.221.266l-3.62.678A.291.291,0,0,1,1198.909,518.178Z" transform="translate(-1198.638 -516.96)"/></g><g transform="translate(1139.022 490.533)"><path class="b" d="M1155.483,518h-1.729a.271.271,0,0,1-.271-.271V514.4a.271.271,0,0,1,.271-.271h1.729a.271.271,0,0,1,.271.271v3.331A.271.271,0,0,1,1155.483,518Zm-1.458-.541h1.188v-2.79h-1.188Z" transform="translate(-1153.483 -514.127)"/></g></g></svg>