<svg xmlns="http://www.w3.org/2000/svg" width="22" height="22" viewBox="0 0 22 22"><defs><style>.a{fill:#fff;stroke:#707070;opacity:0;}.b{fill:none;}.c{fill:#1e1e1e;}.d{stroke:none;}</style></defs><g class="a"><rect class="d" width="22" height="22"/><rect class="b" x="0.5" y="0.5" width="21" height="21"/></g><rect class="b" width="22" height="22"/><g transform="translate(-429.004 -648.849)"><g transform="translate(431.004 652.849)"><path class="c" d="M447.665,664.916H432.253a1.251,1.251,0,0,1-1.249-1.25V654.1a1.251,1.251,0,0,1,1.249-1.249h15.411a1.251,1.251,0,0,1,1.249,1.249v9.568A1.251,1.251,0,0,1,447.665,664.916Zm-15.411-11.649a.832.832,0,0,0-.831.831v9.568a.832.832,0,0,0,.831.831h15.411a.832.832,0,0,0,.831-.831V654.1a.832.832,0,0,0-.831-.831Z" transform="translate(-431.004 -652.849)"/></g><g transform="translate(438.595 664.498)"><path class="c" d="M475.554,719.757h-2.31a.209.209,0,0,1-.209-.209v-1.989a.209.209,0,0,1,.209-.209h2.31a.209.209,0,0,1,.209.209v1.989A.209.209,0,0,1,475.554,719.757Zm-2.1-.418h1.892v-1.571h-1.892Z" transform="translate(-473.035 -717.349)"/></g><g transform="translate(431.004 662.39)"><path class="c" d="M448.705,706.1H431.213a.209.209,0,1,1,0-.418h17.492a.209.209,0,1,1,0,.418Z" transform="translate(-431.004 -705.679)"/></g><g transform="translate(436.83 666.487)"><path class="c" d="M469.312,728.782h-5.84a.209.209,0,0,1,0-.418h5.84a.209.209,0,0,1,0,.418Z" transform="translate(-463.263 -728.364)"/></g><g transform="translate(433.83 655.116)"><g transform="translate(7.448 1.071)"><path class="c" d="M488.1,674.747a.209.209,0,0,1-.153-.352l2.805-2.995a.209.209,0,1,1,.305.286l-2.805,2.994A.208.208,0,0,1,488.1,674.747Z" transform="translate(-487.888 -671.334)"/></g><g transform="translate(3.464 2.627)"><path class="c" d="M469,681.963a.209.209,0,0,1-.1-.025l-2.96-1.6a.209.209,0,1,1,.2-.368l2.96,1.6a.209.209,0,0,1-.1.393Z" transform="translate(-465.832 -679.945)"/></g><g transform="translate(1.02 2.839)"><path class="c" d="M452.511,683.431a.209.209,0,0,1-.163-.339l1.505-1.891a.209.209,0,1,1,.327.26l-1.5,1.891A.209.209,0,0,1,452.511,683.431Z" transform="translate(-452.302 -681.121)"/></g><g transform="translate(0 4.667)"><path class="c" d="M447.458,692.854h-.037a.805.805,0,1,1,.841-.768h0a.805.805,0,0,1-.8.769Zm0-1.193a.387.387,0,1,0,.387.4h0a.387.387,0,0,0-.369-.4Z" transform="translate(-446.651 -691.244)"/></g><g transform="translate(2.333 1.741)"><path class="c" d="M460.376,676.651h-.037a.805.805,0,0,1,.072-1.609.807.807,0,0,1,.768.841h0a.805.805,0,0,1-.8.769Zm0-1.192a.389.389,0,1,0,.018,0Zm.6.414h0Z" transform="translate(-459.57 -675.041)"/></g><g transform="translate(6.41 3.944)"><path class="c" d="M482.951,688.851h-.037a.805.805,0,0,1-.768-.841.81.81,0,0,1,.841-.768.806.806,0,0,1,.769.841h0a.806.806,0,0,1-.8.769Zm0-1.193a.387.387,0,1,0,.261.673.383.383,0,0,0,.126-.268h0a.387.387,0,0,0-.369-.4Z" transform="translate(-482.145 -687.24)"/></g><g transform="translate(10.101 0)"><path class="c" d="M503.388,667.013h-.037a.805.805,0,1,1,.841-.768h0a.805.805,0,0,1-.8.769Zm0-1.192a.387.387,0,0,0-.017.774.391.391,0,0,0,.278-.1.387.387,0,0,0-.244-.673Zm.6.414h0Z" transform="translate(-502.581 -665.402)"/></g></g></g></svg>