<svg xmlns="http://www.w3.org/2000/svg" width="22" height="22" viewBox="0 0 22 22"><defs><style>.a{fill:#fff;stroke:#707070;opacity:0;}.b,.c,.e{fill:none;}.b,.c{stroke:#3699ff;stroke-width:0.7px;}.b{stroke-linecap:round;stroke-linejoin:round;}.c{stroke-miterlimit:22.926;}.d{stroke:none;}</style></defs><g class="a"><rect class="d" width="22" height="22"/><rect class="e" x="0.5" y="0.5" width="21" height="21"/></g><g transform="translate(-375.677 -435.296)"><path class="b" d="M393.468,447.785l1.154-1.153c1.99-1.987,1.006-4.671-.6-6.394a7.375,7.375,0,0,0-1.757-1.411c-.814-.456-3.367-1.125-5.036.5l-3.464,3.447c-.935.931,1.425,1.831,2.619.654l.873-.86c1.289-1.169,2.91,1.174,4.929-.419m-12.206,5.091-1.152-1.151c-3.841-3.836,2.811-10.42,6.71-6.625l.776.773M389.1,443.4l4.461,4.676c.91.955-.442,2.772-1.61,1.567l-2.091-2.156m-1.822,1.453,2.3,2.362c.92.945,2.783-.453,1.615-1.658l-2.247-2.318m-2.365,4.224,1.148,1.158c.93.936,2.733-.4,1.574-1.617"/><path class="c" d="M384.242,453.444l.122.123a1.072,1.072,0,0,1,0,1.509l-1.588,1.589a1.072,1.072,0,0,1-1.509,0l-.122-.122a1.071,1.071,0,0,1,0-1.509l1.589-1.59a1.071,1.071,0,0,1,1.509,0Zm2.672.727.123.123a1.072,1.072,0,0,1,0,1.509l-2.53,2.53a1.073,1.073,0,0,1-1.509,0l-.122-.123a1.07,1.07,0,0,1,0-1.509l2.53-2.531a1.07,1.07,0,0,1,1.509,0Zm1.034,2.365.123.123a1.071,1.071,0,0,1,0,1.509l-1.735,1.735a1.072,1.072,0,0,1-1.509,0l-.123-.123a1.07,1.07,0,0,1,0-1.509l1.735-1.735a1.071,1.071,0,0,1,1.509,0Zm1.116,2.256.122.123a1.072,1.072,0,0,1,0,1.509l-1.065,1.065a1.073,1.073,0,0,1-1.509,0l-.122-.123a1.071,1.071,0,0,1,0-1.509l1.065-1.065a1.071,1.071,0,0,1,1.509,0Z" transform="translate(-1.522 -7.153)"/></g></svg>