<svg xmlns="http://www.w3.org/2000/svg" width="22" height="22" viewBox="0 0 22 22"><defs><style>.a{fill:#fff;stroke:#707070;opacity:0;}.b,.d{fill:none;}.b{stroke:#505050;stroke-miterlimit:10;stroke-width:0.8px;}.c{stroke:none;}</style></defs><g class="a"><rect class="c" width="22" height="22"/><rect class="d" x="0.5" y="0.5" width="21" height="21"/></g><g transform="translate(-126 -48.274)"><path class="b" d="M153.527,72.982a1.038,1.038,0,0,1-1.022,1.052h-9.483A1.038,1.038,0,0,1,142,72.982v-5.93A1.038,1.038,0,0,1,143.022,66h9.483a1.038,1.038,0,0,1,1.022,1.052Z" transform="translate(-8.459 -8.596)"/><path class="b" d="M132.842,63.486l-.385.14a1.067,1.067,0,0,1-1.366-.613l-2.031-5.58a1.074,1.074,0,0,1,.649-1.356l8.863-3.226a1.03,1.03,0,0,1,1.32.639l1.171,3.216"/><line class="b" x1="11.527" transform="translate(133.541 59.15)"/><line class="b" x1="11.527" transform="translate(133.541 60.897)"/><line class="b" x2="2.445" transform="translate(134.589 62.294)"/></g></svg>