<svg xmlns="http://www.w3.org/2000/svg" width="22" height="22" viewBox="0 0 22 22"><defs><style>.a{fill:#fff;stroke:#707070;opacity:0;}.b{fill:#3699ff;}.c{stroke:none;}.d{fill:none;}</style></defs><g class="a"><rect class="c" width="22" height="22"/><rect class="d" x="0.5" y="0.5" width="21" height="21"/></g><g transform="translate(-2875.941 -291.328)"><g transform="translate(2879.36 304.462)"><g transform="translate(0 0)"><path class="b" d="M2881.766,356.78h-2.192a.213.213,0,0,1-.213-.213v-6.134a.213.213,0,0,1,.213-.213h2.192a.214.214,0,0,1,.214.213v6.134A.214.214,0,0,1,2881.766,356.78Zm-1.979-.427h1.765v-5.707h-1.765Z" transform="translate(-2879.36 -350.22)"/></g><g transform="translate(2.192 0.534)"><path class="b" d="M2895.042,355.633a.213.213,0,0,1-.063-.417l1.571-.487a.211.211,0,0,1,.093-.008l2.938.413a.364.364,0,0,0,.409-.282l.025-.111a.368.368,0,0,0-.273-.438l-3.094-.73a.983.983,0,0,0-.407-.01l-4.734.875a.213.213,0,0,1-.078-.42l4.734-.875a1.412,1.412,0,0,1,.583.014l3.094.731a.8.8,0,0,1,.591.948l-.025.111a.789.789,0,0,1-.884.61l-2.891-.406-1.525.473A.217.217,0,0,1,2895.042,355.633Z" transform="translate(-2891.254 -353.119)"/></g><g transform="translate(2.192 2.546)"><path class="b" d="M2894.839,366.849a29.078,29.078,0,0,1-3.4-.2.213.213,0,1,1,.05-.424,28.371,28.371,0,0,0,10.811-.8l.6-.162a.367.367,0,0,0,.078-.677.367.367,0,0,0-.174-.044l-3.257-.074a.213.213,0,0,1,0-.427h.005l3.253.074h0a.791.791,0,0,1,.371.095.794.794,0,0,1-.168,1.464l-.6.162A28.8,28.8,0,0,1,2894.839,366.849Z" transform="translate(-2891.254 -364.037)"/></g></g><g transform="translate(2882.41 294.123)"><g transform="translate(3.801 5.03)"><g transform="translate(0 0.733)"><path class="b" d="M2917.822,329.343a1.519,1.519,0,0,1-1.242-.63.213.213,0,1,1,.339-.26,1.173,1.173,0,0,0,1.482.329l.019-.009a.547.547,0,0,0,.3-.576.693.693,0,0,0-.475-.579l-.929-.276a.943.943,0,0,1-.76-.963c0-.234.1-.992,1.321-.984a1.3,1.3,0,0,1,1.27.878.213.213,0,0,1-.41.119.872.872,0,0,0-.865-.57c-.4,0-.884.089-.889.561,0,.2.05.43.454.549l.929.276a1.117,1.117,0,0,1,.778.949.982.982,0,0,1-.557,1.006A1.734,1.734,0,0,1,2917.822,329.343Z" transform="translate(-2916.536 -325.395)"/></g><g transform="translate(1.129)"><path class="b" d="M2922.876,322.575a.214.214,0,0,1-.214-.213v-.734a.214.214,0,0,1,.427,0v.734A.214.214,0,0,1,2922.876,322.575Z" transform="translate(-2922.662 -321.415)"/></g><g transform="translate(1.129 4.301)"><path class="b" d="M2922.876,345.913a.213.213,0,0,1-.214-.213v-.734a.214.214,0,0,1,.427,0v.734A.214.214,0,0,1,2922.876,345.913Z" transform="translate(-2922.662 -344.753)"/></g></g><g transform="translate(0 0)"><g transform="translate(0 3.81)"><path class="b" d="M2904.224,324.3a.213.213,0,0,1-.06-.418,2.036,2.036,0,0,0,1.544-2.26c0-2.073-1.373-5.229-3.219-6.4h-2.933c-1.846,1.169-3.219,4.324-3.219,6.4a3.214,3.214,0,0,0,.146,1.023.213.213,0,1,1-.4.137,3.632,3.632,0,0,1-.169-1.16c0-2.21,1.427-5.543,3.474-6.793a.214.214,0,0,1,.111-.031h3.055a.214.214,0,0,1,.112.031c2.047,1.25,3.474,4.583,3.474,6.793a2.438,2.438,0,0,1-1.851,2.669A.215.215,0,0,1,2904.224,324.3Z" transform="translate(-2895.91 -314.797)"/></g><g transform="translate(2.696 2.54)"><path class="b" d="M2914.705,309.6h-3.5a.668.668,0,0,1-.667-.667v-.363a.668.668,0,0,1,.667-.667h3.5a.668.668,0,0,1,.667.667v.363A.668.668,0,0,1,2914.705,309.6Zm-3.5-1.27a.24.24,0,0,0-.24.24v.363a.24.24,0,0,0,.24.24h3.5a.24.24,0,0,0,.24-.24v-.363a.24.24,0,0,0-.24-.24Z" transform="translate(-2910.54 -307.906)"/></g><g transform="translate(2.428)"><path class="b" d="M2913.183,297.09a.216.216,0,0,1-.1-.026.213.213,0,0,1-.084-.29c.015-.028.387-.7,1.157-1.831.08-.117.114-.215.086-.248-.229-.277-1.908-.062-2.683.276a1.342,1.342,0,0,1-1.305-.185,1.127,1.127,0,0,0-.748-.227,6.2,6.2,0,0,0,1.369,2.18.213.213,0,0,1-.327.274c-.5-.6-1.647-2.054-1.438-2.619a.4.4,0,0,1,.324-.256,1.5,1.5,0,0,1,1.031.276.932.932,0,0,0,.924.165c.606-.264,2.7-.741,3.183-.157.115.138.2.382-.063.761-.757,1.107-1.132,1.788-1.135,1.8A.213.213,0,0,1,2913.183,297.09Z" transform="translate(-2909.082 -294.123)"/></g></g></g></g></svg>