<svg id="My_Settings_Default" data-name="My Settings Default" xmlns="http://www.w3.org/2000/svg" width="22" height="22" viewBox="0 0 22 22">
  <g id="Rectangle_13079" data-name="Rectangle 13079" fill="#fff" stroke="#707070" stroke-width="1" opacity="0">
    <rect width="22" height="22" stroke="none"/>
    <rect x="0.5" y="0.5" width="21" height="21" fill="none"/>
  </g>
  <g id="Group_116871" data-name="Group 116871" transform="translate(-287.219 -208.392)">
    <path id="Path_320" data-name="Path 320" d="M296.079,215l.787-1.9,1.157.385a4.9,4.9,0,0,1,1.146-1.144l-.386-1.158,1.9-.787.546,1.091a4.915,4.915,0,0,1,1.619,0l.546-1.09,1.9.787-.385,1.157a4.919,4.919,0,0,1,1.144,1.146l1.158-.386L308,215l-1.091.546a4.914,4.914,0,0,1,0,1.619l1.09.546-.787,1.9-1.157-.385a4.919,4.919,0,0,1-1.146,1.144l.386,1.158-1.9.787-.546-1.091a4.915,4.915,0,0,1-1.619,0l-.546,1.09-1.9-.787.385-1.157a4.919,4.919,0,0,1-1.144-1.146l-1.158.386-.787-1.9,1.091-.546a4.914,4.914,0,0,1,0-1.619Z" fill="none" stroke="#1e1e1e" stroke-linejoin="round" stroke-width="0.5"/>
    <path id="Path_321" data-name="Path 321" d="M300.216,217.108a1.975,1.975,0,1,0,1.068-2.58A1.973,1.973,0,0,0,300.216,217.108Z" fill="none" stroke="#1e1e1e" stroke-linejoin="round" stroke-width="0.5"/>
    <path id="Path_322" data-name="Path 322" d="M294.533,215.886a1.361,1.361,0,1,0-1.939,1.7" fill="none" stroke="#1e1e1e" stroke-linejoin="round" stroke-width="0.5"/>
    <path id="Path_323" data-name="Path 323" d="M289.452,222.456l.539-1.3,1.005.416a3.092,3.092,0,0,1,.723-.721l-.417-1.006,1.3-.539.416,1.006a3.1,3.1,0,0,1,1.022,0l.416-1.005,1.3.538-.417,1.006a3.059,3.059,0,0,1,.722.723l1.006-.417.539,1.3-1.006.417a3.1,3.1,0,0,1,0,1.022l1.005.416-.539,1.3-1.005-.417a3.078,3.078,0,0,1-.723.722l.417,1.006-1.3.539-.416-1.006a3.1,3.1,0,0,1-1.022,0l-.416,1.005-1.3-.539.417-1a3.078,3.078,0,0,1-.722-.723l-1.006.417-.539-1.3,1.006-.416a3.1,3.1,0,0,1,0-1.022Z" fill="none" stroke="#1e1e1e" stroke-linejoin="round" stroke-width="0.5"/>
    <path id="Path_324" data-name="Path 324" d="M290.9,218.3l-.963.468-.606-1.245.963-.468a3.054,3.054,0,0,1-.061-1l-1.011-.35.452-1.308,1.012.349a3.037,3.037,0,0,1,.666-.751l-.468-.963,1.245-.605.468.963a3.057,3.057,0,0,1,1-.061l.349-1.011,1.308.452-.349,1.011" fill="none" stroke="#1e1e1e" stroke-linejoin="round" stroke-width="0.5"/>
    <path id="Path_325" data-name="Path 325" d="M292.267,222.86a1.367,1.367,0,1,0,1.786-.74A1.367,1.367,0,0,0,292.267,222.86Z" fill="none" stroke="#1e1e1e" stroke-linejoin="round" stroke-width="0.5"/>
  </g>
</svg>
