<svg xmlns="http://www.w3.org/2000/svg" width="22" height="22" viewBox="0 0 22 22"><defs><style>.a{fill:#fff;stroke:#707070;opacity:0;}.b{fill:#1a1818;}.c{stroke:none;}.d{fill:none;}</style></defs><g transform="translate(-685 -228)"><g class="a" transform="translate(685 228)"><rect class="c" width="22" height="22"/><rect class="d" x="0.5" y="0.5" width="21" height="21"/></g><path class="b" d="M12.173,158.807H24.016a.221.221,0,0,0,.221-.221.125.125,0,0,1-.013-.117v-8.642a.221.221,0,0,0-.221-.221H18.024l-.506-.964a.221.221,0,0,0-.2-.118h-3.95a.221.221,0,0,0-.221.221v1.31h-.983a.221.221,0,0,0-.221.221v1.234H9.965a.221.221,0,0,0-.21.289l2.208,6.855A.221.221,0,0,0,12.173,158.807Zm.217-8.311h.978a.216.216,0,0,0,.088-.019.22.22,0,0,0,.137-.2v-1.308h3.6l.506.964a.221.221,0,0,0,.2.118h5.891v7.118l-1.772-5.5a.221.221,0,0,0-.21-.153H12.39Zm-.232,1.455.011,0,.011,0h9.458l2.066,6.414H12.334l-2.066-6.414Z" transform="translate(679.256 85.476)"/></g></svg>