<svg xmlns="http://www.w3.org/2000/svg" width="8.336" height="11.259" viewBox="0 0 8.336 11.259"><g transform="translate(-556.476 -186.058)"><path d="M557.054,190.836a.576.576,0,0,0,.412-.173l3.149-3.206,3.209,3.209a.578.578,0,0,0,.817-.817l-3.622-3.622a.539.539,0,0,0-.411-.169.579.579,0,0,0-.41.173l-3.558,3.622a.578.578,0,0,0,.412.983Z" transform="translate(0)"/><path d="M556.645,215.074l3.622,3.622a.577.577,0,0,0,.409.169h0a.577.577,0,0,0,.41-.173l3.558-3.622a.578.578,0,0,0-.825-.81l-3.149,3.206-3.209-3.209a.578.578,0,0,0-.818.818Z" transform="translate(0 -21.548)"/></g></svg>