<svg xmlns="http://www.w3.org/2000/svg" width="22" height="22" viewBox="0 0 22 22"><defs><style>.a{fill:#fff;stroke:#707070;opacity:0;}.b{fill:#999;}.c{stroke:none;}.d{fill:none;}</style></defs><g class="a"><rect class="c" width="22" height="22"/><rect class="d" x="0.5" y="0.5" width="21" height="21"/></g><g transform="translate(2.836 3.689)"><path class="b" d="M13.6,4.242a5.271,5.271,0,0,0-10.337,0,3.689,3.689,0,0,0,.425,7.355H6.327a.527.527,0,1,0,0-1.054H3.692a2.635,2.635,0,1,1,.031-5.271A.527.527,0,0,0,4.247,4.8a4.217,4.217,0,0,1,8.377,0,.559.559,0,0,0,.555.469,2.635,2.635,0,1,1,0,5.271H10.543a.527.527,0,1,0,0,1.054h2.635A3.689,3.689,0,0,0,13.6,4.242Zm0,0" transform="translate(0 0)"/><path class="b" d="M176.856,195.292a.527.527,0,1,0,.758-.732l-.013-.013-2.235-2.236a.527.527,0,0,0-.745,0h0l-2.235,2.236a.527.527,0,0,0,.732.758l.013-.013,1.336-1.337v6.634a.527.527,0,1,0,1.054,0v-6.634Zm0,0" transform="translate(-166.557 -185.833)"/></g></svg>