<svg xmlns="http://www.w3.org/2000/svg" width="30" height="27.5" viewBox="0 0 30 27.5"><defs><style>.a{fill:#f44336;}</style></defs><g transform="translate(0 -21.333)"><path class="a" d="M12.4,21.614a.625.625,0,0,0-.521-.281H.625A.625.625,0,0,0,0,21.958v26.25a.625.625,0,0,0,.5.612.635.635,0,0,0,.125.012.625.625,0,0,0,.575-.375l11.25-26.25A.625.625,0,0,0,12.4,21.614Z" transform="translate(0 0)"/><path class="a" d="M166.2,181.723a.625.625,0,0,0-.579-.39h0a.625.625,0,0,0-.576.383l-5,11.875a.625.625,0,0,0,.576.868h4.566l1.724,4.595a.625.625,0,0,0,.585.405h5a.625.625,0,0,0,.579-.86Z" transform="translate(-150.619 -150.625)"/><path class="a" d="M310.506,21.333h-11.25a.625.625,0,0,0-.575.875l11.25,26.25a.625.625,0,0,0,.575.375.639.639,0,0,0,.125-.012.625.625,0,0,0,.5-.612V21.958A.625.625,0,0,0,310.506,21.333Z" transform="translate(-281.131)"/></g></svg>