<svg xmlns="http://www.w3.org/2000/svg" width="30" height="28.755" viewBox="0 0 30 28.755"><defs><style>.a{fill:#4caf50;}.b{fill:#fafafa;}</style></defs><g transform="translate(0 -10.626)"><g transform="translate(0 10.626)"><path class="a" d="M17.265,10.766a.625.625,0,0,0-.53-.125L.485,14.391A.625.625,0,0,0,0,15.006v21.25a.625.625,0,0,0,.53.618l16.25,2.5a.625.625,0,0,0,.72-.617v-27.5A.625.625,0,0,0,17.265,10.766Z" transform="translate(0 -10.626)"/><path class="a" d="M290.458,77.127h-12.5a.625.625,0,0,1,0-1.25h11.875V54.627H277.958a.625.625,0,1,1,0-1.25h12.5a.625.625,0,0,1,.625.625V76.5A.625.625,0,0,1,290.458,77.127Z" transform="translate(-261.083 -50.872)"/></g><g transform="translate(4.989 19.363)"><path class="b" d="M92.035,171.026a.625.625,0,0,1-.53-.294l-6.25-10a.625.625,0,1,1,1.039-.7l.021.034,6.25,10a.625.625,0,0,1-.53.955Z" transform="translate(-85.149 -159.758)"/><path class="b" d="M85.979,171.005a.625.625,0,0,1-.529-.956l6.25-10a.625.625,0,0,1,1.081.627l-.022.034-6.25,10A.625.625,0,0,1,85.979,171.005Z" transform="translate(-85.343 -159.737)"/></g><g transform="translate(16.25 13.131)"><path class="a" d="M363.292,77.126a.625.625,0,0,1-.625-.625V54a.625.625,0,1,1,1.25,0V76.5A.625.625,0,0,1,363.292,77.126Z" transform="translate(-357.667 -53.376)"/><path class="a" d="M290.458,374.626h-12.5a.625.625,0,0,1,0-1.25h12.5a.625.625,0,0,1,0,1.25Z" transform="translate(-277.333 -354.626)"/><path class="a" d="M290.458,310.626h-12.5a.625.625,0,0,1,0-1.25h12.5a.625.625,0,0,1,0,1.25Z" transform="translate(-277.333 -294.376)"/><path class="a" d="M290.458,246.626h-12.5a.625.625,0,0,1,0-1.25h12.5a.625.625,0,0,1,0,1.25Z" transform="translate(-277.333 -234.126)"/><path class="a" d="M290.458,182.626h-12.5a.625.625,0,0,1,0-1.25h12.5a.625.625,0,0,1,0,1.25Z" transform="translate(-277.333 -173.876)"/><path class="a" d="M290.458,118.626h-12.5a.625.625,0,0,1,0-1.25h12.5a.625.625,0,0,1,0,1.25Z" transform="translate(-277.333 -113.626)"/></g></g></svg>