<svg xmlns="http://www.w3.org/2000/svg" width="20.12" height="19.267" viewBox="0 0 20.12 19.267"><defs><style>.a{fill:#222;}</style></defs><g transform="translate(-2260.849 -1335.854)"><g transform="translate(2260.849 1335.854)"><path class="a" d="M2276.276,1355.121a1.368,1.368,0,0,1-.736-.219l-4.63-2.956-4.63,2.956a1.368,1.368,0,0,1-.736.219,1.394,1.394,0,0,1-1.089-.536,1.356,1.356,0,0,1-.243-1.171l1.342-5.358-4.2-3.461a1.371,1.371,0,0,1,.77-2.426l5.478-.41,2.039-5.047a1.371,1.371,0,0,1,2.542,0l2.039,5.047,5.478.41a1.371,1.371,0,0,1,.77,2.426l-4.2,3.461,1.342,5.358a1.356,1.356,0,0,1-.243,1.171A1.393,1.393,0,0,1,2276.276,1355.121Zm-5.366-3.922a.34.34,0,0,1,.184.054l4.814,3.073a.676.676,0,0,0,.368.111.7.7,0,0,0,.55-.273.668.668,0,0,0,.119-.584l-1.395-5.568a.342.342,0,0,1,.114-.347l4.368-3.6a.687.687,0,0,0-.386-1.216l-5.69-.426a.342.342,0,0,1-.291-.213l-2.118-5.244a.688.688,0,0,0-1.275,0l-2.118,5.244a.342.342,0,0,1-.292.213l-5.69.426a.687.687,0,0,0-.386,1.216l4.368,3.6a.341.341,0,0,1,.114.347l-1.395,5.568a.667.667,0,0,0,.119.585.7.7,0,0,0,.55.273.676.676,0,0,0,.368-.111l4.814-3.073A.341.341,0,0,1,2270.909,1351.2Z" transform="translate(-2260.849 -1335.854)"/></g></g></svg>