<svg xmlns="http://www.w3.org/2000/svg" width="14.734" height="10.359" viewBox="0 0 14.734 10.359"><defs><style>.a{fill:#5f6368;}</style></defs><g transform="translate(0 0)"><path class="a" d="M804.612,846.19,800,841.576a.066.066,0,0,0-.047-.021.075.075,0,0,0-.029.006.066.066,0,0,0-.043.066l.045,2.316a.526.526,0,0,1-.566.535,8.255,8.255,0,0,0-5.138,1.3,8.378,8.378,0,0,0-3.406,4.925h0a.065.065,0,0,0,.032.078.063.063,0,0,0,.082-.009,10.3,10.3,0,0,1,1.862-1.394,10,10,0,0,1,2.173-.945,10.162,10.162,0,0,1,4.389-.309.529.529,0,0,1,.448.52v2.287a.065.065,0,0,0,.035.061.069.069,0,0,0,.071,0,.06.06,0,0,0,.013-.01l4.693-4.693a.07.07,0,0,0,0-.1Zm-4.37,5.114a.541.541,0,0,1-.091.073.521.521,0,0,1-.28.081.534.534,0,0,1-.255-.065.519.519,0,0,1-.272-.461v-2.287a.069.069,0,0,0-.059-.069,9.7,9.7,0,0,0-4.19.295,9.543,9.543,0,0,0-2.074.9,9.848,9.848,0,0,0-1.779,1.332.526.526,0,0,1-.87-.514h0a9.412,9.412,0,0,1,1.046-2.518,8.283,8.283,0,0,1,2.551-2.675,8.716,8.716,0,0,1,5.424-1.373.068.068,0,0,0,.053-.019.069.069,0,0,0,.022-.052l-.045-2.317a.526.526,0,0,1,.9-.382l4.613,4.613a.526.526,0,0,1,0,.745l-4.692,4.693Z" transform="translate(-790.355 -841.099)"/></g></svg>