<svg width="25" height="24" viewBox="0 0 25 24" fill="none" xmlns="http://www.w3.org/2000/svg">
<path d="M12.6831 18C9.3694 18 6.68311 15.3137 6.68311 12C6.68311 8.68629 9.3694 6 12.6831 6C15.9968 6 18.6831 8.68629 18.6831 12C18.6831 12.7215 18.5557 13.4133 18.3223 14.054C18.2382 14.285 18.0906 14.4861 17.9099 14.6527L17.8294 14.727C17.2741 15.2392 16.4404 15.3049 15.8119 14.8858C15.3566 14.5823 15.0831 14.0713 15.0831 13.5241V12M15.0831 12C15.0831 13.3255 14.0086 14.4 12.6831 14.4C11.3576 14.4 10.2831 13.3255 10.2831 12C10.2831 10.6745 11.3576 9.6 12.6831 9.6C14.0086 9.6 15.0831 10.6745 15.0831 12Z" stroke="#777777" stroke-width="1.5" stroke-linecap="round"/>
<path d="M2.68311 12C2.68311 7.28595 2.68311 4.92893 4.14758 3.46447C5.61204 2 7.96906 2 12.6831 2C17.3971 2 19.7542 2 21.2186 3.46447C22.6831 4.92893 22.6831 7.28595 22.6831 12C22.6831 16.714 22.6831 19.0711 21.2186 20.5355C19.7542 22 17.3971 22 12.6831 22C7.96906 22 5.61204 22 4.14758 20.5355C2.68311 19.0711 2.68311 16.714 2.68311 12Z" stroke="#777777" stroke-width="1.5"/>
</svg>
