<svg id="Messages_Star_Icon_Favorite" xmlns="http://www.w3.org/2000/svg" width="18.308" height="17" viewBox="0 0 18.308 17">
  <path id="Icon_ionic-ios-star-outline" data-name="Icon ionic-ios-star-outline" d="M19.863,9.26H13.852L12.025,3.808a.662.662,0,0,0-1.242,0L8.956,9.26H2.9a.656.656,0,0,0-.654.654.481.481,0,0,0,.012.11.628.628,0,0,0,.274.462l4.941,3.482-1.9,5.513a.656.656,0,0,0,.225.736.632.632,0,0,0,.368.159.8.8,0,0,0,.409-.147L11.4,16.791l4.822,3.437a.766.766,0,0,0,.409.147A.587.587,0,0,0,17,20.216a.648.648,0,0,0,.225-.736l-1.9-5.513,4.9-3.514.119-.1a.686.686,0,0,0,.212-.437A.692.692,0,0,0,19.863,9.26Zm-5.2,3.78a1.148,1.148,0,0,0-.417,1.3l1.23,3.584a.164.164,0,0,1-.249.188l-3.163-2.256a1.142,1.142,0,0,0-.666-.213,1.121,1.121,0,0,0-.662.213L7.575,18.107a.163.163,0,0,1-.249-.188l1.23-3.584a1.152,1.152,0,0,0-.421-1.308l-3.31-2.333a.164.164,0,0,1,.094-.3H8.952a1.143,1.143,0,0,0,1.083-.781l1.21-3.6a.164.164,0,0,1,.311,0l1.21,3.6a1.143,1.143,0,0,0,1.083.781h3.976a.162.162,0,0,1,.094.294Z" transform="translate(-2.25 -3.375)" fill="#595959"/>
</svg>
