<svg xmlns="http://www.w3.org/2000/svg" width="30" height="28.755" viewBox="0 0 30 28.755"><defs><style>.a{fill:#ff5722;}.b{fill:#fafafa;}</style></defs><g transform="translate(0 -10.626)"><g transform="translate(0 10.626)"><path class="a" d="M363.292,117.377a.625.625,0,0,0-.625.625v3.75a.625.625,0,0,0,.625.625h3.75a.625.625,0,0,0,.625-.625A4.375,4.375,0,0,0,363.292,117.377Z" transform="translate(-341.417 -111.122)"/><path class="a" d="M282.946,144.735a1.875,1.875,0,0,1-1.875-1.875V139.8a4.365,4.365,0,1,0,4.936,4.936Z" transform="translate(-261.071 -132.23)"/><path class="a" d="M17.265,10.766a.625.625,0,0,0-.53-.125L.485,14.391A.625.625,0,0,0,0,15.006v21.25a.625.625,0,0,0,.53.618l16.25,2.5a.625.625,0,0,0,.72-.617v-27.5A.625.625,0,0,0,17.265,10.766Z" transform="translate(0 -10.626)"/><path class="a" d="M290.458,77.127h-12.5a.625.625,0,0,1,0-1.25h11.875V54.627H277.958a.625.625,0,1,1,0-1.25h12.5a.625.625,0,0,1,.625.625V76.5A.625.625,0,0,1,290.458,77.127Z" transform="translate(-261.083 -50.872)"/><path class="a" d="M286.708,374.626h-8.75a.625.625,0,0,1,0-1.25h8.75a.625.625,0,0,1,0,1.25Z" transform="translate(-261.083 -352.121)"/><path class="a" d="M286.708,310.626h-8.75a.625.625,0,0,1,0-1.25h8.75a.625.625,0,0,1,0,1.25Z" transform="translate(-261.083 -291.871)"/></g><path class="b" d="M85.958,171.293a.625.625,0,0,1-.625-.625v-10a.625.625,0,0,1,.625-.625h2.5a3.125,3.125,0,0,1,3.125,3.125v1.25a3.125,3.125,0,0,1-3.125,3.125H86.583v3.125A.625.625,0,0,1,85.958,171.293Zm.625-5h1.875a1.875,1.875,0,0,0,1.875-1.875v-1.25a1.875,1.875,0,0,0-1.875-1.875H86.583Z" transform="translate(-80.333 -140.662)"/></g></svg>