<svg xmlns="http://www.w3.org/2000/svg" width="30.236" height="28.981" viewBox="0 0 30.236 28.981"><defs><style>.a{fill:#1565c0;}.b{fill:#fafafa;}</style></defs><g transform="translate(0 -10.626)"><g transform="translate(0 10.626)"><path class="a" d="M17.4,10.767a.63.63,0,0,0-.534-.126L.488,14.42A.63.63,0,0,0,0,15.04V36.458a.63.63,0,0,0,.534.622L16.912,39.6a.63.63,0,0,0,.726-.622V11.261A.63.63,0,0,0,17.4,10.767Z" transform="translate(0 -10.626)"/><path class="a" d="M290.561,77.314h-12.6a.63.63,0,0,1,0-1.26h11.969V54.637H277.963a.63.63,0,0,1,0-1.26h12.6a.63.63,0,0,1,.63.63V76.684A.63.63,0,0,1,290.561,77.314Z" transform="translate(-260.955 -50.852)"/></g><path class="b" d="M50.762,191.181a.63.63,0,0,1-.6-.456l-1.915-6.7-1.915,6.7a.655.655,0,0,1-1.211,0l-2.52-8.819a.63.63,0,0,1,1.2-.382q.006.018.01.035l1.915,6.7,1.915-6.7a.655.655,0,0,1,1.211,0l1.914,6.7,1.915-6.7a.622.622,0,0,1,.764-.436l.014,0a.63.63,0,0,1,.432.779l-2.52,8.819A.63.63,0,0,1,50.762,191.181Z" transform="translate(-40.054 -160.393)"/><g transform="translate(16.377 16.93)"><path class="a" d="M288.042,118.636H277.963a.63.63,0,0,1,0-1.26h10.079a.63.63,0,1,1,0,1.26Z" transform="translate(-277.333 -117.376)"/><path class="a" d="M288.042,182.636H277.963a.63.63,0,0,1,0-1.26h10.079a.63.63,0,1,1,0,1.26Z" transform="translate(-277.333 -177.596)"/><path class="a" d="M288.042,246.636H277.963a.63.63,0,0,1,0-1.26h10.079a.63.63,0,1,1,0,1.26Z" transform="translate(-277.333 -237.817)"/><path class="a" d="M288.042,310.636H277.963a.63.63,0,0,1,0-1.26h10.079a.63.63,0,1,1,0,1.26Z" transform="translate(-277.333 -298.037)"/><path class="a" d="M288.042,374.636H277.963a.63.63,0,0,1,0-1.26h10.079a.63.63,0,1,1,0,1.26Z" transform="translate(-277.333 -358.258)"/></g></g></svg>