<svg xmlns="http://www.w3.org/2000/svg" width="19.563" height="19.565" viewBox="0 0 19.563 19.565">
  <g id="Mob_InsidePage_Messaging_Header_Edit_Btn" transform="translate(1 2)">
    <path id="Path_134" data-name="Path 134" d="M11.283,6H4.841A1.841,1.841,0,0,0,3,7.841V20.724a1.841,1.841,0,0,0,1.841,1.841H17.724a1.841,1.841,0,0,0,1.841-1.841V14.283" transform="translate(-3 -6)" fill="none" stroke="#fff" stroke-linecap="round" stroke-linejoin="round" stroke-width="2"/>
    <g id="Path_135" data-name="Path 135" transform="translate(-4.524 -2.818)" fill="none" stroke-linecap="round" stroke-linejoin="round">
      <path d="M18.759,3.218A1.365,1.365,0,0,1,20.69,5.149l-6.115,6.115L12,11.908l.644-2.575Z" stroke="none"/>
      <path d="M 19.72404861450195 2.818016052246094 C 19.37460517883301 2.818016052246094 19.02515983581543 2.951326370239258 18.758544921875 3.21794605255127 L 12.64367485046387 9.332816123962402 L 11.9999942779541 11.90749645233154 L 14.57468414306641 11.26382637023926 L 20.68955612182617 5.148956298828125 C 21.22278594970703 4.615726470947266 21.22278594970703 3.751175880432129 20.68955612182617 3.21794605255127 C 20.42293930053711 2.951326370239258 20.07349395751953 2.818016052246094 19.72404861450195 2.818016052246094 M 19.72404479980469 0.8180160522460938 C 20.62298583984375 0.8180160522460938 21.46811485290527 1.168086051940918 22.10376358032227 1.803736686706543 C 23.41594505310059 3.11591625213623 23.41594505310059 5.250986099243164 22.10376358032227 6.563166618347168 L 15.98889541625977 12.6780366897583 C 15.73258399963379 12.93435668945312 15.41142463684082 13.11619663238525 15.05975532531738 13.20411682128906 L 12.48506546020508 13.84778594970703 C 11.80351448059082 14.01816654205322 11.08253479003906 13.81846618652344 10.58577537536621 13.32170677185059 C 10.08901405334473 12.82494640350342 9.889324188232422 12.10396575927734 10.05971527099609 11.42241668701172 L 10.70339393615723 8.847736358642578 C 10.79130554199219 8.496076583862305 10.97314453125 8.17491626739502 11.22946548461914 7.918606281280518 L 17.34433364868164 1.803736686706543 C 17.97994613647461 1.168096542358398 18.8250846862793 0.8180160522460938 19.72404479980469 0.8180160522460938 Z" stroke="none" fill="#fff"/>
    </g>
  </g>
</svg>
