<svg xmlns="http://www.w3.org/2000/svg" width="16.003" height="15.267" viewBox="0 0 16.003 15.267"><defs><style>.a{fill:#16212d;}</style></defs><g transform="translate(-580.703 -600)"><path class="a" d="M596.652,607.617l-2.257-3.43v-1.269a.328.328,0,0,0-.328-.328h-.824v-.967a.328.328,0,0,0-.328-.328H592.1v-.966a.328.328,0,0,0-.328-.328h-6.127a.328.328,0,0,0-.328.328v.966h-.818a.328.328,0,0,0-.328.328v.967h-.824a.328.328,0,0,0-.328.328v1.269l-2.257,3.43a.327.327,0,0,0-.054.18v7.141a.328.328,0,0,0,.328.328h15.347a.328.328,0,0,0,.328-.328V607.8A.327.327,0,0,0,596.652,607.617Zm-2.257-2.235,1.374,2.088H594.4Zm-8.426-4.725h5.471v.638h-5.471Zm-1.146,1.295h7.764v.639h-7.764Zm8.916,1.3v4.223h-1.6a.327.327,0,0,0-.223.088l-1.438,1.333h-3.55l-1.437-1.333a.328.328,0,0,0-.223-.088h-1.6v-4.223Zm-10.725,4.223H581.64l1.374-2.088Zm-1.654,7.141v-6.485h3.781l1.438,1.333a.328.328,0,0,0,.223.087h3.807a.329.329,0,0,0,.223-.087l1.437-1.333h3.781v6.485Z"/><path class="a" d="M591.292,610.443h5.8a.328.328,0,1,0,0-.656h-5.8a.328.328,0,0,0,0,.656Z" transform="translate(-5.487 -5.234)"/><path class="a" d="M591.292,614.111h5.8a.328.328,0,1,0,0-.656h-5.8a.328.328,0,0,0,0,.656Z" transform="translate(-5.487 -7.195)"/><path class="a" d="M596.987,624.449h-7.195a.328.328,0,0,0,0,.656h7.195a.328.328,0,1,0,0-.656Z" transform="translate(-4.685 -13.074)"/></g></svg>