<svg xmlns="http://www.w3.org/2000/svg" width="20.292" height="14.267" viewBox="0 0 20.292 14.267"><defs><style>.a{fill:#26383f;}</style></defs><g transform="translate(-790.355 -841.099)"><path class="a" d="M791.012,848.11l6.354-6.354a.09.09,0,0,1,.065-.029.1.1,0,0,1,.04.009.091.091,0,0,1,.059.091l-.061,3.19a.724.724,0,0,0,.78.737,11.368,11.368,0,0,1,7.076,1.789,11.538,11.538,0,0,1,4.69,6.783h0a.09.09,0,0,1-.044.107.087.087,0,0,1-.114-.012,14.176,14.176,0,0,0-2.564-1.919,13.775,13.775,0,0,0-2.993-1.3,13.993,13.993,0,0,0-6.044-.425.728.728,0,0,0-.616.716v3.15a.089.089,0,0,1-.049.084.1.1,0,0,1-.1,0,.086.086,0,0,1-.018-.015l-6.463-6.463a.1.1,0,0,1,0-.136Zm6.018,7.043a.744.744,0,0,0,.125.1.717.717,0,0,0,.385.112.737.737,0,0,0,.352-.09.715.715,0,0,0,.375-.635v-3.15a.1.1,0,0,1,.081-.095,13.362,13.362,0,0,1,5.771.406,13.145,13.145,0,0,1,2.856,1.242,13.563,13.563,0,0,1,2.449,1.834.725.725,0,0,0,1.2-.708h0a12.964,12.964,0,0,0-1.44-3.467,11.408,11.408,0,0,0-3.513-3.685,12,12,0,0,0-7.47-1.891.1.1,0,0,1-.1-.1l.061-3.191a.725.725,0,0,0-1.238-.526l-6.353,6.353a.725.725,0,0,0,0,1.026l6.462,6.462Z"/></g></svg>