<svg width="25" height="24" viewBox="0 0 25 24" fill="none" xmlns="http://www.w3.org/2000/svg">
<path fill-rule="evenodd" clip-rule="evenodd" d="M11.5403 6.28516C9.64672 6.28516 8.11169 7.82018 8.11169 9.71373V15.428C8.11169 17.3216 9.64672 18.8566 11.5403 18.8566L14.3608 18.8554L16.3212 21.6324C16.5086 21.8976 16.7985 22.0688 17.1167 22.1074L17.2546 22.1158C17.8406 22.1158 18.3237 21.6746 18.3897 21.1062L18.3974 20.9729L18.3986 18.8554L19.5403 18.8566C21.4338 18.8566 22.9688 17.3216 22.9688 15.428V9.71373C22.9688 7.82018 21.4338 6.28516 19.5403 6.28516H11.5403Z" stroke="#777777" stroke-width="1.5" stroke-linecap="round" stroke-linejoin="round"/>
<path d="M8.1117 15.4282L5.82599 17.7139V13.1424H4.79027C3.53834 13.1424 2.51936 12.1353 2.50471 10.8835L2.42448 4.02632C2.40971 2.76405 3.42101 1.72879 4.68329 1.71402C4.69221 1.71392 4.70112 1.71387 4.71003 1.71387H14.9688C16.2312 1.71387 17.2546 2.73722 17.2546 3.99958V6.2853" stroke="#777777" stroke-width="1.5" stroke-linecap="round" stroke-linejoin="round"/>
</svg>
