<svg width="21" height="20" viewBox="0 0 21 20" fill="none" xmlns="http://www.w3.org/2000/svg">
<g clip-path="url(#clip0_377_1176)">
<path d="M20.9897 10.0003C20.9897 4.47698 16.5125 0.000137329 10.9899 0.000137329C5.46695 0.000137329 0.989746 4.47694 0.989746 10.0003C0.989746 15.5228 5.46695 19.9999 10.9899 19.9999C16.5125 19.9999 20.9897 15.5228 20.9897 10.0003Z" fill="#32BEA6"/>
<path d="M16.496 6.64984C16.2606 6.04281 15.7809 6.13863 15.2611 6.24162C14.9507 6.30632 13.57 6.71046 11.3854 9.014C10.4789 9.97003 9.88084 10.7322 9.48709 11.3135C9.24657 11.0182 8.97101 10.7022 8.68162 10.4127C7.79167 9.52299 6.7992 8.91198 6.75748 8.8863C6.341 8.6317 5.7973 8.76271 5.54198 9.17887C5.28698 9.59503 5.41758 10.1396 5.83342 10.3952C5.84192 10.4005 6.69419 10.9275 7.43045 11.6639C8.1813 12.4149 8.86161 13.4304 8.8683 13.4402C9.03393 13.6892 9.31203 13.8346 9.6046 13.8346C9.65482 13.8346 9.70553 13.8303 9.756 13.8216C10.1013 13.7616 10.3787 13.5034 10.4632 13.1632C10.4654 13.1551 10.8162 12.1855 12.6694 10.2316C14.162 8.65742 15.1574 8.1571 15.5023 8.01831C15.5056 8.01775 15.508 8.0175 15.5125 8.01658C15.5108 8.01698 15.5236 8.01106 15.5444 8.0017C15.6037 7.97949 15.6354 7.97099 15.6372 7.97054C15.6202 7.97478 15.6114 7.97583 15.6114 7.97583L15.6108 7.97276C15.7704 7.90315 16.0692 7.7746 16.0757 7.77186C16.5255 7.58704 16.6718 7.10316 16.496 6.64984Z" fill="white"/>
</g>
<defs>
<clipPath id="clip0_377_1176">
<rect width="20" height="20" fill="white" transform="translate(0.989746 1.52588e-05)"/>
</clipPath>
</defs>
</svg>
