<svg width="15" height="14" viewBox="0 0 15 14" fill="none" xmlns="http://www.w3.org/2000/svg">
<g clip-path="url(#clip0_197_5851)">
<path d="M8.87423 7.01147L14.7149 1.55998C15.095 1.20538 15.095 0.632049 14.7149 0.277453C14.335 -0.077144 13.7207 -0.077144 13.3408 0.277453L7.49992 5.72894L1.65921 0.277453C1.27911 -0.077144 0.665002 -0.077144 0.285077 0.277453C-0.0950257 0.632049 -0.0950257 1.20538 0.285077 1.55998L6.12578 7.01147L0.285077 12.463C-0.0950257 12.8176 -0.0950257 13.3909 0.285077 13.7455C0.474417 13.9224 0.72337 14.0112 0.972145 14.0112C1.22092 14.0112 1.4697 13.9224 1.65921 13.7455L7.49992 8.29399L13.3408 13.7455C13.5303 13.9224 13.7791 14.0112 14.0279 14.0112C14.2766 14.0112 14.5254 13.9224 14.7149 13.7455C15.095 13.3909 15.095 12.8176 14.7149 12.463L8.87423 7.01147Z" fill="white"/>
</g>
<defs>
<clipPath id="clip0_197_5851">
<rect width="15" height="14" fill="white"/>
</clipPath>
</defs>
</svg>
