<svg id="Icon_awesome-shopping-cart" data-name="Icon awesome-shopping-cart" xmlns="http://www.w3.org/2000/svg" width="37.143" height="38.75" viewBox="0 0 37.143 38.75">
  <path id="Icon_awesome-shopping-cart-2" data-name="Icon awesome-shopping-cart" d="M34.055,22.8,37.1,7.063a1.765,1.765,0,0,0-1.509-2.219H10.266L9.675,1.452A1.632,1.632,0,0,0,8.159,0H1.548A1.7,1.7,0,0,0,0,1.816V3.027A1.7,1.7,0,0,0,1.548,4.844H6.054l4.53,25.992A4.409,4.409,0,0,0,8.77,34.512c0,2.341,1.617,4.238,3.611,4.238s3.611-1.9,3.611-4.238a4.612,4.612,0,0,0-1.085-3.027H28.426a4.612,4.612,0,0,0-1.085,3.027c0,2.341,1.617,4.238,3.611,4.238s3.611-1.9,3.611-4.238A4.351,4.351,0,0,0,32.527,30.7l.356-1.837a1.765,1.765,0,0,0-1.509-2.219H14.065l-.422-2.422h18.9A1.624,1.624,0,0,0,34.055,22.8Z" fill="#fff"/>
</svg>
