<svg width="16" height="15" viewBox="0 0 16 15" fill="none" xmlns="http://www.w3.org/2000/svg">
<g clip-path="url(#clip0_197_5847)">
<path d="M14.6621 6.71548C14.2007 6.71548 13.8254 7.06738 13.8254 7.49988V12.9622H2.1727V2.03779H7.99914C8.46051 2.03779 8.83587 1.68589 8.83587 1.25339C8.83588 0.820655 8.46051 0.46875 7.99914 0.46875H1.33597C0.874388 0.46875 0.499023 0.820655 0.499023 1.25339V13.7466C0.499023 14.1793 0.874388 14.5313 1.33597 14.5313H14.6621C15.1237 14.5313 15.499 14.1793 15.499 13.7466V7.49989C15.499 7.06739 15.1237 6.71548 14.6621 6.71548Z" fill="white"/>
<path d="M14.0707 0.698919L8.83578 5.60646V3.93048C8.83578 3.49797 8.46042 3.14607 7.99905 3.14607C7.53747 3.14607 7.16211 3.49797 7.16211 3.93048V7.49997C7.16211 7.93271 7.53747 8.28461 7.99905 8.28461H11.8065C12.2679 8.28461 12.6432 7.93271 12.6432 7.49997C12.6432 7.06747 12.2679 6.71557 11.8065 6.71557H10.0188L15.2528 1.80845C15.4122 1.66143 15.5001 1.46444 15.5001 1.25324C15.5001 1.04227 15.4122 0.84529 15.2535 0.698919C14.9269 0.392736 14.3964 0.39319 14.0707 0.698919Z" fill="white"/>
</g>
<defs>
<clipPath id="clip0_197_5847">
<rect width="16" height="15" fill="white"/>
</clipPath>
</defs>
</svg>
