<svg width="15" height="15" viewBox="0 0 15 15" fill="none" xmlns="http://www.w3.org/2000/svg">
<g clip-path="url(#clip0_197_5807)">
<path d="M13.8964 2.49996C13.8964 3.62183 12.9871 4.53129 11.8652 4.53129C10.7433 4.53129 9.83398 3.62183 9.83398 2.49996C9.83398 1.37821 10.7433 0.46875 11.8652 0.46875C12.9871 0.46875 13.8964 1.37821 13.8964 2.49996Z" fill="#4A0D4A"/>
<path d="M11.8652 5.00004C10.4864 5.00004 9.36523 3.87875 9.36523 2.49996C9.36523 1.12129 10.4864 0 11.8652 0C13.244 0 14.3652 1.12129 14.3652 2.49996C14.3652 3.87875 13.244 5.00004 11.8652 5.00004ZM11.8652 0.9375C11.0033 0.9375 10.3027 1.63879 10.3027 2.49996C10.3027 3.36124 11.0033 4.06254 11.8652 4.06254C12.7271 4.06254 13.4277 3.36124 13.4277 2.49996C13.4277 1.63879 12.7271 0.9375 11.8652 0.9375Z" fill="#4A0D4A"/>
<path d="M13.8964 12.5C13.8964 13.6218 12.9871 14.5313 11.8652 14.5313C10.7433 14.5313 9.83398 13.6218 9.83398 12.5C9.83398 11.3782 10.7433 10.4687 11.8652 10.4687C12.9871 10.4687 13.8964 11.3782 13.8964 12.5Z" fill="#4A0D4A"/>
<path d="M11.8652 15C10.4864 15 9.36523 13.8787 9.36523 12.5C9.36523 11.1213 10.4864 9.99997 11.8652 9.99997C13.244 9.99997 14.3652 11.1213 14.3652 12.5C14.3652 13.8787 13.244 15 11.8652 15ZM11.8652 10.9375C11.0033 10.9375 10.3027 11.6388 10.3027 12.5C10.3027 13.3612 11.0033 14.0625 11.8652 14.0625C12.7271 14.0625 13.4277 13.3612 13.4277 12.5C13.4277 11.6388 12.7271 10.9375 11.8652 10.9375Z" fill="#4A0D4A"/>
<path d="M5.14652 7.49999C5.14652 8.62186 4.23706 9.5312 3.1152 9.5312C1.99345 9.5312 1.08398 8.62186 1.08398 7.49999C1.08398 6.37813 1.99345 5.46878 3.1152 5.46878C4.23706 5.46878 5.14652 6.37813 5.14652 7.49999Z" fill="#4A0D4A"/>
<path d="M3.1152 9.99995C1.73653 9.99995 0.615234 8.87878 0.615234 7.49999C0.615234 6.12121 1.73653 5.00003 3.1152 5.00003C4.49398 5.00003 5.61527 6.12121 5.61527 7.49999C5.61527 8.87878 4.49398 9.99995 3.1152 9.99995ZM3.1152 5.93753C2.25334 5.93753 1.55273 6.63871 1.55273 7.49999C1.55273 8.36127 2.25334 9.06245 3.1152 9.06245C3.97717 9.06245 4.67777 8.36127 4.67777 7.49999C4.67777 6.63871 3.97717 5.93753 3.1152 5.93753Z" fill="#4A0D4A"/>
<path d="M4.59047 7.20005C4.37291 7.20005 4.16166 7.08687 4.04664 6.88442C3.87601 6.58504 3.98107 6.20315 4.28045 6.03184L10.0797 2.72564C10.3791 2.55375 10.761 2.65881 10.9323 2.95933C11.103 3.2587 10.9979 3.64059 10.6985 3.81191L4.89911 7.11811C4.80161 7.17373 4.69541 7.20005 4.59047 7.20005Z" fill="#4A0D4A"/>
<path d="M10.3895 12.3563C10.2845 12.3563 10.1782 12.33 10.0807 12.2744L4.28134 8.96816C3.98196 8.79753 3.87702 8.41564 4.04765 8.11558C4.21759 7.81563 4.60006 7.71 4.90012 7.88189L10.6995 11.1881C10.9989 11.3587 11.1038 11.7406 10.9332 12.0407C10.8176 12.2431 10.6064 12.3563 10.3895 12.3563Z" fill="#4A0D4A"/>
</g>
<defs>
<clipPath id="clip0_197_5807">
<rect width="15" height="15" fill="white"/>
</clipPath>
</defs>
</svg>
