<svg xmlns="http://www.w3.org/2000/svg" width="20.971" height="20.679" viewBox="0 0 20.971 20.679"><defs><style>.a{fill:#fff;}</style></defs><g transform="translate(-862.139 -718.69)"><path class="a" d="M886.8,737.787a2.942,2.942,0,0,0-2.142-2.828V723.329a.8.8,0,0,0-1.6,0h0v11.629a2.938,2.938,0,0,0,0,5.657v1.718a.8.8,0,0,0,1.6,0h0v-1.718A2.941,2.941,0,0,0,886.8,737.787Zm-2.943,1.346a1.34,1.34,0,1,1,1.34-1.34,1.34,1.34,0,0,1-1.34,1.34Z" transform="translate(-3.691 -3.837)"/><path class="a" d="M873.463,727.881a2.942,2.942,0,0,0,2.141,2.828v11.628a.8.8,0,1,0,1.6,0V730.71a2.937,2.937,0,0,0,0-5.657v-1.718a.8.8,0,1,0-1.6,0h0v1.718A2.942,2.942,0,0,0,873.463,727.881Zm2.943-1.346a1.34,1.34,0,1,1-1.34,1.34,1.34,1.34,0,0,1,1.34-1.34Z" transform="translate(-3.734 -3.837)"/><g transform="translate(864.26 718.699)"><path class="a" d="M868.852,733.112a.826.826,0,0,1-.826-.827v-8.924a.826.826,0,0,1,1.653,0v8.924A.827.827,0,0,1,868.852,733.112Z" transform="translate(-868.026 -722.536)"/></g><g transform="translate(864.287 731.906)"><path class="a" d="M868.88,743.129a.827.827,0,0,1-.827-.826v-5.812a.826.826,0,0,1,1.653,0V742.3A.826.826,0,0,1,868.88,743.129Z" transform="translate(-868.053 -735.666)"/></g><g transform="translate(862.139 727.623)"><path class="a" d="M868.892,737.357a2.974,2.974,0,1,1,2.1-.871A2.952,2.952,0,0,1,868.892,737.357Zm0-4.3a1.322,1.322,0,1,0,1.322,1.322A1.323,1.323,0,0,0,868.892,733.06Z" transform="translate(-865.917 -731.408)"/></g></g></svg>