<svg width="13" height="17" viewBox="0 0 13 17" fill="none" xmlns="http://www.w3.org/2000/svg">
<path fill-rule="evenodd" clip-rule="evenodd" d="M2.4375 2.40626C2.4375 1.28442 3.3469 0.375 4.46873 0.375H10.9688C12.0906 0.375 13 1.28442 13 2.40626V15C13 15.8975 12.2725 16.625 11.375 16.625C10.4775 16.625 9.75001 15.8975 9.75001 15V13.7813H10.5625V15C10.5625 15.4488 10.9263 15.8125 11.375 15.8125C11.8237 15.8125 12.1875 15.4488 12.1875 15V2.40626C12.1875 1.73316 11.6418 1.1875 10.9688 1.1875H4.46873C3.79565 1.1875 3.24998 1.73316 3.24998 2.40626V13.7813H2.4375V2.40626Z" fill="#F88011"/>
<path fill-rule="evenodd" clip-rule="evenodd" d="M0 13.7812C0 13.5569 0.181868 13.375 0.40624 13.375H10.1563C10.3806 13.375 10.5625 13.5569 10.5625 13.7812C10.5625 14.0056 10.3806 14.1875 10.1563 14.1875H0.812481V14.5938C0.812481 15.2668 1.35815 15.8125 2.03123 15.8125H11.375V16.625H2.03123C0.909402 16.625 0 15.7156 0 14.5938V13.7812Z" fill="#F88011"/>
<path fill-rule="evenodd" clip-rule="evenodd" d="M5.28125 4.03124C5.28125 3.8069 5.46315 3.625 5.68749 3.625H9.75002C9.97436 3.625 10.1563 3.8069 10.1563 4.03124C10.1563 4.25561 9.97436 4.43751 9.75002 4.43751H5.68749C5.46315 4.43751 5.28125 4.25561 5.28125 4.03124Z" fill="#F88011"/>
<path fill-rule="evenodd" clip-rule="evenodd" d="M5.28125 7.28124C5.28125 7.05687 5.46315 6.875 5.68749 6.875H9.75002C9.97436 6.875 10.1563 7.05687 10.1563 7.28124C10.1563 7.50561 9.97436 7.68751 9.75002 7.68751H5.68749C5.46315 7.68751 5.28125 7.50561 5.28125 7.28124Z" fill="#F88011"/>
<path fill-rule="evenodd" clip-rule="evenodd" d="M5.28125 10.5312C5.28125 10.3069 5.46315 10.125 5.68749 10.125H9.75002C9.97436 10.125 10.1563 10.3069 10.1563 10.5312C10.1563 10.7556 9.97436 10.9375 9.75002 10.9375H5.68749C5.46315 10.9375 5.28125 10.7556 5.28125 10.5312Z" fill="#F88011"/>
</svg>
