<svg id="Form_Input_Btn" data-name="Form_Input Btn" xmlns="http://www.w3.org/2000/svg" width="49" height="50" viewBox="0 0 49 50">
  <path id="Path_192" data-name="Path 192" d="M0,0H49V50H0Z" fill="#700066"/>
  <path id="Icon_awesome-question" data-name="Icon awesome-question" d="M8.561,0a7.425,7.425,0,0,0-6.6,3.488.921.921,0,0,0,.2,1.26L3.817,6a.92.92,0,0,0,1.274-.159c.96-1.2,1.672-1.895,3.171-1.895,1.179,0,2.637.759,2.637,1.9,0,.864-.713,1.308-1.877,1.961-1.357.761-3.154,1.708-3.154,4.078v.375a.92.92,0,0,0,.92.92H9.565a.92.92,0,0,0,.92-.92v-.221c0-1.642,4.8-1.711,4.8-6.155C15.285,2.539,11.813,0,8.561,0ZM8.177,14.311a2.655,2.655,0,1,0,2.655,2.654A2.658,2.658,0,0,0,8.177,14.311Z" transform="translate(16.2 15)" fill="#fff"/>
</svg>
