<svg xmlns="http://www.w3.org/2000/svg" width="22" height="22" viewBox="0 0 22 22"><defs><style>.a{fill:#fff;stroke:#707070;opacity:0;}.b{fill:#b5b5c3;}.c{stroke:none;}.d{fill:none;}</style></defs><g transform="translate(-4 -393)"><g class="a" transform="translate(26 393) rotate(90)"><rect class="c" width="22" height="22"/><rect class="d" x="0.5" y="0.5" width="21" height="21"/></g><g transform="translate(1.916 -0.151)"><g transform="translate(144.571 398.151) rotate(90)"><g transform="translate(0 126.513)"><path class="b" d="M11.676,126.649a.461.461,0,0,0-.652,0L6.231,131.43a.462.462,0,0,1-.653,0L.787,126.648a.461.461,0,0,0-.652.653l4.791,4.781a1.386,1.386,0,0,0,1.957,0l4.791-4.781A.461.461,0,0,0,11.676,126.649Z" transform="translate(0 -126.513)"/></g></g><g transform="translate(141.571 398.151) rotate(90)"><g transform="translate(0 126.513)"><path class="b" d="M11.676,126.649a.461.461,0,0,0-.652,0L6.231,131.43a.462.462,0,0,1-.653,0L.787,126.648a.461.461,0,0,0-.652.653l4.791,4.781a1.386,1.386,0,0,0,1.957,0l4.791-4.781A.461.461,0,0,0,11.676,126.649Z" transform="translate(0 -126.513)"/></g></g></g></g></svg>