<svg xmlns="http://www.w3.org/2000/svg" width="35" height="35" viewBox="0 0 35 35"><defs><style>.a,.b{fill:#fff;}.a{stroke:#707070;opacity:0;}.c{fill:#147591;}.d{stroke:none;}.e{fill:none;}</style></defs><g transform="translate(-530 -318)"><g class="a" transform="translate(530 318)"><rect class="d" width="35" height="35"/><rect class="e" x="0.5" y="0.5" width="34" height="34"/></g><g transform="translate(155.964 -384.795)"><path class="b" d="M383.052,719.646V719.2l-.212.444H381l-.23-.476v.476H377.34l-.406-.96h-.687l-.429.96h-1.781v-2.9l1.306-2.953h2.5l.351.836v-.83h3.056l.672,1.408.657-1.415h9.646a1.639,1.639,0,0,1,.838.228v-.228h2.43v.32a1.977,1.977,0,0,1,1.083-.32h4.288l.377.849v-.849h2.748l.5.849v-.849h2.627v5.856h-2.7l-.634-1.021v1.015h-3.354l-.472-1.046h-.657l-.444,1.046h-2.029a2.632,2.632,0,0,1-1.325-.416v.416h-4.042V718.28c0-.2-.152-.185-.152-.185h-.147v1.551Z" transform="translate(0)"/><path class="b" d="M393.828,733.924h5.311l.766.868.784-.868h4.083a1.878,1.878,0,0,1,.748.2v-.2h3.636a1.859,1.859,0,0,1,.85.231v-.231h4.674v.213a1.583,1.583,0,0,1,.78-.213H418.5v.213a1.863,1.863,0,0,1,.789-.213h2.39v5.518a1.315,1.315,0,0,1-.964.356h-3.152v-.175a1.618,1.618,0,0,1-.757.175h-8.372v-1.426c0-.14-.062-.166-.186-.166h-.115V739.8H405.52v-1.582a1.764,1.764,0,0,1-.775.156H403.8V739.8h-3.225l-.734-.9-.784.9h-5.232Z" transform="translate(-12.792 -13.01)"/><path class="c" d="M441.154,736.414h3.333v.894h-2.312v.779h2.248v.787h-2.248v.82h2.312v.872h-3.333Z" transform="translate(-43.381 -14.619)"/><path class="c" d="M464.774,738.049c1.253.064,1.357.69,1.357,1.357a1.213,1.213,0,0,1-1.307,1.2h-2.141v-.89h1.668c.283,0,.7,0,.7-.4,0-.19-.074-.311-.375-.342-.134-.02-.63-.047-.7-.049-1.132-.03-1.4-.593-1.4-1.278a1.145,1.145,0,0,1,1.215-1.2h2.141v.89H464.37c-.356,0-.741-.042-.741.361,0,.255.19.306.431.329C464.143,738.021,464.7,738.05,464.774,738.049Z" transform="translate(-57.229 -14.637)"/><path class="c" d="M453.924,738.049c1.253.064,1.358.69,1.358,1.357a1.213,1.213,0,0,1-1.307,1.2h-2.141v-.89H453.5c.283,0,.7,0,.7-.4,0-.19-.075-.311-.376-.342-.134-.02-.63-.047-.7-.049-1.132-.03-1.395-.593-1.395-1.278a1.144,1.144,0,0,1,1.214-1.2h2.141v.89h-1.566c-.357,0-.742-.042-.742.361,0,.255.19.306.431.329C453.293,738.021,453.85,738.05,453.924,738.049Z" transform="translate(-50.217 -14.637)"/><path class="c" d="M405.672,736.423h-3.578l-1.168,1.288-1.13-1.3h-4.018v4.152h3.888l1.223-1.372,1.2,1.382h1.956v-1.41h1.371c.529,0,1.492-.018,1.492-1.473A1.15,1.15,0,0,0,405.672,736.423Zm-6.539,3.271h-2.35v-.82h2.248v-.787h-2.248v-.779l2.479.006.992,1.13Zm3.9.482-1.464-1.733,1.464-1.622Zm2.3-1.866h-1.27v-1h1.274a.5.5,0,1,1,0,1Z" transform="translate(-14.053 -14.619)"/><path class="c" d="M431.885,738.7a1.133,1.133,0,0,0,.7-1.149,1.1,1.1,0,0,0-1.224-1.112h-2.65v4.152h1.019v-1.465h1.335c.352,0,.491.352.5.7l.028.761h.992l-.037-.853C432.553,739.072,432.368,738.757,431.885,738.7Zm-.88-.43h-1.269v-.941h1.274a.489.489,0,0,1,.561.477C431.57,738.087,431.422,738.272,431,738.272Z" transform="translate(-35.341 -14.637)"/><rect class="c" width="1.02" height="4.157" transform="translate(393.783 714.627)"/><path class="c" d="M406.274,716.16h3.332v.894h-2.311v.779h2.247v.787h-2.247v.82h2.311v.872h-3.332Z" transform="translate(-20.836 -1.529)"/><path class="c" d="M420.576,718.421a1.133,1.133,0,0,0,.7-1.149,1.1,1.1,0,0,0-1.224-1.112h-2.65v4.152h1.02v-1.464h1.334c.353,0,.492.352.5.7l.028.76h.992l-.037-.853C421.243,718.792,421.058,718.477,420.576,718.421Zm-.88-.43h-1.27v-.941H419.7a.489.489,0,0,1,.561.477C420.26,717.806,420.113,717.991,419.7,717.991Z" transform="translate(-28.031 -1.529)"/><path class="c" d="M383.1,716.16l-1.251,2.785L380.6,716.16h-1.6v4l-1.78-4h-1.349l-1.817,4.152h1.076l.4-.927h2.035l.4.927h2.053V717.23l1.362,3.082h.927l1.395-3.031v3.031h1.02V716.16Zm-7.183,2.329.608-1.451.633,1.451Z" transform="translate(-0.016 -1.529)"/><path class="c" d="M444.212,716.154v2.875l-1.719-2.875h-1.507v3.9l-1.737-3.9H437.9l-1.4,3.216s-.594,0-.653-.014c-.246-.051-.63-.224-.634-.956v-.3c0-.973.529-1.044,1.206-1.044h.63v-.9h-1.331c-.464,0-1.472.354-1.506,2.059-.023,1.149.477,2.1,1.607,2.1h1.344l.4-.927h2.035l.4.927h2.011V717.27l1.835,3.041h1.39v-4.156Zm-6.262,2.334.607-1.452.639,1.452Z" transform="translate(-38.89 -1.525)"/></g></g></svg>