<svg xmlns="http://www.w3.org/2000/svg" width="9.759" height="9.757" viewBox="0 0 9.759 9.757"><defs><style>.a{fill:#e60000;}</style></defs><g transform="translate(-8.436 -92.02)"><g transform="translate(12.117 95.298)"><path class="a" d="M12.012,99.1a.4.4,0,0,1-.4-.4V94.935h-.4a.4.4,0,0,1,0-.8h.8a.4.4,0,0,1,.4.4V98.7A.4.4,0,0,1,12.012,99.1Z" transform="translate(-10.814 -94.138)"/></g><g transform="translate(12.917 93.535)"><path class="a" d="M11.729,94.183a.4.4,0,0,1-.4-.4V93.4a.4.4,0,1,1,.8,0v.387A.4.4,0,0,1,11.729,94.183Z" transform="translate(-11.331 -92.999)"/></g><g transform="translate(8.436 92.02)"><path class="a" d="M13.315,101.777a4.878,4.878,0,0,1-3.448-8.329h0a4.878,4.878,0,1,1,3.448,8.329Zm0-8.96a4.048,4.048,0,0,0-2.885,1.2h0a4.079,4.079,0,0,0,0,5.772,4.177,4.177,0,0,0,5.772,0,4.082,4.082,0,0,0-2.887-6.968Zm-3.167.915h0Z" transform="translate(-8.436 -92.02)"/></g></g></svg>