<svg xmlns="http://www.w3.org/2000/svg" width="35" height="35" viewBox="0 0 35 35"><defs><style>.a,.d{fill:#fff;}.a{stroke:#707070;opacity:0;}.b{fill:#fbb231;}.b,.c,.d{fill-rule:evenodd;}.c{fill:#ec1c2e;}.e,.g{fill:none;}.e{stroke:#fff;stroke-miterlimit:2.613;stroke-width:0.216px;}.f{stroke:none;}</style></defs><g transform="translate(-530 -318)"><g class="a" transform="translate(530 318)"><rect class="f" width="35" height="35"/><rect class="g" x="0.5" y="0.5" width="34" height="34"/></g><g transform="translate(145.269 180.665)"><path class="b" d="M425.767,165.066l.509-.013.5-.037.493-.063.489-.087.476-.11.47-.133.459-.156.45-.176.439-.2.426-.216.413-.24.4-.256.386-.276.372-.293.36-.31.343-.329.329-.343.31-.36.293-.372.276-.386.256-.4.239-.413.216-.426.2-.439.176-.45.156-.459.134-.469.109-.476.086-.489.063-.493.037-.5.013-.509-.013-.506-.037-.5-.063-.492-.086-.483-.109-.475-.134-.466-.156-.459-.176-.446-.2-.436-.216-.426-.239-.409-.256-.4-.276-.386-.293-.369-.31-.359-.329-.343-.343-.326-.36-.309-.372-.293-.386-.276-.4-.256-.413-.236-.426-.216-.439-.2-.45-.176-.459-.156-.47-.133-.476-.11-.489-.086-.493-.063-.5-.037-.509-.013-.507.013-.5.037-.492.063-.486.086-.476.11-.469.133-.456.156-.45.176-.436.2-.422.216-.413.236-.4.256-.386.276-.373.293-.356.309-.343.326-.326.343-.31.359-.293.369-.273.386-.256.4-.237.409-.219.426-.2.436-.177.446-.153.459-.134.466-.11.475-.087.483-.063.492-.037.5-.013.506.013.509.037.5.063.493.087.489.11.476.134.469.153.459.177.45.2.439.219.426.237.413.256.4.273.386.293.372.31.36.326.343.343.329.356.31.373.293.386.276.4.256.413.24.422.216.436.2.45.176.456.156.469.133.476.11.486.087.492.063.5.037.507.013Z" transform="translate(-16.953 0)"/><path class="c" d="M395.615,165.066l.505-.013.5-.037.493-.063.486-.087.476-.11.469-.133.456-.156.449-.176.436-.2.423-.216.413-.24.4-.256.387-.276.373-.293.356-.31.343-.329.326-.343.31-.36.293-.372.273-.386.257-.4.236-.413.219-.426.2-.439.177-.45.153-.459.133-.469.11-.476.086-.489.063-.493.036-.5.014-.509-.014-.506-.036-.5-.063-.492-.086-.483-.11-.475-.133-.466-.153-.459-.177-.446-.2-.436-.219-.426-.236-.409-.257-.4-.273-.386-.293-.369-.31-.359-.326-.343-.343-.326-.356-.309-.373-.293-.387-.276-.4-.256-.413-.236-.423-.216-.436-.2-.449-.176-.456-.156-.469-.133-.476-.11-.486-.086-.493-.063-.5-.037-.505-.013-.51.013-.5.037-.493.063-.49.086-.476.11-.469.133-.459.156-.449.176-.439.2-.426.216-.413.236-.4.256-.386.276-.372.293-.359.309-.342.326-.33.343-.31.359-.293.369-.276.386-.256.4-.24.409-.216.426-.2.436-.176.446-.156.459-.133.466-.11.475-.087.483-.063.492-.037.5-.013.506.013.509.037.5.063.493.087.489.11.476.133.469.156.459.176.45.2.439.216.426.24.413.256.4.276.386.293.372.31.36.33.343.342.329.359.31.372.293.386.276.4.256.413.24.426.216.439.2.449.176.459.156.469.133.476.11.49.087.493.063.5.037.51.013Z" transform="translate(0 0)"/><path class="b" d="M420.695,153.28h5.241v-.536h-4.789l-.453.536Z" transform="translate(-19.635 -4.161)"/><path class="b" d="M418.9,156h6.027v-.536h-5.711L418.9,156Z" transform="translate(-18.629 -5.686)"/><path class="b" d="M417.567,158.707h6.612v-.536H417.8l-.233.536Z" transform="translate(-17.879 -7.209)"/><path class="b" d="M416.648,161.425h7.015v-.536h-6.849l-.166.536Z" transform="translate(-17.363 -8.735)"/><path class="b" d="M416.967,174.557h6.8v-.536H416.8l.167.536Z" transform="translate(-17.448 -16.11)"/><path class="b" d="M418.006,177.275h6.3v-.536h-6.546l.25.536Z" transform="translate(-17.985 -17.636)"/><path class="b" d="M419.5,179.985H425.1v-.536h-5.927l.335.536Z" transform="translate(-18.778 -19.158)"/><path class="b" d="M421.551,182.7h4.619v-.539h-5.088l.469.539Z" transform="translate(-19.853 -20.679)"/><path class="b" d="M416.11,164.135h7.251V163.6h-7.148l-.1.536Z" transform="translate(-17.06 -10.257)"/><path class="b" d="M426.189,171.847h2.766v-.536H426.29l-.1.536Z" transform="translate(-22.721 -14.588)"/><path class="b" d="M426.691,169.133h2.546v-.539h-2.446l-.1.539Z" transform="translate(-23.003 -13.062)"/><path class="b" d="M415.692,168.594h.719v.539h-.686l-.034-.539Z" transform="translate(-16.826 -13.062)"/><path class="d" d="M409.051,166.039l-.046,0-.047-.006-.043-.006-.043-.007-.04-.006-.043-.007-.043-.006-.047-.007-.046-.006-.053,0-.06,0-.063,0h-.07l-.076,0-.087.007-.1.006-.066.01-.063.01-.057.02-.05.02-.047.024-.043.027-.034.034-.03.03-.019.037-.017.037-.007.04v.04l.01.043.014.043.026.043.034.043.066.063.081.05.093.043.1.037.106.034.11.037.11.04.106.043.1.057.093.07.083.084.07.1.053.126.034.15.013.18-.013.21-.023.156-.04.136-.054.127-.066.11-.076.1-.087.083-.093.073-.1.064-.107.05-.11.043-.113.033-.116.027-.113.021-.109.01-.11.007-.1,0h-.144l-.133,0h-.116l-.11,0-.1,0-.09-.007-.08-.007-.077-.01-.07-.007-.063-.013-.063-.01-.057-.016-.057-.013-.053-.02-.054-.019-.057-.02.15-.735.03.007.036.01.047.013.057.014.06.013.067.013.073.016.079.014.083.013.087.014.09.01.093.01.1,0,.1,0h.1l.1,0,.1-.02.077-.027.06-.036.047-.047.033-.047.027-.054.017-.053.013-.05.007-.1-.03-.083-.057-.067-.083-.056-.1-.05-.116-.05-.13-.047-.13-.053-.133-.06-.126-.07-.117-.086-.107-.1-.083-.127-.06-.15-.03-.179,0-.213.017-.13.024-.124.033-.113.039-.106.053-.1.06-.087.07-.084.083-.073.1-.063.106-.054.119-.05.133-.037.15-.03.163-.023L408,165.2l.2,0h.122l.113,0,.1,0,.093,0,.083.006.076.007.066.007.06.007.057.006.047.01.043.007.04.006.033.006.03,0,.03.007.027,0-.17.751Z" transform="translate(-11.527 -11.156)"/><path class="e" d="M409.051,166.039h0l-.046,0-.047-.006-.043-.006-.043-.007-.04-.006-.043-.007-.043-.006-.047-.007-.046-.006-.053,0-.06,0-.063,0h-.07l-.076,0-.087.007-.1.006h0l-.066.01-.063.01-.057.02-.05.02-.047.024-.043.027-.034.034-.03.03-.019.037-.017.037-.007.04v.04l.01.043.014.043.026.043.034.043h0l.066.063.081.05.093.043.1.037.106.034.11.037.11.04.106.043.1.057.093.07.083.084.07.1.053.126.034.15.013.18-.013.21h0l-.023.156-.04.136-.054.127-.066.11-.076.1-.087.083-.093.073-.1.064-.107.05-.11.043-.113.033-.116.027-.113.021-.109.01-.11.007-.1,0h-.144l-.133,0h-.116l-.11,0-.1,0-.09-.007-.08-.007-.077-.01-.07-.007-.063-.013-.063-.01-.057-.016-.057-.013-.053-.02-.054-.019-.057-.02.15-.735h0l.03.007.036.01.047.013.057.014.06.013.067.013.073.016.079.014.083.013.087.014.09.01.093.01.1,0,.1,0h.1l.1,0h0l.1-.02.077-.027.06-.036.047-.047.033-.047.027-.054.017-.053.013-.05h0l.007-.1-.03-.083-.057-.067-.083-.056-.1-.05-.116-.05-.13-.047-.13-.053-.133-.06-.126-.07-.117-.086-.107-.1-.083-.127-.06-.15-.03-.179,0-.213h0l.017-.13.024-.124.033-.113.039-.106.053-.1.06-.087.07-.084.083-.073.1-.063.106-.054.119-.05.133-.037.15-.03.163-.023L408,165.2l.2,0h.122l.113,0,.1,0,.093,0,.083.006.076.007.066.007.06.007.057.006.047.01.043.007.04.006.033.006.03,0,.03.007.027,0-.17.751" transform="translate(-11.527 -11.156)"/><path class="d" d="M413.592,163.524h.922l-.137.805h.556l-.12.752-.586-.017-.319,1.857,0,.067.016.057.034.043.043.036.06.024.066.02.073.013.08.007.073,0,.066-.007.06-.01.053-.013.043-.013.03-.01.02-.007.006,0-.116.619-.024.016-.023.013-.023.013-.023.013-.023.01-.027.01-.03.01-.03.01-.033.01-.034.007-.04.007-.04.007-.043.007-.05.006-.053.006-.057.007h-.253l-.133-.01-.116-.013-.106-.02-.09-.024-.077-.03-.063-.033-.057-.04-.043-.043-.033-.046-.024-.057-.016-.057-.01-.063,0-.07v-.073l.01-.076.01-.083.635-3.63Z" transform="translate(-15.278 -10.214)"/><path class="e" d="M413.592,163.524h.922l-.137.805h.556l-.12.752-.586-.017-.319,1.857h0l0,.067.016.057.034.043.043.036.06.024.066.02.073.013.08.007h0l.073,0,.066-.007.06-.01.053-.013.043-.013.03-.01.02-.007.006,0-.116.619h0l-.024.016-.023.013-.023.013-.023.013-.023.01-.027.01-.03.01-.03.01-.033.01-.034.007-.04.007-.04.007-.043.007-.05.006-.053.006-.057.007h-.253l-.133-.01-.116-.013-.106-.02-.09-.024-.077-.03-.063-.033-.057-.04-.043-.043-.033-.046-.024-.057-.016-.057-.01-.063,0-.07v-.073l.01-.076.01-.083.635-3.63" transform="translate(-15.278 -10.214)"/><path class="e" d="M417.924,167.277h0l-.01.056,0,.06.006.063.013.063.023.063.027.061.036.063.04.056.047.057.05.05.054.049.06.04.06.037.066.03.066.023.067.014h0l.086.013.083.01.087.01.086.007.086,0h.09l.086,0,.09-.007.09-.013.09-.017.093-.02.09-.03.094-.036.1-.04.093-.053.1-.057-.133.819h0l-.054.026-.053.027-.054.019-.049.021-.05.016-.054.017-.053.013-.057.01-.06.01-.066.007-.07.006-.077.006-.087,0h-.089l-.1,0h-.11l-.163,0-.166-.017-.167-.024-.166-.04-.163-.049-.156-.064-.15-.083-.14-.1-.13-.113-.113-.136-.1-.153-.08-.176-.056-.2-.036-.223-.01-.246.017-.273h0l.013-.107.019-.123.027-.129.036-.14.05-.142.059-.143.076-.146.093-.14.106-.133.13-.126.147-.113.166-.1.193-.083.217-.06.239-.04.27-.014h0l.13,0,.137.013.137.023.137.033.133.051.13.06.12.08.11.093.1.113.083.133.066.153.047.177.027.2,0,.226-.023.253-.05.28-.016.2h-2.426l.153-.656h1.458l.007-.083,0-.08-.007-.073-.013-.066-.023-.063-.023-.057-.034-.05-.033-.046-.039-.04-.044-.033-.05-.03-.05-.027-.053-.019-.053-.014-.057-.01-.06-.007h0l-.063,0-.06.01-.057.014-.056.019-.057.027-.049.03-.051.037-.043.04-.044.046-.04.05-.036.054-.03.057-.03.06-.023.066-.02.067-.013.07-.133.689" transform="translate(-17.533 -11.156)"/><path class="d" d="M432.924,164.336l-.043-.023-.043-.02-.047-.023-.05-.023-.05-.02-.056-.02-.057-.02-.059-.02-.063-.016-.064-.013-.069-.013-.07-.01-.077-.007-.076-.006h-.246l-.087.006-.09.01-.093.016-.093.027-.093.037-.093.047-.094.06-.09.073-.087.087-.083.107-.079.123-.074.146-.07.166-.063.187-.053.213-.021.119-.013.116-.007.117,0,.113.009.113.023.107.03.1.037.1.05.09.06.086.071.077.08.07.09.06.1.05.113.043.126.03.043.01.05.01.06.007.066.007.073.007h.16l.083-.007.086-.011.087-.016.083-.023.083-.026.083-.037.076-.043.07-.053.067-.06-.149.889-.021.016-.02.02-.027.024-.03.019-.037.027-.047.024-.053.023-.06.02-.077.024-.087.017-.1.014-.117.013-.129.006-.15,0-.169,0-.187-.01-.153-.017-.153-.033-.153-.05-.153-.067-.147-.079-.14-.1-.133-.116-.123-.133-.11-.15-.093-.166-.08-.186-.06-.2-.04-.223-.014-.236.007-.259.036-.276.027-.136.029-.133.034-.13.034-.123.036-.117.043-.116.044-.11.046-.1.051-.1.049-.1.057-.093.06-.087.06-.083.066-.08.066-.073.07-.07.076-.067.077-.063.08-.057.083-.053.09-.05.09-.043.093-.04.1-.037.1-.033.1-.027.107-.024.114-.02.113-.017.12-.013.12-.006.127,0,.107,0,.1.006.1.01.1.013.094.013.09.02.087.017.08.02.077.02.067.02.063.02.053.02.047.016.04.014.03.013.02.007-.167.922Z" transform="translate(-24.597 -10.022)"/><path class="e" d="M432.924,164.336h0l-.043-.023-.043-.02-.047-.023-.05-.023-.05-.02-.056-.02-.057-.02-.059-.02-.063-.016-.064-.013-.069-.013-.07-.01-.077-.007-.076-.006h-.246l-.087.006-.09.01-.093.016-.093.027-.093.037-.093.047-.094.06-.09.073-.087.087-.083.107-.079.123-.074.146-.07.166-.063.187-.053.213h0l-.021.119-.013.116-.007.117,0,.113.009.113.023.107.03.1.037.1.05.09.06.086.071.077.08.07.09.06.1.05.113.043.126.03h0l.043.01.05.01.06.007.066.007.073.007h.16l.083-.007.086-.011.087-.016.083-.023.083-.026.083-.037.076-.043.07-.053.067-.06-.149.889h0l-.021.016-.02.02-.027.024-.03.019-.037.027-.047.024-.053.023-.06.02-.077.024-.087.017-.1.014-.117.013-.129.006-.15,0-.169,0-.187-.01h0l-.153-.017-.153-.033-.153-.05-.153-.067-.147-.079-.14-.1-.133-.116-.123-.133-.11-.15-.093-.166-.08-.186-.06-.2-.04-.223-.014-.236.007-.259.036-.276h0l.027-.136.029-.133.034-.13.034-.123.036-.117.043-.116.044-.11.046-.1.051-.1.049-.1.057-.093.06-.087.06-.083.066-.08.066-.073.07-.07.076-.067.077-.063.08-.057.083-.053.09-.05.09-.043.093-.04.1-.037.1-.033.1-.027.107-.024.114-.02.113-.017.12-.013.12-.006.127,0h0l.107,0,.1.006.1.01.1.013.094.013.09.02.087.017.08.02.077.02.067.02.063.02.053.02.047.016.04.014.03.013.02.007-.167.922" transform="translate(-24.597 -10.022)"/><path class="d" d="M452.056,167.914h-.922l.067-.369v-.034l-.053.067-.057.059-.056.053-.06.047-.06.043-.06.036-.06.03-.063.03-.063.023-.063.016-.063.016-.067.01-.066.011-.063.007-.066,0h-.066l-.173-.014-.16-.037-.146-.057-.133-.076-.12-.1-.107-.113-.093-.124-.08-.139-.066-.15-.054-.156-.037-.163-.027-.17-.01-.17,0-.173.017-.17.03-.17.05-.2.06-.186.07-.17.083-.16.086-.15.1-.133.1-.119.11-.11.116-.1.123-.083.127-.073.127-.057.133-.047.133-.03.133-.02.137-.007.1,0,.093.01.087.016.08.024.077.027.067.029.066.037.06.037.053.039.05.044.043.043.04.043.033.043.03.043.027.04.02.04h0l.234-1.308h.9l-.752,4.353Z" transform="translate(-35.536 -10.236)"/><path class="e" d="M452.056,167.914h-.922l.067-.369v-.034h0l-.053.067-.057.059-.056.053-.06.047-.06.043-.06.036-.06.03-.063.03-.063.023-.063.016-.063.016-.067.01-.066.011-.063.007-.066,0h-.066l-.173-.014-.16-.037-.146-.057-.133-.076-.12-.1-.107-.113-.093-.124-.08-.139-.066-.15-.054-.156-.037-.163-.027-.17-.01-.17,0-.173.017-.17.03-.17h0l.05-.2.06-.186.07-.17.083-.16.086-.15.1-.133.1-.119.11-.11.116-.1.123-.083.127-.073.127-.057.133-.047.133-.03.133-.02.137-.007h0l.1,0,.093.01.087.016.08.024.077.027.067.029.066.037.06.037.053.039.05.044.043.043.04.043.033.043.03.043.027.04.02.04h0l.234-1.308h.9l-.752,4.353" transform="translate(-35.536 -10.236)"/><path class="b" d="M451.921,169.146l.093-.007.086-.02.08-.023.077-.037.07-.04.066-.051.063-.056.057-.061.05-.067.047-.073.043-.076.037-.079.033-.084.027-.086.023-.09.017-.09.016-.093.01-.1v-.091l0-.093-.01-.087-.013-.083-.023-.08-.027-.076-.033-.066-.04-.064-.043-.054-.05-.046-.057-.04-.06-.027-.063-.016-.069-.007-.091.007-.083.013-.077.027-.076.033-.066.043-.067.053-.057.057-.057.063-.05.073-.047.077-.044.08-.036.086-.033.09-.026.091-.027.1-.02.1-.017.147.007.16.023.163.044.157.066.137.086.11.11.073.133.027Z" transform="translate(-36.908 -12.273)"/><path class="d" d="M402.024,168.13l-.134.739h-.839l.023-.136.017-.123.012-.093.014-.05-.047.053-.053.053-.063.05-.07.046-.08.047-.083.04-.087.04-.09.033-.1.03-.1.024-.1.02-.1.013-.1.007-.1,0-.094-.01-.09-.013-.116-.03-.106-.033-.093-.043-.083-.05-.073-.053-.066-.06-.054-.064-.047-.066-.04-.07-.034-.074-.026-.073-.02-.073-.013-.077-.01-.077-.007-.073v-.073l.01-.13.02-.123.033-.116.043-.113.053-.106.06-.1.07-.093.08-.084.083-.076.093-.07.1-.063.1-.054.106-.046.11-.037.113-.03.117-.02h.006l.017,0,.024,0,.036,0,.04-.007.046,0,.05-.007.057-.007.057-.006.057-.007.06,0,.053-.007.054,0,.049,0,.047,0h.113l.08,0,.073,0h.073l.06,0,.047,0,.033,0h.01l.007-.023.02-.06.016-.07.007-.063-.013-.073-.03-.067-.04-.059-.054-.05-.063-.043-.07-.03-.08-.02-.086-.006-.093,0-.1,0h-.1l-.106,0-.11.007-.107.01-.106.01-.1.013-.1.013-.1.017-.086.016-.08.017-.073.021-.06.019-.046.023-.037.02.237-.8.073-.03.073-.027.08-.023.08-.017.081-.017.086-.013.086-.014.09-.007.093-.006.1,0,.1,0h.319l.117,0,.117,0,.093.006.1.017.1.023.106.03.1.04.1.046.1.057.094.063.082.074.074.08.067.089.049.1.034.107.02.113v.126l-.02.133-.336,1.757Z" transform="translate(-7.447 -11.19)"/><path class="e" d="M402.024,168.13l-.134.739h-.839l.023-.136.017-.123.012-.093.014-.05h0l-.047.053-.053.053-.063.05-.07.046-.08.047-.083.04-.087.04-.09.033-.1.03-.1.024-.1.02-.1.013-.1.007-.1,0-.094-.01-.09-.013h0l-.116-.03-.106-.033-.093-.043-.083-.05-.073-.053-.066-.06-.054-.064-.047-.066-.04-.07-.034-.074-.026-.073-.02-.073-.013-.077-.01-.077-.007-.073v-.073h0l.01-.13.02-.123.033-.116.043-.113.053-.106.06-.1.07-.093.08-.084.083-.076.093-.07.1-.063.1-.054.106-.046.11-.037.113-.03.117-.02h.006l.017,0,.024,0,.036,0,.04-.007.046,0,.05-.007.057-.007.057-.006.057-.007.06,0,.053-.007.054,0,.049,0,.047,0h.113l.08,0,.073,0h.073l.06,0,.047,0,.033,0h.01l.007-.023.02-.06.016-.07.007-.063h0l-.013-.073-.03-.067-.04-.059-.054-.05-.063-.043-.07-.03-.08-.02-.086-.006h0l-.093,0-.1,0h-.1l-.106,0-.11.007-.107.01-.106.01-.1.013-.1.013-.1.017-.086.016-.08.017-.073.021-.06.019-.046.023-.037.02.237-.8h0l.073-.03.073-.027.08-.023.08-.017.081-.017.086-.013.086-.014.09-.007.093-.006.1,0,.1,0h.319l.117,0,.117,0h0l.093.006.1.017.1.023.106.03.1.04.1.046.1.057.094.063.082.074.074.08.067.089.049.1.034.107.02.113v.126l-.02.133-.336,1.757" transform="translate(-7.447 -11.19)"/><path class="c" d="M402.548,169.746l0-.016-.013-.016-.02-.01-.033-.006-.037-.006-.043,0h-.1l-.053,0-.057.006-.053.006-.054.007-.05.007-.047.01-.04.01-.037.01-.023.007-.027.01-.037.013-.037.016-.043.02-.043.024-.046.023-.043.027-.046.033-.043.033-.04.04-.036.04-.034.043-.023.047-.019.053-.011.053,0,.113.016.09.034.067.043.05.05.033.057.02.053.01.053,0,.1,0,.09-.01.086-.014.077-.02.066-.023.063-.03.057-.03.05-.037.043-.033.039-.04.034-.036.027-.04.023-.04.021-.04.016-.037.009-.037.027-.1.023-.11.02-.106.017-.087Z" transform="translate(-8.773 -13.675)"/><path class="d" d="M388.777,167.893h-.9l.755-4.369H390.2l.15,2.592,1.088-2.592h1.644l-.772,4.369h-.905l.572-3.264h-.036l-1.355,3.264h-1.021l-.007-.136-.023-.363-.03-.515-.034-.593-.034-.6-.03-.522-.023-.38-.007-.16h-.049l-.553,3.264Z" transform="translate(-1.202 -10.214)"/><path class="e" d="M388.777,167.893h-.9l.755-4.369H390.2l.15,2.592,1.088-2.592h1.644l-.772,4.369h-.905l.572-3.264h-.036l-1.355,3.264h-1.021l-.007-.136-.023-.363-.03-.515-.034-.593-.034-.6-.03-.522-.023-.38-.007-.16h-.049l-.553,3.264" transform="translate(-1.202 -10.214)"/><path class="d" d="M439.718,168.13l-.137.739h-.836l.006-.136,0-.12v-.09l.006-.04-.043.05-.05.05-.06.046-.067.047-.069.043-.08.04-.084.04-.083.033-.09.026-.093.027-.093.017-.093.013-.1.007-.093,0-.09-.01-.09-.013-.12-.03-.106-.033-.094-.043-.087-.05-.073-.053-.063-.06-.053-.064-.046-.066-.04-.07-.03-.074-.027-.073-.016-.073-.014-.077-.009-.077-.007-.073v-.073l.007-.13.02-.123.03-.116.043-.113.05-.106.063-.1.07-.093.077-.084.087-.076.09-.07.1-.063.1-.054.1-.046.11-.037.11-.03.113-.02h.007l.016,0,.024,0,.033,0,.044-.007.046,0,.05-.007.053-.007.057-.006.06-.007.056,0,.057-.007.053,0,.046,0,.047,0h.116l.08,0,.076,0h.073l.063,0,.053,0,.03,0h.014l.007-.023.01-.06.01-.07.006-.063-.013-.073-.026-.067-.043-.059-.051-.05-.06-.043-.07-.03-.073-.02-.08-.006-.093,0-.1,0h-.1l-.107,0-.109.007-.107.01-.106.01-.1.013-.1.013-.1.017-.087.016-.08.017-.073.021-.06.019-.047.023-.036.02.233-.8.073-.03.077-.027.076-.023.079-.017.083-.017.084-.013.086-.014.091-.007.093-.006.1,0,.1,0h.313l.113,0,.113,0,.093.006.1.017.1.023.107.03.1.04.1.046.1.057.093.063.084.074.076.08.066.089.05.1.037.107.024.113v.126l-.017.133-.349,1.757Z" transform="translate(-28.625 -11.19)"/><path class="d" d="M443.244,172.563l.02-.02.137-.739-.04-.006-.136.739.02-.021v.047l.016,0,0-.016-.02.02Z" transform="translate(-32.287 -14.861)"/><path class="d" d="M441.315,173.46l.02.024h.836v-.047h-.836l.02.023h-.04l0,.024h.023l-.02-.024Z" transform="translate(-31.213 -15.781)"/><path class="d" d="M441.372,172.605l-.03-.026-.013.054,0,.09v.12l-.006.136h.04l.006-.136.007-.12,0-.09v-.027l-.03-.026.033.026Z" transform="translate(-31.217 -15.3)"/><path class="d" d="M438.487,173.032h0l.093.013.09.01.093,0,.1-.007.1-.013.093-.017.094-.026.093-.027.084-.033.086-.04.08-.04.069-.047.07-.047.06-.046.054-.054.043-.05-.033-.026-.043.05-.047.047-.06.047-.063.047-.07.04-.08.04-.08.04-.083.033-.086.027-.093.027-.094.016-.089.013-.1.007-.093,0-.09-.01-.086-.013h0l-.007.04Z" transform="translate(-29.627 -15.3)"/><path class="d" d="M436.65,171.311h0l0,.073.007.073.01.08.013.077.016.073.027.076.03.076.043.07.046.07.054.063.066.063.076.053.087.053.1.043.109.034.12.03.007-.04-.12-.03-.1-.033-.09-.043-.087-.047-.07-.053-.06-.057-.053-.063-.047-.063-.036-.07-.03-.07-.027-.069-.016-.074-.013-.077-.01-.073-.007-.073,0-.073h-.046Z" transform="translate(-28.596 -14.588)"/><path class="d" d="M437.845,168.4h0l-.116.02-.113.03-.11.036-.106.047-.1.053-.1.067-.09.07-.086.08-.08.083-.07.093-.066.1-.05.11-.043.113-.03.12-.02.126-.01.13h.046l0-.13.02-.119.03-.113.043-.113.05-.1.06-.093.07-.093.073-.083.086-.073.09-.07.093-.06.1-.054.1-.046.11-.037.106-.03.11-.02h0v-.04Z" transform="translate(-28.596 -12.951)"/><path class="d" d="M440.06,168.237h-.036l-.047.007-.046,0-.053,0-.057.006-.056,0-.06.007-.057.006-.053.007-.05.007-.046,0-.044.007-.033,0-.027,0-.013,0h-.007v.04h.007l.02,0,.02,0,.033,0,.044-.007.046,0,.05-.007.053-.007.057-.006.06-.007.056,0,.057-.007.053,0,.046,0h.083v-.047Z" transform="translate(-30.126 -12.861)"/><path class="d" d="M441.388,168.273l.02-.017h-.014l-.03,0-.053,0-.063-.006h-.15l-.08-.007h-.08v.047h.16l.076.007h.137l.053,0,.03,0h.014l.02-.017-.02.017.017,0,0-.02-.04-.007Z" transform="translate(-31.004 -12.861)"/><path class="d" d="M442,167.835h0l0,.063-.011.067-.01.06-.006.023.04.007.006-.024.01-.06.01-.073.01-.063H442Z" transform="translate(-31.58 -12.635)"/><path class="d" d="M441.136,167.028v0l.077,0,.07.02.066.03.057.04.046.046.04.057.027.06.013.07h.04l-.014-.076-.026-.074-.047-.063-.053-.054-.063-.046-.073-.03-.077-.019-.083-.01v.043Z" transform="translate(-31.115 -12.158)"/><path class="d" d="M437.88,167.179l.033.02.033-.017.043-.023.057-.02.073-.019.081-.016.086-.017.1-.017.1-.013.1-.014.106-.01.107-.01.109-.006h.31l.093,0v-.04l-.093,0-.1-.007h-.1l-.107.007-.109.006-.107.01-.106.01-.1.013-.1.013-.1.017-.086.017-.08.017-.073.019-.063.021-.05.023-.04.024.033.02-.04-.006Z" transform="translate(-29.286 -12.149)"/><path class="d" d="M438.126,165.58l-.014.017-.233.8.04.006.233-.8-.014.017-.013-.04-.01,0,0,.014.014-.017Z" transform="translate(-29.286 -11.369)"/><path class="d" d="M439.923,165.219h0l-.113-.007-.113,0h-.313l-.1.007-.1,0-.093.007-.091.006-.09.014-.083.014-.083.017-.08.017-.079.023-.076.027-.073.03.013.04.074-.03.076-.026.073-.024.08-.016.083-.017.082-.013.083-.014.091-.006.093-.007.1,0h.41l.113,0h.113v-.04Z" transform="translate(-29.602 -11.16)"/><path class="d" d="M442.961,166.36h0l.016-.137V166.1l-.023-.117-.037-.11-.053-.1-.067-.093-.08-.083-.083-.073-.1-.064-.1-.06-.106-.047-.1-.04-.109-.03-.1-.023-.1-.016-.093-.007v.04l.093.007.1.017.1.023.1.03.1.04.1.047.1.053.09.063.083.073.073.077.066.086.046.1.037.1.024.11v.126l-.017.13h0l.04.006Z" transform="translate(-31.498 -11.174)"/><path class="d" d="M443.575,169.553h0l.35-1.757-.04-.006-.35,1.757h0l.04.006Z" transform="translate(-32.462 -12.61)"/><path class="b" d="M440.239,169.742l-.006-.02-.013-.016-.024-.01-.033-.01-.037,0-.043,0h-.05l-.05,0-.053.007-.053.007-.053.007-.05.007-.049.01-.044.006-.043.01-.033.006-.023,0-.027.01-.033.01-.037.013-.043.02-.039.021-.047.023-.043.029-.044.03-.044.037-.036.036-.037.044-.03.046-.023.05-.02.054-.01.057,0,.113.016.09.028.067.04.05.05.033.057.02.057.01.056,0,.1,0,.093-.01.087-.017.077-.023.073-.027.063-.03.06-.034.053-.04.047-.037.039-.043.037-.04.03-.043.023-.04.017-.04.013-.04.01-.037.014-.093.017-.1.013-.093.006-.084Z" transform="translate(-29.951 -13.671)"/><path class="d" d="M457.379,171.875l.008-.077.025-.09.047-.08.056-.07.07-.056.08-.04.086-.027.093-.01.094.01.086.027.08.04.07.056.056.07.047.08.026.09.007.077h-.1l0-.06-.021-.073-.033-.066-.043-.057-.053-.046-.063-.033-.073-.023-.077-.007-.076.007-.073.023-.063.033-.054.046-.043.057-.033.066-.02.073-.007.06Z" transform="translate(-40.237 -14.652)"/><path class="d" d="M458.064,172.2V172h.183l.04,0,.037.006.026.01.023.013.017.02.013.02.007.023,0,.024,0,.03-.007.023-.01.02-.007.007h-.14l.013,0,.024,0,.02-.006.017-.007.013-.01.007-.01.006-.016v-.024l0-.017-.007-.013-.009-.006-.01-.007-.017,0-.016,0h-.136v.13Z" transform="translate(-40.621 -14.972)"/><path class="d" d="M457.376,172.451l0,.019.01.1.025.09.047.08.057.067.07.056.08.044.086.026.093.01.094-.01.086-.026.08-.044.07-.056.057-.067.047-.08.026-.09.01-.1,0-.019h-.1l0,.019-.006.08-.021.073-.033.063-.043.056-.053.047-.063.036-.073.024-.077.007-.076-.007-.073-.024-.063-.036-.054-.047-.043-.056-.033-.063-.02-.073-.007-.08v-.019Z" transform="translate(-40.234 -15.228)"/><path class="d" d="M458.064,172.451v.2h.083v-.166h.083l.1.166h.067l-.1-.166h.023l.023-.007.02-.007.017-.013.006-.01h-.14l-.017,0h-.083v0Z" transform="translate(-40.621 -15.228)"/><path class="e" d="M457.373,171.895h0l.01-.1.025-.09.047-.08.057-.07.07-.056.08-.04.086-.027.093-.01h0l.093.01.086.027.08.04.07.056.057.07.046.08.026.09.01.1h0l-.01.1-.026.089-.046.08-.057.067-.07.056-.08.044-.086.026-.093.01h0l-.093-.01-.086-.026-.08-.044-.07-.056-.057-.067-.047-.08-.025-.089-.01-.1m.386.183h-.084v-.4h.183l.041,0,.036.007.026.01.023.013.017.02.013.02.007.023,0,.024h0l0,.03-.007.023-.01.02-.013.017-.017.013-.02.007-.023.007h-.023l.1.167h-.067l-.1-.167h-.083v.167m.083-.2h0l.03-.007.024,0,.02-.007.017-.007.014-.01.007-.011.006-.016v-.024h0l0-.017-.007-.014-.009-.006-.01-.007-.017,0-.016,0h-.136v.133h.083m0,.4h0l.077-.007.073-.024.064-.036.053-.047.043-.056.033-.064.02-.073.007-.08h0l-.007-.08-.02-.074-.033-.066-.043-.057-.053-.046-.064-.033-.073-.024-.077-.007h0l-.076.007-.073.024-.063.033-.054.046-.043.057-.033.066-.02.074-.007.08h0l.007.08.02.073.033.064.043.056.054.047.063.036.073.024.076.007" transform="translate(-40.233 -14.652)"/><path class="d" d="M444.151,168.878h.939l.336-1.893.013-.073.02-.074.02-.073.027-.073.033-.073.04-.07.043-.066.053-.063.06-.056.066-.054.077-.05.086-.04.1-.033.107-.027.116-.02.13-.007h.083l.15-.855-.093.006-.09.01-.083.016-.08.023-.073.027-.07.034-.067.036-.063.04-.059.047-.057.046-.053.054-.053.053-.05.057-.05.063-.05.06-.046.067.1-.6h-.936l-.622,3.564Z" transform="translate(-32.808 -11.199)"/><path class="e" d="M444.151,168.878h.939l.336-1.893h0l.013-.073.02-.074.02-.073.027-.073.033-.073.04-.07.043-.066.053-.063.06-.056.066-.054.077-.05.086-.04.1-.033.107-.027.116-.02.13-.007h.083l.15-.855h0l-.093.006-.09.01-.083.016-.08.023-.073.027-.07.034-.067.036-.063.04-.059.047-.057.046-.053.054-.053.053-.05.057-.05.063-.05.06-.046.067.1-.6h-.936l-.622,3.564h0" transform="translate(-32.808 -11.199)"/><path class="d" d="M424.05,168.878H425l.32-1.893.013-.073.016-.07.017-.07.024-.067.026-.067.034-.063.04-.06.047-.057.053-.051.06-.049.074-.04.079-.036.093-.03.1-.026.113-.017.129-.01h.01l.013,0,.017,0h.017l.016,0,.014,0,.009,0h0l0-.013.01-.04.013-.06.017-.073.023-.087.024-.093.03-.093.029-.094.027-.063.033-.064.033-.063.033-.057.03-.05.023-.04.017-.023.006-.01h0l-.014,0-.016,0-.024,0h-.023l-.027,0-.023,0h-.024l-.1.006-.093.01-.087.016-.079.02-.077.026-.07.034-.063.033-.06.04-.056.044-.054.05-.05.05-.05.056-.05.057-.046.064-.05.066-.05.067.12-.6h-.955l-.622,3.564Z" transform="translate(-21.519 -11.199)"/><path class="e" d="M424.05,168.878H425l.32-1.893h0l.013-.073.016-.07.017-.07.024-.067.026-.067.034-.063.04-.06.047-.057.053-.051.06-.049.074-.04.079-.036.093-.03.1-.026.113-.017.129-.01h.01l.013,0,.017,0h.017l.016,0,.014,0,.009,0h0l0-.013.01-.04.013-.06.017-.073.023-.087.024-.093.03-.093.029-.094h0l.027-.063.033-.064.033-.063.033-.057.03-.05.023-.04.017-.023.006-.01h0l-.014,0-.016,0-.024,0h-.023l-.027,0-.023,0h-.024l-.1.006-.093.01-.087.016-.079.02-.077.026-.07.034-.063.033-.06.04-.056.044-.054.05-.05.05-.05.056-.05.057-.046.064-.05.066-.05.067.12-.6h-.955l-.622,3.564h0" transform="translate(-21.519 -11.199)"/><path class="b" d="M457.4,181v-.014l.026-.086.047-.077.056-.066.07-.053.08-.04.086-.023.093-.01.094.01.086.023.08.04.07.053.057.066.046.077.026.086V181h-.1l-.021-.069-.033-.064-.043-.057-.053-.046-.063-.037-.073-.023-.077-.007-.076.007-.073.023-.063.037-.054.046-.043.057-.033.064-.02.069Z" transform="translate(-40.247 -19.823)"/><path class="b" d="M458.064,181.327v-.116h.223l.037.006.026.006.023.013.017.017.013.02.007.023,0,.03h-.067v-.017l0-.017-.007-.013-.009-.006-.01-.007-.017,0-.016,0h-.136v.066Z" transform="translate(-40.621 -20.147)"/><path class="b" d="M457.373,181.549l.01-.073h.1v0l-.007.07Z" transform="translate(-40.234 -20.296)"/><path class="b" d="M458.064,181.549v-.073h.083v.066h.083l.03-.006.024,0,.02-.007.017-.006.013-.01.007-.01.006-.016v-.007h.067l0,.023-.007.02-.01.017-.013.013Z" transform="translate(-40.621 -20.296)"/><path class="b" d="M459.278,181.549l-.006-.07v0h.1l.01.073Z" transform="translate(-41.299 -20.296)"/><path class="b" d="M457.373,181.642v.01l.01.1.025.09.047.08.057.07.07.057.08.039.086.027.093.01.094-.01.086-.027.08-.039.07-.057.057-.07.047-.08.026-.09.01-.1v-.01h-.1v.01l-.006.08-.021.073-.033.063-.043.056-.053.048-.063.036-.073.023-.077.007-.076-.007-.073-.023-.063-.036-.054-.048-.043-.056-.033-.063-.02-.073-.007-.08v-.01Z" transform="translate(-40.234 -20.389)"/><path class="b" d="M458.064,181.642v.193h.083v-.167h.083l.1.167h.067l-.1-.167h.023l.023-.006.02-.007.017-.014h-.316Z" transform="translate(-40.621 -20.389)"/><path class="d" d="M420.167,166.332l-.027-.2-.047-.177-.066-.153-.083-.134-.1-.113-.11-.093-.12-.08-.13-.06-.132-.05-.137-.033-.136-.023-.137-.014-.13,0-.27.014-.239.039-.217.06-.193.083-.166.1-.147.113-.13.126-.106.133-.093.14-.077.146-.059.144-.05.142-.036.141-.027.129-.019.124-.013.107-.017.273.011.246.036.223.056.2.081.176.1.153.113.136.13.113.139.1.15.083.156.064.163.05.166.04.167.023.166.017.163,0h.11l.1,0h.089l.087,0,.076-.007.07-.007.066-.007.06-.01.057-.011.053-.013.053-.017.05-.016.05-.021.053-.019.053-.027.054-.027.133-.819-.1.057-.093.053-.1.041-.094.036-.09.03-.093.02-.09.017-.089.014-.09.007-.086,0h-.09l-.086,0-.086-.007-.086-.01-.084-.01-.086-.013-.067-.014-.066-.023-.067-.029-.06-.037-.06-.039-.054-.05-.05-.05-.046-.057-.04-.056-.036-.063-.027-.061-.023-.064-.014-.063-.006-.064,0-.056.008-.043h2.159l.017-.2.05-.28.023-.253Zm-.9.306h-1.216v0h0l.009-.046.013-.07.02-.067.023-.066.03-.06.03-.057.036-.054.04-.05.044-.046.043-.04.051-.036.049-.03.057-.027.057-.019.057-.014.06-.01.063,0,.06.007.057.01.053.014.053.019.05.027.05.03.044.033.039.04.033.046.034.05.023.057.023.064.013.066.007.073,0,.08Z" transform="translate(-17.533 -11.156)"/></g></g></svg>