<svg xmlns="http://www.w3.org/2000/svg" width="35" height="35" viewBox="0 0 35 35"><defs><style>.a{fill:#fff;stroke:#707070;opacity:0;}.b{fill:#369;}.c{fill:#036;}.d{stroke:none;}.e{fill:none;}</style></defs><g transform="translate(-530 -318)"><g class="a" transform="translate(530 318)"><rect class="d" width="35" height="35"/><rect class="e" x="0.5" y="0.5" width="34" height="34"/></g><g transform="translate(306.545 58.677)"><path class="b" d="M279.4,276.112a3.715,3.715,0,0,0-1.738-.31,7.638,7.638,0,0,0-1.178.093c-.29.044-.319.051-.5.09a.571.571,0,0,0-.427.451l-.118.489c-.067.312.11.3.189.275a5,5,0,0,1,.579-.172,4.29,4.29,0,0,1,.913-.122,2.417,2.417,0,0,1,.883.125.448.448,0,0,1,.294.441.334.334,0,0,1-.016.138c-.016.038-.047.075-.141.088-.555.033-.953.083-1.435.154a4.491,4.491,0,0,0-1.234.339,1.923,1.923,0,0,0-.837.661,1.8,1.8,0,0,0-.279,1.015,1.193,1.193,0,0,0,.4.922,1.491,1.491,0,0,0,1.026.352,2.739,2.739,0,0,0,.61-.057,3.063,3.063,0,0,0,.469-.16,2.448,2.448,0,0,0,.4-.222c.143-.094.24-.162.367-.245l0,.008-.035.157,0,0v0a.288.288,0,0,0,.259.365l0,0h.9a.019.019,0,0,0,.014-.005.507.507,0,0,0,.416-.366l.71-3.065a1.821,1.821,0,0,0,.036-.252,1.975,1.975,0,0,0,.017-.234A1.027,1.027,0,0,0,279.4,276.112Zm-1.722,3.653a2.589,2.589,0,0,1-.382.2,1.375,1.375,0,0,1-.507.11,1.129,1.129,0,0,1-.553-.108.376.376,0,0,1-.19-.363.743.743,0,0,1,.141-.475,1.011,1.011,0,0,1,.415-.28,3.543,3.543,0,0,1,.641-.143c.222-.028.66-.079.716-.079s.094-.031.069.118c-.011.065-.138.585-.2.821A.465.465,0,0,1,277.674,279.765Z" transform="translate(-27.188 -1.743)"/><path class="c" d="M253.708,275.947a.835.835,0,0,0-.611.373s-1.394,2.39-1.53,2.628c-.075.129-.15.047-.163,0s-.43-2.612-.43-2.612a.535.535,0,0,0-.531-.381h-.869a.289.289,0,0,0-.294.37s.665,3.766.794,4.651c.065.489-.007.577-.007.577l-.862,1.5c-.126.2-.057.37.152.37h1.007a.82.82,0,0,0,.61-.37l3.874-6.553s.37-.559.029-.555c-.233,0-1.168,0-1.168,0" transform="translate(-13.722 -1.82)"/><path class="c" d="M227.756,275.46a2.043,2.043,0,0,1-1.227.322h-.239a.29.29,0,0,1-.3-.372l.293-1.261a.494.494,0,0,1,.464-.37l.318,0a1.541,1.541,0,0,1,.845.19.634.634,0,0,1,.279.579,1.049,1.049,0,0,1-.438.914m2.1-1.945a1.455,1.455,0,0,0-.533-.571,2.452,2.452,0,0,0-.845-.312,7.046,7.046,0,0,0-1.148-.091H225.3a.507.507,0,0,0-.466.37l-1.369,5.953a.289.289,0,0,0,.294.371h.974a.5.5,0,0,0,.465-.371l.335-1.445a.5.5,0,0,1,.464-.369h.278a4.612,4.612,0,0,0,2.775-.731,2.275,2.275,0,0,0,.992-1.928,1.819,1.819,0,0,0-.185-.877" transform="translate(0 0)"/><path class="b" d="M265.665,275.509a2.052,2.052,0,0,1-1.227.319H264.2a.288.288,0,0,1-.3-.37l.292-1.263a.5.5,0,0,1,.463-.368l.319,0a1.591,1.591,0,0,1,.845.188.653.653,0,0,1,.282.58,1.07,1.07,0,0,1-.438.917m2.1-1.948a1.486,1.486,0,0,0-.535-.573,2.407,2.407,0,0,0-.845-.311,6.7,6.7,0,0,0-1.144-.09H263.2a.508.508,0,0,0-.464.371l-1.367,5.953a.287.287,0,0,0,.292.37h.976a.507.507,0,0,0,.467-.368l.33-1.445a.5.5,0,0,1,.467-.369h.278a4.6,4.6,0,0,0,2.776-.732,2.292,2.292,0,0,0,.991-1.93,1.878,1.878,0,0,0-.185-.876" transform="translate(-20.25 -0.026)"/><path class="c" d="M241.477,276.1a3.71,3.71,0,0,0-1.737-.31,7.639,7.639,0,0,0-1.178.092c-.29.044-.319.052-.5.091a.569.569,0,0,0-.426.451l-.119.488c-.068.313.111.3.191.275a5.172,5.172,0,0,1,.578-.171,4.254,4.254,0,0,1,.913-.123,2.413,2.413,0,0,1,.882.124.449.449,0,0,1,.294.442.32.32,0,0,1-.016.137c-.016.039-.047.076-.14.088-.555.034-.953.084-1.435.154a4.48,4.48,0,0,0-1.234.339,1.926,1.926,0,0,0-.836.661,1.789,1.789,0,0,0-.279,1.015,1.192,1.192,0,0,0,.4.922,1.491,1.491,0,0,0,1.026.352,2.749,2.749,0,0,0,.611-.057,3.1,3.1,0,0,0,.468-.16,2.478,2.478,0,0,0,.4-.222c.142-.095.241-.162.367-.245l0,.008-.035.156,0,0v0a.287.287,0,0,0,.259.364l0,0h.016v0l.749,0h.139a.016.016,0,0,0,.013-.005.508.508,0,0,0,.417-.364l.71-3.067a1.652,1.652,0,0,0,.036-.251,1.764,1.764,0,0,0,.017-.234A1.025,1.025,0,0,0,241.477,276.1Zm-1.721,3.653a2.5,2.5,0,0,1-.382.2,1.383,1.383,0,0,1-.508.11,1.132,1.132,0,0,1-.553-.107.378.378,0,0,1-.19-.363.738.738,0,0,1,.142-.475,1,1,0,0,1,.414-.28,3.644,3.644,0,0,1,.642-.144c.222-.028.66-.078.717-.079s.093-.031.068.118c-.011.065-.137.585-.2.821A.468.468,0,0,1,239.757,279.756Z" transform="translate(-6.933 -1.737)"/><path class="b" d="M.271,6.641h0a.288.288,0,0,1-.262-.366l0,0c.005-.02.022-.091.047-.2L1.264.579,1.31.371l0-.013A.5.5,0,0,1,1.776,0h.872a.291.291,0,0,1,.295.369h0l-1.3,5.9,0,.011a.5.5,0,0,1-.463.359Z" transform="translate(252.911 272.611)"/><g transform="translate(256.284 272.603)"><path class="b" d="M294.529,273.884a.681.681,0,0,1-.1.02.612.612,0,0,1-.095.008.293.293,0,0,1-.22-.078.35.35,0,0,1-.075-.25v-.5h-.108v-.134h.108v-.272h.159v.272h.328v.134H294.2v.431c0,.049,0,.088,0,.116a.2.2,0,0,0,.024.079.114.114,0,0,0,.052.05.245.245,0,0,0,.1.015.314.314,0,0,0,.081-.012.461.461,0,0,0,.061-.019h.008Z" transform="translate(-293.934 -272.675)"/><path class="b" d="M297.008,274.174h-.16v-.539a1.1,1.1,0,0,0-.006-.118.249.249,0,0,0-.023-.091.123.123,0,0,0-.056-.055.231.231,0,0,0-.1-.019.289.289,0,0,0-.134.034.725.725,0,0,0-.134.085c0,.013,0,.028,0,.045s0,.034,0,.051v.607h-.159v-.539c0-.041,0-.082-.006-.119a.244.244,0,0,0-.024-.09.126.126,0,0,0-.056-.055.246.246,0,0,0-.1-.018.3.3,0,0,0-.132.033.807.807,0,0,0-.131.082v.708h-.159v-.947h.159v.1a.723.723,0,0,1,.15-.1.368.368,0,0,1,.158-.035.308.308,0,0,1,.164.041.251.251,0,0,1,.1.113.76.76,0,0,1,.176-.118.406.406,0,0,1,.169-.036.278.278,0,0,1,.232.095.424.424,0,0,1,.075.264Z" transform="translate(-294.838 -272.956)"/></g></g></g></svg>