<svg xmlns="http://www.w3.org/2000/svg" width="35" height="35" viewBox="0 0 35 35"><defs><style>.a{fill:#fff;stroke:#707070;opacity:0;}.b{fill:#0066b2;}.c{fill:#f9a533;}.d{stroke:none;}.e{fill:none;}</style></defs><g transform="translate(-530 -318)"><g class="a" transform="translate(530 318)"><rect class="d" width="35" height="35"/><rect class="e" x="0.5" y="0.5" width="34" height="34"/></g><g transform="translate(307.523 175.342)"><g transform="translate(223.477 155.658)"><path class="b" d="M252.555,166.263H249.9l1.657-10.185h2.652Z" transform="translate(-238.467 -155.897)"/><path class="b" d="M232.682,156.079l-2.528,7-.3-1.509h0l-.892-4.58a1.134,1.134,0,0,0-1.258-.917h-4.179l-.049.172a9.916,9.916,0,0,1,2.774,1.164l2.3,8.848h2.763l4.219-10.184Z" transform="translate(-223.477 -155.897)"/><path class="b" d="M283.769,166.263H286.2l-2.123-10.184H281.95a1.219,1.219,0,0,0-1.225.759l-3.954,9.426h2.764l.553-1.512h3.371Zm-2.918-3.6,1.393-3.812.784,3.812Z" transform="translate(-253.708 -155.897)"/><path class="b" d="M267.355,158.289l.378-2.187a7.653,7.653,0,0,0-2.384-.444c-1.316,0-4.441.575-4.441,3.372,0,2.632,3.668,2.664,3.668,4.045s-3.29,1.135-4.376.264l-.394,2.286a7.424,7.424,0,0,0,2.993.576c1.809,0,4.54-.937,4.54-3.487,0-2.648-3.7-2.9-3.7-4.046S266.221,157.664,267.355,158.289Z" transform="translate(-244.085 -155.658)"/></g><path class="c" d="M229.855,161.576l-.892-4.58a1.134,1.134,0,0,0-1.258-.917h-4.179l-.049.172a10.284,10.284,0,0,1,3.936,1.976A7.937,7.937,0,0,1,229.855,161.576Z" transform="translate(0 -0.239)"/></g></g></svg>