<svg xmlns="http://www.w3.org/2000/svg" width="35" height="34" viewBox="0 0 35 34"><defs><style>.a{fill:#fff;}.b{fill:#4a0d4a;}</style></defs><rect class="a" width="35" height="34" rx="4"/><path class="b" d="M10.988,7.592a5.635,5.635,0,1,0,5.635,5.635A5.626,5.626,0,0,0,10.988,7.592Zm0,9.3a3.663,3.663,0,1,1,3.663-3.663A3.67,3.67,0,0,1,10.988,16.89Zm7.18-9.529a1.314,1.314,0,1,1-1.314-1.314A1.311,1.311,0,0,1,18.168,7.361ZM21.9,8.7a6.5,6.5,0,0,0-1.775-4.6,6.547,6.547,0,0,0-4.6-1.775c-1.814-.1-7.253-.1-9.068,0a6.537,6.537,0,0,0-4.6,1.77A6.525,6.525,0,0,0,.072,8.69c-.1,1.814-.1,7.253,0,9.068a6.5,6.5,0,0,0,1.775,4.6,6.555,6.555,0,0,0,4.6,1.775c1.814.1,7.253.1,9.068,0a6.5,6.5,0,0,0,4.6-1.775,6.547,6.547,0,0,0,1.775-4.6c.1-1.814.1-7.248,0-9.063ZM19.556,19.7a3.709,3.709,0,0,1-2.089,2.089c-1.447.574-4.88.441-6.478.441s-5.036.128-6.478-.441A3.709,3.709,0,0,1,2.421,19.7c-.574-1.447-.441-4.88-.441-6.478s-.128-5.036.441-6.478A3.709,3.709,0,0,1,4.51,4.659c1.447-.574,4.88-.441,6.478-.441s5.036-.128,6.478.441a3.709,3.709,0,0,1,2.089,2.089c.574,1.447.441,4.88.441,6.478S20.129,18.263,19.556,19.7Z" transform="translate(7.054 3.719)"/></svg>