<svg xmlns="http://www.w3.org/2000/svg" width="36" height="34" viewBox="0 0 36 34"><defs><style>.a{fill:#fff;}.b{fill:#4a0d4a;}</style></defs><rect class="a" width="36" height="34" rx="4"/><g transform="translate(-1816 -1424.854)"><path class="b" d="M4.533,20.25H.334V6.731h4.2ZM2.431,4.886A2.443,2.443,0,1,1,4.863,2.432,2.452,2.452,0,0,1,2.431,4.886ZM20.245,20.25H16.056V13.669c0-1.568-.032-3.58-2.183-3.58-2.183,0-2.517,1.7-2.517,3.467V20.25H7.162V6.731h4.026V8.575h.059A4.411,4.411,0,0,1,15.22,6.392c4.249,0,5.03,2.8,5.03,6.432V20.25Z" transform="translate(1823.726 1431.854)"/></g></svg>