<svg xmlns="http://www.w3.org/2000/svg" width="35" height="34" viewBox="0 0 35 34"><defs><style>.a{fill:#fff;}.b{fill:#4a0d4a;}</style></defs><rect class="a" width="35" height="34" rx="4"/><path class="b" d="M21.378,8.2c.015.212.015.423.015.635A13.8,13.8,0,0,1,7.5,22.732,13.8,13.8,0,0,1,0,20.54a10.1,10.1,0,0,0,1.179.06,9.78,9.78,0,0,0,6.063-2.086,4.892,4.892,0,0,1-4.566-3.387A6.158,6.158,0,0,0,3.6,15.2a5.165,5.165,0,0,0,1.285-.166A4.884,4.884,0,0,1,.968,10.245v-.06a4.918,4.918,0,0,0,2.207.62A4.891,4.891,0,0,1,1.663,4.273a13.881,13.881,0,0,0,10.069,5.11,5.513,5.513,0,0,1-.121-1.119,4.888,4.888,0,0,1,8.451-3.341,9.614,9.614,0,0,0,3.1-1.179,4.87,4.87,0,0,1-2.147,2.691,9.79,9.79,0,0,0,2.812-.756A10.5,10.5,0,0,1,21.378,8.2Z" transform="translate(5.431 4.371)"/></svg>