<svg id="Home_Footer_Btn" xmlns="http://www.w3.org/2000/svg" width="31.249" height="24.3" viewBox="0 0 31.249 24.3">
  <path id="Icon_awesome-home" data-name="Icon awesome-home" d="M15.209,8.558l-10,8.237v8.89a.868.868,0,0,0,.868.868l6.079-.016a.868.868,0,0,0,.864-.868V20.478a.868.868,0,0,1,.868-.868h3.472a.868.868,0,0,1,.868.868v5.188a.868.868,0,0,0,.868.871l6.077.017a.868.868,0,0,0,.868-.868v-8.9l-10-8.231A.661.661,0,0,0,15.209,8.558Zm15.8,5.6-4.535-3.738V2.9a.651.651,0,0,0-.651-.651H22.783a.651.651,0,0,0-.651.651V6.843l-4.857-4a2.6,2.6,0,0,0-3.309,0L.235,14.156a.651.651,0,0,0-.087.917l1.383,1.682a.651.651,0,0,0,.917.088l12.76-10.51a.661.661,0,0,1,.83,0L28.8,16.843a.651.651,0,0,0,.917-.087L31.1,15.075a.651.651,0,0,0-.092-.918Z" transform="translate(0.001 -2.254)" fill="#fff"/>
</svg>
