<svg id="SocialMedia_In_icon" xmlns="http://www.w3.org/2000/svg" width="27" height="27" viewBox="0 0 27 27">
  <rect id="Rectangle_5" data-name="Rectangle 5" width="27" height="27" rx="4" fill="#700066"/>
  <path id="Icon_awesome-instagram" data-name="Icon awesome-instagram" d="M8.314,6.289a4.264,4.264,0,1,0,4.264,4.264A4.257,4.257,0,0,0,8.314,6.289Zm0,7.037a2.772,2.772,0,1,1,2.772-2.772A2.777,2.777,0,0,1,8.314,13.326Zm5.433-7.211a.995.995,0,1,1-.995-.995A.992.992,0,0,1,13.748,6.115Zm2.824,1.009A4.922,4.922,0,0,0,15.228,3.64,4.954,4.954,0,0,0,11.744,2.3c-1.373-.078-5.489-.078-6.862,0A4.947,4.947,0,0,0,1.4,3.636,4.938,4.938,0,0,0,.053,7.121c-.078,1.373-.078,5.489,0,6.862A4.922,4.922,0,0,0,1.4,17.468a4.961,4.961,0,0,0,3.485,1.343c1.373.078,5.489.078,6.862,0a4.922,4.922,0,0,0,3.485-1.343,4.954,4.954,0,0,0,1.343-3.485c.078-1.373.078-5.485,0-6.858ZM14.8,15.456a2.807,2.807,0,0,1-1.581,1.581c-1.095.434-3.693.334-4.9.334s-3.811.1-4.9-.334a2.807,2.807,0,0,1-1.581-1.581c-.434-1.095-.334-3.693-.334-4.9s-.1-3.811.334-4.9A2.807,2.807,0,0,1,3.412,4.07c1.095-.434,3.693-.334,4.9-.334s3.811-.1,4.9.334A2.807,2.807,0,0,1,14.8,5.651c.434,1.095.334,3.693.334,4.9S15.232,14.365,14.8,15.456Z" transform="translate(5.303 3.073)" fill="#fff"/>
</svg>
