<svg id="SocialMedia_Tw_icon" xmlns="http://www.w3.org/2000/svg" width="27" height="27" viewBox="0 0 27 27">
  <rect id="Rectangle_5" data-name="Rectangle 5" width="27" height="27" rx="4" fill="#700066"/>
  <path id="Icon_awesome-twitter" data-name="Icon awesome-twitter" d="M16.178,7.031c.011.16.011.32.011.481A10.442,10.442,0,0,1,5.675,18.026,10.443,10.443,0,0,1,0,16.367a7.645,7.645,0,0,0,.892.046A7.4,7.4,0,0,0,5.48,14.833a3.7,3.7,0,0,1-3.455-2.563,4.66,4.66,0,0,0,.7.057A3.908,3.908,0,0,0,3.7,12.2,3.7,3.7,0,0,1,.732,8.575V8.529A3.722,3.722,0,0,0,2.4,9,3.7,3.7,0,0,1,1.259,4.056a10.5,10.5,0,0,0,7.62,3.867,4.172,4.172,0,0,1-.092-.847,3.7,3.7,0,0,1,6.4-2.529,7.276,7.276,0,0,0,2.345-.892A3.686,3.686,0,0,1,15.9,5.692a7.408,7.408,0,0,0,2.128-.572,7.944,7.944,0,0,1-1.853,1.911Z" transform="translate(3.82 3.289)" fill="#fff"/>
</svg>
