<svg id="SocialMedia_Yt_icon" xmlns="http://www.w3.org/2000/svg" width="27" height="27" viewBox="0 0 27 27">
  <g id="Group_290" data-name="Group 290" transform="translate(0.118 0.467)">
    <g id="Group_289" data-name="Group 289" transform="translate(0)">
      <rect id="Rectangle_5" data-name="Rectangle 5" width="27" height="27" rx="4" transform="translate(-0.118 -0.467)" fill="#700066"/>
    </g>
    <path id="Icon_awesome-youtube" data-name="Icon awesome-youtube" d="M22.528,6.913a2.756,2.756,0,0,0-1.939-1.952c-1.711-.461-8.57-.461-8.57-.461s-6.86,0-8.57.461A2.756,2.756,0,0,0,1.508,6.913a28.915,28.915,0,0,0-.458,5.314,28.915,28.915,0,0,0,.458,5.314,2.715,2.715,0,0,0,1.939,1.921c1.711.461,8.57.461,8.57.461s6.86,0,8.57-.461a2.715,2.715,0,0,0,1.939-1.921,28.915,28.915,0,0,0,.458-5.314,28.915,28.915,0,0,0-.458-5.314ZM9.775,15.489V8.966l5.733,3.262L9.775,15.489Z" transform="translate(1.785 0.989)" fill="#fafafa"/>
  </g>
</svg>
