<svg id="SocialMedia_Ln_icon" xmlns="http://www.w3.org/2000/svg" width="27" height="27" viewBox="0 0 27 27">
  <rect id="Rectangle_5" data-name="Rectangle 5" width="27" height="27" rx="4" fill="#700066"/>
  <g id="Group_73" data-name="Group 73" transform="translate(6.302 6.1)">
    <path id="Icon_awesome-linkedin-in" data-name="Icon awesome-linkedin-in" d="M3.43,15.325H.253V5.094H3.43ZM1.84,3.7A1.849,1.849,0,1,1,3.68,1.841,1.855,1.855,0,0,1,1.84,3.7ZM15.321,15.325h-3.17v-4.98c0-1.187-.024-2.709-1.652-2.709-1.652,0-1.9,1.29-1.9,2.624v5.066H5.42V5.094H8.467v1.4h.044a3.338,3.338,0,0,1,3.006-1.652c3.215,0,3.806,2.117,3.806,4.868v5.62Z" transform="translate(0 -0.001)" fill="#fff"/>
  </g>
</svg>
