<svg width="100" height="100" viewBox="0 0 100 100" fill="none" xmlns="http://www.w3.org/2000/svg">
<g id="lets-icons:check-fill">
<path id="Vector" fill-rule="evenodd" clip-rule="evenodd" d="M50 87.5C54.9246 87.5 59.8009 86.53 64.3506 84.6455C68.9003 82.7609 73.0343 79.9987 76.5165 76.5165C79.9987 73.0343 82.7609 68.9003 84.6455 64.3506C86.53 59.8009 87.5 54.9246 87.5 50C87.5 45.0754 86.53 40.1991 84.6455 35.6494C82.7609 31.0997 79.9987 26.9657 76.5165 23.4835C73.0343 20.0013 68.9003 17.2391 64.3506 15.3545C59.8009 13.47 54.9246 12.5 50 12.5C40.0544 12.5 30.5161 16.4509 23.4835 23.4835C16.4509 30.5161 12.5 40.0544 12.5 50C12.5 59.9456 16.4509 69.4839 23.4835 76.5165C30.5161 83.5491 40.0544 87.5 50 87.5ZM49.0333 65.1667L69.8667 40.1667L63.4667 34.8333L45.55 56.3292L36.2792 47.0542L30.3875 52.9458L42.8875 65.4458L46.1125 68.6708L49.0333 65.1667Z" fill="#AC22AC"/>
</g>
</svg>
