<svg xmlns="http://www.w3.org/2000/svg" width="40.228" height="37.862" viewBox="0 0 40.228 37.862"><defs><style>.a{fill:#509af7;fill-rule:evenodd;}</style></defs><path class="a" d="M216.146,526.111a1.183,1.183,0,1,1-1.673-1.674l2.713-2.715h-25.54a3.543,3.543,0,0,1-2.506-1.04l-.022-.021a3.534,3.534,0,0,1-1.023-2.487V499.242a3.546,3.546,0,0,1,3.55-3.548h18.933a3.558,3.558,0,0,1,3.552,3.548v4.733a1.184,1.184,0,1,1-2.368,0v-4.733a1.194,1.194,0,0,0-1.185-1.185H191.645a1.189,1.189,0,0,0-1.182,1.185v18.932a1.176,1.176,0,0,0,.342.835,1.188,1.188,0,0,0,.84.347h25.54l-2.713-2.712a1.183,1.183,0,1,1,1.673-1.674l4.733,4.733.021.023.019.019.018.022,0,0,.014.017,0,.007.014.017,0,.007.012.014.019.022,0,.009.012.014,0,.012.009.014.009.012,0,.014.016.022.007.014.007.012.007.014.007.014.007.014,0,.012.007.014.007.009,0,.014,0,.012.007.017,0,.012.007.016,0,.01,0,.014,0,.012,0,.017.009.028,0,.014,0,.014,0,.012,0,.014,0,.017,0,.014,0,.016,0,.012,0,.017,0,.012,0,.017,0,.012,0,.018v.01l0,.018v.009l0,.019v.007l0,.023v.125l0,.026v0l0,.022v.007l0,.021v.01l0,.019,0,.012,0,.014,0,.012,0,.017,0,.014,0,.017,0,.012,0,.017,0,.012,0,.014,0,.014,0,.014-.009.028,0,.017,0,.012,0,.014,0,.012-.007.014,0,.014-.007.014,0,.012,0,.017-.007.009-.007.014,0,.012-.007.014-.007.012-.007.014-.007.012-.007.013-.016.022,0,.014-.009.012-.009.014,0,.012-.012.016,0,.007-.019.021-.012.017,0,.007-.014.017,0,0-.014.019,0,0-.018.019-.019.021-.021.021Zm-16.911-18.585h25.538a3.545,3.545,0,0,1,2.506,1.039l.022.023a3.54,3.54,0,0,1,1.023,2.488v18.932a3.549,3.549,0,0,1-3.55,3.548h-18.93a3.561,3.561,0,0,1-3.55-3.548v-4.735a1.184,1.184,0,0,1,2.368,0v4.735a1.191,1.191,0,0,0,.331.826l.012.009a1.185,1.185,0,0,0,.84.348h18.93a1.189,1.189,0,0,0,.838-.348,1.174,1.174,0,0,0,.347-.835V511.076a1.174,1.174,0,0,0-1.185-1.183H199.234l2.713,2.71a1.184,1.184,0,0,1-1.675,1.673l-4.731-4.73-.021-.022,0,0-.014-.019-.021-.018,0-.007-.017-.019,0,0-.014-.016,0-.007-.012-.016-.018-.021,0-.009-.009-.014-.007-.012-.009-.012-.007-.012,0-.014-.017-.023-.009-.012,0-.012-.01-.014,0-.014-.01-.014,0-.01,0-.013,0-.012-.007-.014,0-.014-.007-.017,0-.012-.007-.014,0-.012,0-.014,0-.012,0-.016-.009-.026,0-.014,0-.014,0-.012,0-.014,0-.016,0-.012,0-.019,0-.012,0-.017,0-.009v-.016l0-.012,0-.022v-.009l0-.021v-.009l0-.019v-.007l0-.023v-.122l0-.023v-.007l0-.021v-.007l0-.023v-.009l0-.018,0-.01v-.016l0-.012,0-.017,0-.014,0-.014,0-.014,0-.014,0-.012,0-.014,0-.017,0-.012.009-.028,0-.017,0-.009,0-.014,0-.014.007-.014,0-.014.007-.016,0-.012.007-.012,0-.012,0-.014,0-.014.01-.014,0-.012.01-.012,0-.014.009-.009.017-.026,0-.014.007-.009.009-.014.007-.012.009-.014,0-.007.018-.023.012-.019,0,0,.014-.019,0-.007.017-.019,0,0,.021-.017.014-.021,0,0,.021-.021,4.731-4.733a1.184,1.184,0,1,1,1.675,1.673Z" transform="translate(-188.095 -495.694)"/></svg>