<svg xmlns="http://www.w3.org/2000/svg" width="99.708" height="74.216" viewBox="0 0 99.708 74.216"><defs><style>.a{fill:#2471d1;}.b{fill:#509af7;}.c{fill:#fff;}</style></defs><g transform="translate(0 -111.436)"><path class="a" d="M102.883,121.429H56.094a5.642,5.642,0,0,1-4.115-1.783l-6.03-6.429a5.642,5.642,0,0,0-4.121-1.782H22.186a5.642,5.642,0,0,0-5.642,5.642V180a5.648,5.648,0,0,0,5.648,5.648h80.679A5.648,5.648,0,0,0,108.52,180V127.072A5.642,5.642,0,0,0,102.883,121.429Z" transform="translate(-13.131)"/><path class="b" d="M94.069,203.738H42.958a5.643,5.643,0,0,0-4.108,1.774l-6.033,6.4a5.642,5.642,0,0,1-4.108,1.774H5.642A5.643,5.643,0,0,0,0,219.333q0,.257.023.513l2.918,33.926a5.648,5.648,0,0,0,5.625,5.135H90.234a5.649,5.649,0,0,0,5.625-5.136l3.825-43.877a5.642,5.642,0,0,0-5.1-6.133Q94.325,203.738,94.069,203.738Z" transform="translate(0 -73.257)"/><path class="c" d="M18.183,31.028H13.176a1.671,1.671,0,0,1-1.669-1.669V21.014H7.334a.835.835,0,0,1-.591-1.425l8.345-8.345a.835.835,0,0,1,1.18,0l8.345,8.345a.835.835,0,0,1-.589,1.425H19.852v8.345A1.671,1.671,0,0,1,18.183,31.028ZM9.349,19.345h2.992a.835.835,0,0,1,.834.834v9.179h5.007V20.18a.835.835,0,0,1,.834-.834H22.01l-6.33-6.33Z" transform="translate(32.349 149.555)"/><path class="c" d="M7.512,27.654a.932.932,0,0,1-.1-.005,8.343,8.343,0,0,1,.354-16.615A12.505,12.505,0,0,1,31.132,7.749a9.994,9.994,0,0,1,1.637,19.557.835.835,0,0,1-.446-1.609A8.324,8.324,0,0,0,30.547,9.377a.834.834,0,0,1-.711-.481A10.835,10.835,0,0,0,9.3,11.965a.836.836,0,0,1-.826.718A6.675,6.675,0,0,0,7.6,25.99a.835.835,0,0,1-.092,1.664Z" transform="translate(28 142.865)"/></g></svg>