<svg xmlns="http://www.w3.org/2000/svg" width="19" height="19" viewBox="0 0 19 19"><defs><style>.a,.b,.c{fill:none;}.a,.c{stroke:#e51f1f;stroke-linejoin:round;}.a{stroke-linecap:round;}</style></defs><g transform="translate(0.592)"><line class="a" y1="7" transform="translate(11.408 7)"/><line class="a" y1="7" transform="translate(9.408 7)"/><line class="a" y1="7" transform="translate(6.408 7)"/><line class="a" x2="11" transform="translate(3.408 4)"/><rect class="b" width="19" height="19" transform="translate(-0.592)"/><path class="c" d="M76.661,22.331v-.777A1.554,1.554,0,0,0,75.107,20H73.554A1.554,1.554,0,0,0,72,21.554v.777" transform="translate(-65.244 -18.058)"/><path class="c" d="M54.1,44V55.264a1.165,1.165,0,0,1-1.165,1.165H45.165A1.165,1.165,0,0,1,44,55.264V44" transform="translate(-39.963 -39.727)"/></g></svg>