<svg xmlns="http://www.w3.org/2000/svg" width="70" height="70" viewBox="0 0 70 70"><defs><style>.a,.d{fill:none;}.a{stroke:#e45b64;stroke-width:2px;}.b{fill:#f64e60;}.c{stroke:none;}</style></defs><g transform="translate(-512.628 -614.352)"><g class="a" transform="translate(512.628 614.352)"><circle class="c" cx="35" cy="35" r="35"/><circle class="d" cx="35" cy="35" r="34"/></g><g transform="translate(533.131 631.504)"><path class="b" d="M223.244,154.7a.846.846,0,0,0-.846.846v15.982a.846.846,0,1,0,1.691,0V155.549A.846.846,0,0,0,223.244,154.7Zm0,0" transform="translate(-203.595 -141.622)"/><path class="b" d="M105.244,154.7a.846.846,0,0,0-.846.846v15.982a.846.846,0,1,0,1.691,0V155.549A.846.846,0,0,0,105.244,154.7Zm0,0" transform="translate(-95.573 -141.622)"/><path class="b" d="M2.4,10.748V31.582A4.665,4.665,0,0,0,3.639,34.8,4.164,4.164,0,0,0,6.66,36.106h16A4.163,4.163,0,0,0,25.681,34.8a4.665,4.665,0,0,0,1.24-3.218V10.748A3.23,3.23,0,0,0,26.092,4.4H21.763V3.339A3.322,3.322,0,0,0,18.414,0H10.905a3.322,3.322,0,0,0-3.349,3.34V4.4H3.227A3.23,3.23,0,0,0,2.4,10.748ZM22.659,34.415h-16A2.678,2.678,0,0,1,4.09,31.582V10.823H25.23v20.76A2.678,2.678,0,0,1,22.659,34.415ZM9.248,3.339A1.629,1.629,0,0,1,10.905,1.69h7.509a1.629,1.629,0,0,1,1.658,1.649V4.4H9.248ZM3.227,6.087H26.092a1.522,1.522,0,1,1,0,3.044H3.227a1.522,1.522,0,1,1,0-3.044Zm0,0" transform="translate(0 0)"/><path class="b" d="M164.244,154.7a.846.846,0,0,0-.846.846v15.982a.846.846,0,1,0,1.691,0V155.549A.846.846,0,0,0,164.244,154.7Zm0,0" transform="translate(-149.584 -141.622)"/></g></g></svg>