<svg xmlns="http://www.w3.org/2000/svg" xmlns:xlink="http://www.w3.org/1999/xlink" width="50" height="49" viewBox="0 0 50 49"><defs><style>.a{fill:#fff;}.b,.c,.d{fill:none;}.b,.d{stroke:#e51f1f;stroke-linejoin:round;}.b{stroke-linecap:round;}.e{filter:url(#a);}</style><filter id="a" x="0" y="0" width="50" height="49" filterUnits="userSpaceOnUse"><feOffset dy="3" input="SourceAlpha"/><feGaussianBlur stdDeviation="3" result="b"/><feFlood flood-opacity="0.161"/><feComposite operator="in" in2="b"/><feComposite in="SourceGraphic"/></filter></defs><g transform="translate(12206 10473)"><g class="e" transform="matrix(1, 0, 0, 1, -12206, -10473)"><ellipse class="a" cx="16" cy="15.5" rx="16" ry="15.5" transform="translate(9 6)"/></g><g transform="translate(-12189.408 -10461)"><line class="b" y1="7" transform="translate(11.408 7)"/><line class="b" y1="7" transform="translate(9.408 7)"/><line class="b" y1="7" transform="translate(6.408 7)"/><line class="b" x2="11" transform="translate(3.408 4)"/><rect class="c" width="19" height="19" transform="translate(-0.592)"/><path class="d" d="M76.661,22.331v-.777A1.554,1.554,0,0,0,75.107,20H73.554A1.554,1.554,0,0,0,72,21.554v.777" transform="translate(-65.244 -18.058)"/><path class="d" d="M54.1,44V55.264a1.165,1.165,0,0,1-1.165,1.165H45.165A1.165,1.165,0,0,1,44,55.264V44" transform="translate(-39.963 -39.727)"/></g></g></svg>