<svg id="svg" version="1.1" xmlns="http://www.w3.org/2000/svg" xmlns:xlink="http://www.w3.org/1999/xlink" width="400" height="400" viewBox="0, 0, 400,400"><g id="svgg"><path id="path0" d="M0.000 200.000 L 0.000 400.000 200.000 400.000 L 400.000 400.000 400.000 200.000 L 400.000 0.000 200.000 0.000 L 0.000 0.000 0.000 200.000 M258.964 148.800 C 266.427 148.800,268.489 150.396,266.200 154.400 C 265.886 154.950,265.622 156.305,265.614 157.411 C 265.606 158.517,265.369 159.777,265.087 160.211 C 264.199 161.575,263.678 163.692,263.415 167.000 C 263.163 170.165,262.580 172.400,262.007 172.400 C 261.845 172.400,261.606 173.423,261.477 174.673 C 261.346 175.946,260.910 177.398,260.486 177.973 C 259.927 178.731,259.666 179.977,259.489 182.723 C 259.325 185.266,258.988 186.986,258.424 188.149 C 257.957 189.115,257.600 190.652,257.600 191.698 C 257.600 193.402,256.895 194.800,256.034 194.800 C 255.865 194.800,255.694 196.015,255.655 197.500 C 255.549 201.576,255.194 203.662,254.357 205.123 C 253.941 205.850,253.600 207.131,253.600 207.969 C 253.600 208.943,253.275 209.905,252.701 210.636 C 251.963 211.574,251.753 212.491,251.535 215.741 C 251.221 220.418,250.991 220.749,247.748 221.208 C 246.456 221.391,244.540 221.749,243.488 222.005 C 242.250 222.306,241.193 222.341,240.488 222.104 C 239.890 221.903,238.950 221.860,238.400 222.008 C 237.850 222.156,236.840 222.195,236.155 222.095 C 235.470 221.995,234.544 222.109,234.098 222.348 C 233.451 222.694,233.081 222.621,232.280 221.991 C 231.553 221.420,230.660 221.200,229.065 221.200 C 226.407 221.200,225.796 220.699,225.423 218.213 C 225.272 217.208,224.816 215.624,224.410 214.693 C 224.003 213.762,223.541 211.575,223.382 209.832 C 223.215 207.995,222.792 206.147,222.377 205.432 C 221.983 204.755,221.481 203.210,221.261 202.000 C 221.040 200.790,220.654 199.260,220.401 198.600 C 220.148 197.940,219.771 196.140,219.564 194.600 C 218.860 189.373,218.721 188.865,217.742 187.946 C 216.306 186.597,215.400 187.306,215.400 189.779 C 215.400 191.266,215.205 191.827,214.481 192.413 C 213.739 193.015,213.444 193.914,212.947 197.079 C 212.609 199.236,212.084 201.388,211.781 201.863 C 211.478 202.338,211.104 203.951,210.951 205.449 C 210.797 206.946,210.363 208.718,209.986 209.386 C 209.609 210.054,209.072 212.040,208.793 213.800 C 208.513 215.560,208.061 217.450,207.788 218.000 C 207.514 218.550,207.106 219.467,206.882 220.038 C 206.155 221.887,203.348 222.890,201.516 221.956 C 199.720 221.041,199.055 221.014,197.844 221.808 C 196.705 222.554,188.342 222.425,188.086 221.658 C 187.997 221.392,187.057 221.200,185.847 221.200 C 183.661 221.200,182.800 220.725,182.800 219.520 C 182.800 219.124,182.642 218.800,182.449 218.800 C 181.948 218.800,181.302 216.933,180.995 214.600 C 180.850 213.500,180.397 211.340,179.988 209.800 C 179.578 208.260,179.118 206.112,178.965 205.027 C 178.813 203.943,178.365 202.503,177.972 201.827 C 177.573 201.145,177.128 199.269,176.968 197.600 C 176.810 195.950,176.340 193.801,175.923 192.825 C 175.505 191.849,175.065 190.229,174.944 189.225 C 174.822 188.221,174.372 186.619,173.943 185.664 C 173.453 184.575,173.019 182.297,172.778 179.545 C 172.540 176.837,172.155 174.798,171.771 174.212 C 171.429 173.689,171.041 172.213,170.910 170.931 C 170.778 169.649,170.427 168.420,170.130 168.200 C 169.529 167.756,168.809 163.977,168.796 161.200 C 168.789 159.518,168.197 157.230,167.483 156.116 C 166.905 155.214,166.674 150.582,167.163 149.670 C 167.620 148.815,167.789 148.800,176.939 148.800 L 186.250 148.800 187.409 150.010 C 188.489 151.136,188.585 151.499,188.810 155.310 C 188.995 158.437,189.258 159.775,189.926 160.994 C 190.604 162.230,190.800 163.257,190.800 165.568 C 190.800 167.750,191.019 168.999,191.617 170.235 C 192.167 171.371,192.503 173.076,192.647 175.461 C 192.964 180.716,194.540 185.200,196.069 185.200 C 197.185 185.200,197.200 185.168,197.200 182.797 C 197.200 180.733,197.341 180.272,198.200 179.525 C 199.013 178.818,199.200 178.288,199.200 176.689 C 199.200 174.811,200.165 170.645,200.795 169.800 C 200.959 169.580,201.193 168.249,201.314 166.843 C 201.455 165.208,201.819 163.901,202.321 163.221 C 202.896 162.443,203.213 161.057,203.498 158.072 C 203.764 155.286,204.096 153.757,204.544 153.262 C 204.905 152.863,205.200 152.096,205.200 151.558 C 205.200 148.857,205.428 148.800,216.194 148.800 C 226.733 148.800,227.200 148.892,227.200 150.975 C 227.200 151.479,227.571 152.364,228.024 152.940 C 228.477 153.516,228.951 154.665,229.077 155.494 C 229.203 156.322,229.740 158.314,230.270 159.920 C 230.841 161.652,231.275 164.011,231.336 165.720 C 231.413 167.867,231.663 168.956,232.318 170.000 C 232.801 170.770,233.199 172.030,233.202 172.800 C 233.205 173.570,233.650 175.100,234.191 176.200 C 234.998 177.841,235.177 178.813,235.187 181.612 C 235.200 185.023,235.201 185.025,236.386 185.472 C 237.426 185.865,237.602 185.825,237.817 185.146 C 237.952 184.721,238.386 184.064,238.781 183.686 C 239.305 183.186,239.549 182.189,239.685 180.000 C 239.799 178.150,240.202 176.252,240.735 175.049 C 241.277 173.826,241.605 172.259,241.614 170.849 C 241.632 167.956,242.570 161.767,243.090 161.108 C 243.310 160.829,243.606 159.173,243.746 157.428 C 243.893 155.603,244.272 153.844,244.639 153.284 C 244.990 152.749,245.491 151.566,245.754 150.656 C 246.230 149.006,246.239 148.999,248.485 148.798 C 249.724 148.687,250.860 148.473,251.010 148.323 C 251.160 148.174,251.725 148.220,252.267 148.426 C 252.809 148.631,255.822 148.800,258.964 148.800 M101.879 148.800 C 107.487 148.800,107.662 148.826,108.636 149.800 C 109.186 150.350,109.963 150.800,110.363 150.800 C 110.763 150.800,111.769 151.340,112.600 152.000 C 113.431 152.660,114.364 153.200,114.675 153.200 C 115.333 153.200,118.000 155.684,118.000 156.298 C 118.000 156.527,118.278 156.821,118.617 156.951 C 118.956 157.081,119.544 157.882,119.924 158.730 C 120.304 159.578,120.899 160.556,121.247 160.904 C 121.963 161.620,122.609 167.986,122.159 169.879 C 121.563 172.387,121.509 172.400,112.157 172.400 L 103.637 172.400 102.919 171.367 C 102.523 170.799,101.705 169.740,101.100 169.014 C 100.495 168.288,99.994 167.538,99.987 167.347 C 99.922 165.550,94.170 164.837,92.475 166.416 C 90.647 168.119,91.649 172.800,93.842 172.800 C 94.390 172.800,95.235 173.224,95.719 173.741 C 96.204 174.259,97.257 174.804,98.059 174.952 C 98.862 175.100,99.972 175.578,100.527 176.014 C 101.081 176.450,102.404 176.919,103.467 177.056 C 104.530 177.193,105.769 177.639,106.219 178.047 C 106.670 178.454,107.639 178.908,108.373 179.055 C 109.187 179.217,109.782 179.609,109.900 180.061 C 110.044 180.613,110.471 180.800,111.587 180.800 C 112.611 180.800,113.600 181.177,114.737 182.000 C 115.648 182.660,116.570 183.200,116.787 183.200 C 117.004 183.200,117.464 183.631,117.809 184.158 C 118.155 184.685,118.748 185.198,119.128 185.297 C 119.507 185.396,120.434 186.720,121.186 188.239 C 121.939 189.757,122.774 191.270,123.043 191.600 C 124.083 192.877,125.303 197.625,125.032 199.339 C 124.887 200.253,124.600 202.345,124.394 203.989 C 124.170 205.771,123.717 207.386,123.272 207.989 C 122.862 208.545,122.392 209.711,122.230 210.580 C 121.943 212.110,119.444 215.200,118.494 215.200 C 118.273 215.200,117.999 215.559,117.885 215.998 C 117.770 216.437,117.344 216.920,116.938 217.072 C 116.532 217.223,115.970 217.667,115.689 218.058 C 115.407 218.448,114.550 218.886,113.783 219.030 C 113.016 219.173,112.256 219.514,112.094 219.787 C 111.572 220.667,110.099 221.200,108.190 221.200 C 106.742 221.200,106.166 221.400,105.599 222.100 C 104.900 222.963,104.618 223.000,98.669 223.000 C 92.865 223.000,92.389 222.942,91.250 222.100 C 90.580 221.605,89.551 221.200,88.963 221.200 C 87.519 221.200,84.745 220.384,83.969 219.731 C 83.621 219.439,82.938 219.200,82.450 219.200 C 81.963 219.200,81.128 218.764,80.596 218.232 C 80.063 217.700,79.306 217.203,78.914 217.128 C 78.521 217.053,78.142 216.589,78.072 216.096 C 77.997 215.567,77.664 215.200,77.260 215.200 C 76.431 215.200,74.000 212.710,74.000 211.861 C 74.000 211.527,73.649 211.143,73.220 211.006 C 72.792 210.870,72.323 210.363,72.178 209.880 C 72.033 209.396,71.529 208.696,71.058 208.324 C 69.947 207.446,69.726 198.276,70.800 197.588 C 71.150 197.364,75.140 197.245,80.384 197.302 L 89.368 197.400 90.661 199.942 C 93.889 206.287,101.348 207.531,102.265 201.877 C 102.505 200.401,100.752 196.802,99.793 196.801 C 99.569 196.800,98.723 196.350,97.914 195.800 C 97.105 195.250,96.072 194.800,95.619 194.800 C 95.165 194.800,94.403 194.350,93.925 193.800 C 93.259 193.034,92.668 192.800,91.396 192.800 C 90.418 192.800,88.927 192.390,87.768 191.802 C 86.686 191.253,85.318 190.803,84.729 190.802 C 84.064 190.801,83.360 190.421,82.871 189.800 C 82.402 189.203,81.676 188.800,81.071 188.800 C 80.476 188.800,79.744 188.401,79.298 187.833 C 78.879 187.301,78.011 186.806,77.369 186.733 C 76.531 186.638,76.165 186.357,76.078 185.741 C 76.010 185.268,75.607 184.791,75.182 184.679 C 74.757 184.568,74.238 184.025,74.028 183.473 C 73.818 182.920,73.276 182.351,72.823 182.207 C 72.370 182.064,72.000 181.655,72.000 181.299 C 72.000 180.943,71.634 180.262,71.187 179.787 C 68.925 177.378,69.109 159.200,71.396 159.200 C 71.698 159.200,72.002 158.795,72.072 158.300 C 72.142 157.805,72.605 157.222,73.100 157.005 C 73.595 156.788,74.000 156.377,74.000 156.092 C 74.000 155.289,76.680 152.800,77.544 152.800 C 77.968 152.800,78.421 152.522,78.552 152.182 C 78.682 151.842,79.460 151.283,80.281 150.941 C 81.101 150.598,81.988 150.021,82.253 149.659 C 82.810 148.895,88.252 148.389,93.160 148.645 C 94.789 148.730,98.712 148.800,101.879 148.800 M155.078 149.765 L 156.200 150.731 156.333 184.665 C 156.422 207.212,156.329 218.957,156.057 219.665 C 155.570 220.928,148.400 223.411,148.400 222.316 C 148.400 222.069,147.748 222.020,146.700 222.188 C 143.406 222.717,141.549 222.618,141.015 221.888 C 140.651 221.390,139.938 221.200,138.435 221.200 C 134.993 221.200,135.193 223.535,135.304 184.654 L 135.400 150.864 136.370 149.832 L 137.339 148.800 145.647 148.800 C 153.853 148.800,153.969 148.812,155.078 149.765 M297.125 149.616 L 298.000 150.431 298.000 185.016 C 298.000 224.994,298.436 221.200,293.846 221.200 C 292.358 221.200,290.813 221.449,290.146 221.798 C 288.735 222.533,288.311 222.539,285.691 221.860 C 283.941 221.406,283.484 221.406,282.836 221.860 C 282.179 222.320,281.867 222.301,280.732 221.733 C 280.000 221.365,279.130 220.942,278.800 220.791 C 278.391 220.604,278.122 219.641,277.956 217.758 C 277.821 216.241,277.577 214.685,277.413 214.300 C 277.249 213.915,277.255 213.285,277.427 212.900 C 277.599 212.515,277.781 198.199,277.832 181.087 C 277.902 157.342,278.039 149.835,278.411 149.387 C 279.283 148.336,295.970 148.540,297.125 149.616 M329.961 150.060 C 330.202 150.753,330.400 151.664,330.400 152.085 C 330.400 152.505,330.685 153.722,331.034 154.788 C 331.523 156.283,331.565 156.918,331.217 157.567 C 330.899 158.162,330.796 163.474,330.867 175.704 C 330.921 185.217,330.907 196.975,330.835 201.834 C 330.727 209.202,330.816 211.052,331.377 212.982 C 332.037 215.251,332.034 215.312,331.204 216.195 C 330.583 216.857,330.429 217.375,330.623 218.151 C 331.407 221.275,327.826 222.047,315.229 221.468 C 312.183 221.328,311.357 221.156,310.929 220.571 C 310.172 219.536,310.144 150.876,310.900 149.922 C 311.699 148.914,312.162 148.865,321.061 148.832 L 329.522 148.800 329.961 150.060 M297.600 241.535 C 322.879 242.142,324.800 242.344,324.800 244.403 C 324.800 246.906,321.250 247.318,290.185 248.421 C 277.743 248.862,121.978 249.034,117.686 248.611 C 116.429 248.487,109.100 248.203,101.400 247.980 C 83.382 247.457,74.400 246.603,74.400 245.412 C 74.400 242.623,77.212 242.208,100.679 241.526 C 135.823 240.505,254.915 240.510,297.600 241.535 " stroke="none" fill="#b31c1c" fill-rule="evenodd"></path><path id="path1" d="M91.800 150.417 C 87.658 151.082,82.112 152.626,81.440 153.300 C 81.057 153.685,80.537 154.000,80.285 154.000 C 80.034 154.000,79.462 154.355,79.014 154.788 C 78.566 155.222,77.660 156.080,77.000 156.695 C 74.954 158.602,73.657 160.617,73.169 162.649 C 72.911 163.722,72.453 164.999,72.150 165.486 C 71.404 166.687,71.408 172.521,72.155 173.714 C 72.460 174.201,72.938 175.590,73.216 176.800 C 73.498 178.022,74.051 179.232,74.461 179.523 C 74.868 179.810,75.200 180.253,75.200 180.507 C 75.200 181.223,79.679 185.186,80.800 185.461 C 81.350 185.597,82.070 185.938,82.400 186.220 C 82.730 186.502,83.810 187.046,84.800 187.430 C 85.790 187.813,86.851 188.322,87.158 188.560 C 87.465 188.799,88.794 189.214,90.111 189.483 C 91.428 189.751,92.808 190.246,93.179 190.581 C 93.549 190.916,94.471 191.307,95.226 191.449 C 95.982 191.591,96.960 192.024,97.400 192.411 C 97.840 192.797,98.808 193.242,99.551 193.400 C 101.130 193.734,105.058 197.496,105.448 199.047 C 106.166 201.909,104.636 206.030,102.628 206.646 C 102.172 206.785,101.478 207.237,101.084 207.650 C 98.265 210.606,90.457 206.809,88.438 201.501 C 87.904 200.095,86.730 199.908,79.492 200.069 C 75.543 200.157,73.478 200.360,73.146 200.693 C 72.565 201.275,73.334 207.303,74.020 207.537 C 74.241 207.612,74.766 208.332,75.187 209.137 C 76.516 211.674,79.863 214.748,82.656 215.994 C 83.567 216.401,84.419 216.908,84.551 217.121 C 84.683 217.334,85.647 217.634,86.695 217.789 C 87.743 217.944,88.902 218.341,89.270 218.671 C 91.032 220.247,104.795 220.397,107.314 218.867 C 108.021 218.438,109.230 217.958,110.000 217.800 C 114.030 216.978,119.744 211.210,120.769 206.933 C 121.041 205.795,121.514 204.535,121.819 204.133 C 122.471 203.272,122.627 196.987,122.005 196.603 C 121.788 196.469,121.320 195.360,120.965 194.138 C 119.922 190.553,115.157 184.469,113.354 184.422 C 112.889 184.410,112.031 184.025,111.448 183.566 C 110.865 183.107,109.715 182.549,108.894 182.326 C 108.072 182.103,107.098 181.652,106.729 181.324 C 106.359 180.996,105.279 180.554,104.329 180.341 C 103.378 180.128,101.880 179.616,101.000 179.204 C 100.120 178.792,98.918 178.352,98.328 178.227 C 97.738 178.101,97.000 177.743,96.688 177.431 C 96.376 177.119,95.345 176.654,94.396 176.399 C 89.278 175.021,86.504 168.659,89.291 164.689 C 91.198 161.971,97.111 160.654,98.987 162.529 C 99.355 162.898,99.908 163.200,100.214 163.200 C 100.521 163.200,100.986 163.605,101.247 164.100 C 101.508 164.595,102.144 165.396,102.661 165.881 C 103.177 166.365,103.600 167.094,103.600 167.501 C 103.600 169.073,104.264 169.200,112.480 169.200 L 120.400 169.200 120.387 167.900 C 120.380 167.185,120.125 166.270,119.819 165.867 C 119.514 165.465,119.044 164.205,118.774 163.067 C 118.256 160.885,115.037 156.481,113.542 155.910 C 113.124 155.750,112.677 155.345,112.548 155.010 C 112.420 154.674,112.089 154.400,111.813 154.400 C 111.537 154.400,110.633 153.940,109.804 153.377 C 108.975 152.814,107.285 152.167,106.048 151.939 C 104.812 151.711,103.260 151.300,102.600 151.024 C 101.050 150.378,94.378 150.003,91.800 150.417 M138.673 152.100 C 138.041 152.565,138.000 154.955,138.096 186.000 L 138.200 219.400 145.371 219.510 C 150.839 219.593,152.618 219.498,152.864 219.110 C 153.676 217.831,153.249 152.454,152.426 152.014 C 151.277 151.399,139.527 151.472,138.673 152.100 M170.159 152.062 C 169.378 152.441,169.355 152.573,169.842 153.935 C 170.129 154.741,170.373 156.142,170.382 157.049 C 170.392 157.956,170.756 159.503,171.191 160.488 C 171.627 161.472,172.098 163.610,172.238 165.238 C 172.379 166.867,172.835 168.920,173.254 169.800 C 173.672 170.680,174.266 172.750,174.575 174.400 C 174.884 176.050,175.418 178.480,175.762 179.800 C 176.106 181.120,176.390 182.747,176.394 183.415 C 176.397 184.084,176.766 185.344,177.213 186.215 C 177.661 187.087,178.216 189.145,178.447 190.789 C 178.678 192.433,179.028 194.079,179.225 194.447 C 179.422 194.815,179.847 196.745,180.169 198.737 C 180.491 200.729,181.020 202.773,181.344 203.279 C 181.669 203.786,182.147 205.640,182.408 207.400 C 182.669 209.160,183.061 210.935,183.279 211.344 C 183.496 211.753,183.925 213.630,184.230 215.515 C 184.932 219.854,184.238 219.587,194.838 219.594 C 205.483 219.601,204.957 219.826,205.622 214.976 C 205.862 213.229,206.326 211.383,206.655 210.874 C 206.984 210.364,207.427 208.869,207.639 207.551 C 207.851 206.234,208.285 204.388,208.603 203.451 C 208.922 202.513,209.367 200.441,209.594 198.846 C 209.820 197.251,210.340 195.193,210.750 194.273 C 211.160 193.353,211.612 191.552,211.754 190.270 C 211.897 188.989,212.271 187.326,212.585 186.574 C 212.899 185.822,213.350 183.818,213.586 182.122 C 213.999 179.148,216.191 174.800,217.276 174.800 C 217.817 174.800,218.329 176.505,218.616 179.263 C 218.762 180.658,219.224 182.485,219.645 183.321 C 220.065 184.158,220.571 185.985,220.769 187.380 C 220.966 188.776,221.434 190.385,221.808 190.956 C 222.260 191.646,222.559 193.170,222.698 195.497 C 222.856 198.138,223.132 199.394,223.821 200.600 C 224.324 201.480,224.866 203.280,225.025 204.600 C 225.185 205.920,225.557 207.370,225.853 207.822 C 226.148 208.274,226.575 210.428,226.801 212.609 C 227.135 215.827,227.411 216.861,228.265 218.094 L 229.319 219.614 238.549 219.507 L 247.778 219.400 248.054 217.800 C 248.205 216.920,248.623 215.390,248.982 214.400 C 249.341 213.410,249.793 211.566,249.987 210.303 C 250.180 209.040,250.633 207.420,250.994 206.703 C 251.355 205.986,251.825 203.876,252.039 202.013 C 252.253 200.150,252.699 198.084,253.029 197.422 C 253.359 196.761,253.785 195.117,253.976 193.769 C 254.167 192.422,254.675 190.618,255.106 189.760 C 255.582 188.811,255.978 186.977,256.115 185.079 C 256.254 183.166,256.640 181.385,257.112 180.479 C 257.536 179.665,258.014 177.920,258.174 176.600 C 258.334 175.280,258.725 173.793,259.044 173.296 C 259.363 172.799,259.805 170.909,260.027 169.096 C 260.485 165.358,260.637 164.682,261.398 163.000 C 261.878 161.939,262.910 157.347,263.480 153.735 C 263.797 151.723,262.992 151.532,254.812 151.675 C 246.396 151.822,247.305 151.284,246.781 156.431 C 246.548 158.724,246.112 161.500,245.813 162.600 C 245.513 163.700,245.154 165.855,245.014 167.388 C 244.874 168.921,244.435 170.909,244.039 171.806 C 243.642 172.702,243.188 174.958,243.030 176.818 C 242.872 178.678,242.415 181.730,242.015 183.600 C 241.615 185.470,241.169 188.251,241.024 189.780 C 240.880 191.309,240.422 193.199,240.007 193.980 C 239.593 194.761,239.052 196.061,238.806 196.868 C 237.749 200.338,236.409 199.197,235.823 194.328 C 235.673 193.078,235.305 191.853,235.007 191.606 C 234.709 191.358,234.257 189.861,234.003 188.278 C 233.749 186.695,233.253 184.770,232.902 184.000 C 232.551 183.230,232.134 181.045,231.976 179.144 C 231.764 176.597,231.469 175.386,230.853 174.544 C 230.337 173.837,229.923 172.483,229.771 171.000 C 229.636 169.680,229.254 167.996,228.924 167.257 C 228.593 166.519,228.105 164.331,227.841 162.394 C 227.576 160.458,227.135 158.604,226.861 158.274 C 226.587 157.944,226.137 156.448,225.860 154.950 C 225.236 151.568,225.599 151.692,216.170 151.640 C 207.217 151.590,207.367 151.501,206.553 157.384 C 206.263 159.476,205.771 161.596,205.459 162.094 C 205.147 162.592,204.781 163.900,204.645 165.000 C 204.510 166.100,204.063 167.900,203.653 169.000 C 203.242 170.100,202.785 172.242,202.636 173.760 C 202.487 175.278,202.035 177.258,201.632 178.160 C 201.228 179.062,200.774 180.700,200.622 181.800 C 200.470 182.900,200.017 184.520,199.615 185.400 C 199.213 186.280,198.774 188.350,198.638 190.000 C 198.471 192.029,198.069 193.627,197.395 194.937 C 196.848 196.002,196.396 197.172,196.391 197.537 C 196.386 197.902,196.036 198.650,195.613 199.200 L 194.844 200.200 194.262 198.800 C 193.942 198.030,193.548 195.973,193.387 194.230 C 193.225 192.486,192.778 190.326,192.393 189.430 C 192.008 188.533,191.576 186.420,191.433 184.734 C 191.290 183.048,190.907 181.135,190.582 180.483 C 189.897 179.111,189.230 174.480,189.212 170.975 C 189.205 169.452,188.921 167.965,188.449 166.975 C 188.036 166.109,187.573 164.140,187.420 162.600 C 187.267 161.060,186.795 158.656,186.371 157.258 C 185.947 155.860,185.600 154.298,185.600 153.786 C 185.600 151.792,184.887 151.598,177.671 151.627 C 174.002 151.642,170.622 151.838,170.159 152.062 M280.700 152.065 L 279.600 152.467 279.600 185.619 C 279.600 217.987,279.618 218.782,280.374 219.186 C 281.742 219.918,294.266 219.725,294.557 218.967 C 295.060 217.658,294.829 152.589,294.320 152.080 C 293.722 151.482,282.332 151.469,280.700 152.065 M313.724 152.100 C 313.337 152.698,313.171 211.115,313.542 216.000 L 313.800 219.400 320.600 219.499 C 324.340 219.554,327.625 219.453,327.899 219.276 C 328.311 219.010,328.712 169.818,328.429 154.164 C 328.405 152.814,328.222 152.447,327.381 152.064 C 325.919 151.398,314.158 151.429,313.724 152.100 " stroke="none" fill="#faefef" fill-rule="evenodd"></path><path id="path2" d="M88.764 149.213 C 87.315 149.383,85.299 149.899,84.286 150.361 C 83.273 150.822,82.190 151.200,81.880 151.200 C 81.570 151.200,80.846 151.636,80.271 152.169 C 79.696 152.702,78.863 153.253,78.419 153.394 C 77.226 153.773,72.400 158.802,72.400 159.667 C 72.400 159.878,71.950 161.035,71.400 162.237 C 70.032 165.228,69.904 174.057,71.191 176.583 C 71.626 177.436,72.169 178.700,72.397 179.390 C 73.241 181.947,80.940 188.400,83.147 188.400 C 83.377 188.400,84.205 188.835,84.988 189.366 C 85.770 189.897,87.173 190.457,88.105 190.611 C 89.037 190.765,89.980 191.032,90.200 191.204 C 90.420 191.377,91.500 191.785,92.600 192.110 C 93.700 192.436,95.230 193.067,96.000 193.513 C 96.770 193.958,97.997 194.447,98.727 194.599 C 99.457 194.751,100.149 195.122,100.264 195.422 C 100.379 195.723,100.820 196.079,101.244 196.214 C 102.990 196.768,104.306 201.513,103.255 203.464 C 103.037 203.869,102.767 204.500,102.655 204.866 C 102.231 206.252,96.718 206.754,93.928 205.661 C 92.772 205.208,89.907 201.616,89.408 199.994 C 88.795 198.001,88.792 198.000,80.227 198.000 C 69.580 198.000,68.842 198.744,71.874 206.417 C 74.042 211.903,81.382 218.800,85.052 218.800 C 85.514 218.800,86.339 219.152,86.885 219.581 C 87.564 220.115,89.007 220.496,91.439 220.785 C 93.398 221.018,95.854 221.404,96.898 221.644 C 99.175 222.166,107.913 220.738,109.600 219.568 C 110.150 219.187,111.285 218.758,112.122 218.615 C 115.028 218.119,121.128 211.861,121.833 208.651 C 121.976 207.999,122.431 206.912,122.845 206.233 C 123.939 204.440,123.961 195.384,122.876 193.954 C 122.477 193.429,121.927 192.225,121.653 191.279 C 121.379 190.332,120.895 189.458,120.578 189.336 C 120.260 189.214,120.000 188.899,120.000 188.635 C 120.000 187.998,115.582 183.600,114.942 183.600 C 114.667 183.600,113.956 183.150,113.362 182.600 C 112.769 182.050,111.804 181.600,111.219 181.600 C 110.634 181.600,109.545 181.150,108.800 180.600 C 108.055 180.050,107.146 179.600,106.782 179.600 C 106.417 179.600,105.274 179.151,104.242 178.602 C 103.210 178.053,101.619 177.485,100.707 177.339 C 99.795 177.193,98.428 176.652,97.669 176.137 C 96.910 175.622,95.978 175.200,95.598 175.200 C 95.218 175.200,94.450 174.840,93.891 174.400 C 93.331 173.960,92.707 173.600,92.504 173.600 C 91.441 173.600,89.600 170.408,89.600 168.566 C 89.600 165.330,91.300 164.002,95.400 164.032 C 99.813 164.065,100.799 164.725,102.612 168.855 C 103.432 170.723,103.845 170.800,112.974 170.800 C 121.973 170.800,121.801 170.881,121.489 166.764 C 121.271 163.892,120.075 160.651,118.576 158.870 C 116.594 156.515,113.152 153.200,112.689 153.200 C 112.387 153.200,111.737 152.771,111.244 152.247 C 110.720 151.689,109.659 151.184,108.685 151.028 C 107.770 150.882,106.699 150.471,106.305 150.114 C 105.207 149.121,94.335 148.562,88.764 149.213 M139.600 149.524 C 136.570 149.824,136.800 146.867,136.800 185.472 L 136.800 220.020 137.826 220.410 C 139.904 221.200,152.990 220.898,154.056 220.036 L 155.000 219.271 155.137 195.136 C 155.321 162.643,155.011 151.887,153.854 150.556 C 153.006 149.581,144.933 148.997,139.600 149.524 M171.014 149.475 C 167.453 149.729,166.506 151.758,168.342 155.206 C 168.751 155.973,169.214 157.929,169.372 159.553 C 169.530 161.178,169.988 163.608,170.390 164.953 C 170.792 166.299,171.245 168.120,171.397 169.000 C 171.548 169.880,171.993 171.320,172.385 172.200 C 172.777 173.080,173.221 175.240,173.372 177.000 C 173.523 178.760,173.908 180.725,174.227 181.368 C 174.545 182.010,174.995 183.715,175.225 185.156 C 175.455 186.597,175.971 188.321,176.371 188.988 C 176.837 189.763,177.195 191.427,177.365 193.600 C 177.525 195.652,177.922 197.563,178.366 198.419 C 178.771 199.199,179.232 200.819,179.389 202.019 C 179.547 203.219,180.004 204.920,180.405 205.800 C 180.806 206.680,181.335 209.188,181.579 211.373 C 181.824 213.559,182.216 215.578,182.450 215.860 C 182.684 216.143,183.094 217.229,183.361 218.274 C 183.993 220.751,183.808 220.713,195.400 220.754 C 206.615 220.793,206.800 220.722,206.800 216.326 C 206.800 215.732,207.139 214.650,207.553 213.923 C 207.968 213.195,208.419 211.568,208.556 210.307 C 208.693 209.046,209.177 207.301,209.632 206.429 C 210.162 205.411,210.539 203.725,210.685 201.721 C 210.811 199.970,211.221 197.981,211.617 197.191 C 212.006 196.415,212.452 194.885,212.609 193.791 C 212.766 192.696,213.231 190.990,213.643 190.000 C 214.054 189.010,214.558 186.675,214.761 184.812 C 215.060 182.074,215.300 181.287,216.010 180.712 C 217.339 179.636,217.484 179.789,217.782 182.572 C 217.959 184.223,218.334 185.463,218.829 186.033 C 219.253 186.522,219.600 187.062,219.600 187.232 C 219.600 188.596,220.540 194.077,220.966 195.200 C 221.258 195.970,221.625 197.680,221.780 199.000 C 221.936 200.320,222.403 201.985,222.818 202.699 C 223.233 203.414,223.677 204.944,223.805 206.099 C 223.933 207.255,224.384 209.640,224.809 211.400 C 225.233 213.160,225.773 215.615,226.009 216.855 C 226.730 220.643,226.540 220.581,237.830 220.720 C 243.879 220.794,247.866 220.686,248.335 220.435 C 249.338 219.898,250.711 216.035,251.049 212.800 C 251.198 211.370,251.594 209.780,251.928 209.266 C 252.263 208.753,252.858 206.773,253.251 204.866 C 253.644 202.960,254.240 200.230,254.575 198.800 C 254.909 197.370,255.187 195.685,255.192 195.054 C 255.196 194.424,255.555 193.254,255.988 192.454 C 256.422 191.655,257.061 189.470,257.409 187.600 C 257.757 185.730,258.366 182.479,258.762 180.375 C 259.159 178.271,259.765 176.111,260.109 175.575 C 260.453 175.039,260.940 173.160,261.191 171.400 C 261.442 169.640,261.997 167.164,262.424 165.898 C 262.851 164.633,263.200 162.854,263.200 161.946 C 263.200 160.998,263.538 159.748,263.992 159.012 C 265.023 157.345,265.688 152.772,265.133 151.178 C 264.592 149.628,264.337 149.584,255.316 149.485 C 246.461 149.387,246.647 149.319,245.983 152.911 C 245.750 154.169,245.283 155.862,244.944 156.672 C 244.589 157.523,244.206 160.184,244.038 162.973 C 243.839 166.274,243.532 168.210,243.066 169.096 C 242.691 169.808,242.204 171.878,241.985 173.696 C 241.765 175.513,241.317 177.810,240.988 178.800 C 240.660 179.791,240.235 182.696,240.044 185.257 C 239.819 188.271,239.466 190.317,239.043 191.057 C 238.684 191.686,238.143 192.920,237.840 193.800 L 237.289 195.400 236.992 192.886 C 236.816 191.403,236.380 189.974,235.929 189.401 C 235.405 188.734,235.032 187.266,234.739 184.715 C 234.504 182.672,234.068 180.460,233.770 179.800 C 233.472 179.140,233.049 177.453,232.829 176.052 C 232.609 174.650,232.124 173.038,231.751 172.469 C 231.346 171.851,230.952 170.107,230.772 168.136 C 230.607 166.322,230.096 163.833,229.636 162.604 C 229.176 161.375,228.800 159.789,228.800 159.079 C 228.800 158.369,228.453 157.140,228.028 156.348 C 227.604 155.556,227.130 154.209,226.975 153.354 C 226.206 149.112,226.140 149.097,210.722 149.526 C 207.047 149.628,206.170 150.421,205.591 154.167 C 205.356 155.689,204.811 157.979,204.382 159.255 C 203.952 160.531,203.600 162.205,203.600 162.975 C 203.600 163.745,203.221 165.103,202.757 165.992 C 202.294 166.882,201.679 169.182,201.391 171.105 C 201.103 173.027,200.591 175.320,200.252 176.200 C 199.913 177.080,199.627 178.390,199.618 179.112 C 199.608 179.834,199.174 181.454,198.652 182.712 C 198.131 183.970,197.589 186.170,197.448 187.600 C 197.302 189.085,196.770 191.057,196.208 192.200 C 195.668 193.300,195.219 194.635,195.213 195.167 C 195.186 197.199,194.858 195.633,194.444 191.496 C 194.187 188.930,193.760 186.806,193.386 186.235 C 193.033 185.697,192.592 183.645,192.375 181.539 C 192.163 179.483,191.731 176.784,191.414 175.543 C 191.098 174.301,190.652 171.465,190.423 169.239 C 190.195 167.014,189.723 164.520,189.376 163.697 C 189.028 162.874,188.574 160.592,188.367 158.627 C 187.919 154.370,187.482 152.643,186.411 150.900 L 185.612 149.600 181.865 149.600 C 179.804 149.600,177.056 149.534,175.759 149.453 C 174.461 149.372,172.326 149.382,171.014 149.475 M282.010 149.600 C 278.106 149.901,278.413 146.839,278.406 185.638 C 278.400 218.468,278.423 219.497,279.166 220.169 C 280.255 221.155,295.199 220.974,296.209 219.963 C 296.866 219.305,297.281 153.347,296.641 151.329 C 296.123 149.697,290.050 148.979,282.010 149.600 M316.355 149.516 C 313.691 149.617,313.190 149.759,312.355 150.648 L 311.400 151.664 311.302 185.190 C 311.207 217.641,311.228 218.746,311.966 219.658 C 312.709 220.576,312.912 220.603,320.075 220.724 C 329.150 220.877,329.626 220.745,329.533 218.110 C 329.467 216.238,329.462 216.232,329.312 217.800 C 329.228 218.680,328.864 219.625,328.503 219.900 C 327.546 220.629,314.070 220.579,313.100 219.843 C 311.979 218.992,312.021 152.556,313.144 151.170 C 313.872 150.271,314.033 150.253,321.004 150.306 C 329.003 150.367,328.870 150.318,329.234 153.310 L 329.487 155.400 329.544 153.176 C 329.636 149.537,327.967 149.074,316.355 149.516 M104.200 150.248 C 105.080 150.585,106.610 151.028,107.600 151.233 C 108.590 151.438,109.850 151.966,110.400 152.406 C 110.950 152.847,111.762 153.365,112.204 153.557 C 114.695 154.642,118.891 159.920,120.164 163.570 C 122.330 169.780,122.009 170.164,114.515 170.334 C 105.230 170.543,103.807 170.301,103.037 168.377 C 102.693 167.516,102.093 166.478,101.705 166.070 C 101.317 165.663,100.819 165.016,100.599 164.632 C 99.979 163.554,96.572 162.829,94.022 163.232 C 87.122 164.323,87.551 172.794,94.639 175.412 C 95.718 175.810,96.870 176.354,97.200 176.621 C 97.530 176.888,98.860 177.410,100.156 177.781 C 101.452 178.152,102.892 178.691,103.356 178.979 C 103.820 179.267,104.764 179.606,105.454 179.732 C 106.144 179.858,107.384 180.420,108.210 180.981 C 109.036 181.541,110.068 182.000,110.504 182.000 C 112.750 182.000,119.264 187.720,120.754 191.000 C 121.253 192.100,121.963 193.540,122.331 194.200 C 123.425 196.162,123.259 204.476,122.083 206.585 C 121.597 207.456,121.200 208.414,121.200 208.713 C 121.200 209.222,119.399 212.062,118.018 213.728 C 116.751 215.258,112.953 217.903,111.600 218.198 C 110.830 218.365,109.300 218.975,108.200 219.551 C 105.114 221.170,91.641 221.157,88.511 219.534 C 87.396 218.955,85.880 218.350,85.142 218.188 C 79.810 217.018,73.818 210.785,72.059 204.579 C 70.417 198.789,70.435 198.776,80.312 198.780 C 87.988 198.783,88.537 198.894,89.027 200.536 C 91.608 209.189,104.412 209.545,104.458 200.964 C 104.472 198.288,100.875 194.000,98.616 194.000 C 98.117 194.000,97.275 193.660,96.747 193.244 C 96.218 192.828,94.979 192.253,93.993 191.967 C 93.007 191.680,91.840 191.224,91.400 190.952 C 90.960 190.681,89.880 190.328,89.000 190.167 C 83.816 189.221,72.800 181.562,72.800 178.904 C 72.800 178.613,72.332 177.263,71.760 175.904 C 68.810 168.897,72.691 156.900,78.927 153.750 C 79.627 153.396,80.560 152.778,81.000 152.377 C 81.440 151.976,82.610 151.454,83.600 151.216 C 84.590 150.979,86.300 150.530,87.400 150.219 C 90.302 149.399,102.036 149.419,104.200 150.248 M153.236 151.144 C 154.440 152.633,154.431 219.341,153.226 219.986 C 152.204 220.533,138.996 220.533,137.974 219.986 C 137.039 219.486,136.731 153.466,137.655 151.440 C 138.217 150.206,138.817 150.119,146.536 150.165 C 152.271 150.199,152.497 150.232,153.236 151.144 M185.638 151.209 C 186.363 152.035,187.398 156.026,187.991 160.283 C 188.212 161.869,188.661 163.939,188.990 164.883 C 189.318 165.827,189.779 168.580,190.014 171.000 C 190.249 173.420,190.690 176.300,190.996 177.400 C 191.301 178.500,191.674 180.570,191.826 182.000 C 191.977 183.430,192.502 185.860,192.992 187.400 C 193.483 188.940,194.007 191.713,194.157 193.561 C 194.539 198.279,194.899 198.673,195.977 195.555 C 197.344 191.601,198.000 189.128,198.000 187.925 C 198.000 187.320,198.450 185.446,199.000 183.761 C 199.550 182.076,200.000 180.400,200.000 180.035 C 200.000 179.671,200.345 178.389,200.768 177.186 C 201.190 175.984,201.744 173.478,201.998 171.617 C 202.253 169.756,202.662 167.866,202.907 167.417 C 203.152 166.968,203.669 165.250,204.056 163.600 C 204.444 161.950,205.027 159.520,205.352 158.200 C 205.678 156.880,206.091 154.917,206.272 153.838 C 206.828 150.513,207.277 150.356,216.432 150.289 C 225.694 150.220,225.677 150.215,226.520 153.690 C 226.855 155.071,227.408 157.010,227.750 158.000 C 228.586 160.423,229.950 166.420,230.419 169.733 C 230.629 171.216,231.077 172.851,231.415 173.367 C 231.753 173.882,232.208 175.450,232.426 176.852 C 232.644 178.253,233.095 180.210,233.428 181.200 C 233.761 182.190,234.201 184.303,234.406 185.896 C 234.611 187.488,235.136 189.491,235.573 190.347 C 236.010 191.203,236.548 193.029,236.770 194.405 C 236.991 195.780,237.238 196.971,237.318 197.051 C 237.793 197.526,240.159 189.801,240.457 186.803 C 240.643 184.931,241.057 182.230,241.376 180.800 C 241.696 179.370,242.141 176.716,242.367 174.902 C 242.592 173.089,243.043 171.090,243.369 170.460 C 243.695 169.830,244.158 167.374,244.400 165.002 C 244.641 162.630,245.189 159.230,245.616 157.445 C 246.044 155.660,246.396 153.745,246.397 153.189 C 246.405 150.307,248.176 149.835,257.475 150.234 L 263.950 150.513 264.421 151.651 C 264.962 152.957,264.630 155.995,263.763 157.672 C 263.455 158.267,263.039 159.910,262.839 161.324 C 262.639 162.738,262.177 164.471,261.812 165.177 C 261.447 165.883,261.046 167.752,260.921 169.330 C 260.796 170.909,260.288 173.190,259.792 174.400 C 259.295 175.610,258.759 177.590,258.599 178.800 C 258.439 180.010,258.132 181.334,257.918 181.741 C 257.703 182.149,257.179 184.459,256.752 186.873 C 256.326 189.288,255.732 191.654,255.432 192.132 C 255.132 192.609,254.764 193.900,254.614 195.000 C 254.465 196.100,254.091 197.900,253.783 199.000 C 253.476 200.100,253.029 202.260,252.790 203.800 C 252.551 205.340,252.098 207.117,251.784 207.749 C 251.469 208.381,250.943 210.271,250.614 211.949 C 250.285 213.627,249.750 215.720,249.426 216.600 C 249.101 217.480,248.827 218.509,248.818 218.886 C 248.784 220.202,247.406 220.400,238.259 220.400 C 227.105 220.400,226.942 220.327,226.199 214.991 C 226.046 213.896,225.598 211.650,225.203 210.000 C 224.808 208.350,224.378 206.263,224.248 205.363 C 224.117 204.462,223.666 202.932,223.245 201.963 C 222.824 200.993,222.359 199.210,222.212 198.000 C 222.066 196.790,221.614 194.720,221.208 193.400 C 220.802 192.080,220.359 189.933,220.223 188.628 C 220.087 187.323,219.623 185.685,219.192 184.988 C 218.761 184.290,218.211 182.298,217.970 180.560 C 217.528 177.377,217.245 176.567,216.907 177.515 C 216.806 177.798,216.296 178.537,215.774 179.158 C 215.107 179.950,214.695 181.165,214.388 183.243 C 214.147 184.869,213.696 187.010,213.384 188.000 C 213.072 188.990,212.539 191.137,212.199 192.770 C 211.859 194.404,211.415 195.941,211.212 196.186 C 211.009 196.430,210.568 198.468,210.232 200.715 C 209.896 202.961,209.346 205.330,209.011 205.979 C 208.675 206.629,208.396 207.664,208.392 208.280 C 208.387 208.896,207.936 210.660,207.389 212.200 C 206.842 213.740,206.283 215.926,206.147 217.057 C 205.748 220.380,206.370 220.186,195.693 220.320 C 185.649 220.446,184.000 220.235,184.000 218.822 C 184.000 218.384,183.576 216.714,183.058 215.112 C 182.541 213.511,181.998 210.883,181.853 209.274 C 181.705 207.632,181.241 205.664,180.796 204.791 C 180.359 203.936,179.838 202.076,179.637 200.659 C 179.436 199.241,179.079 197.721,178.843 197.280 C 178.607 196.840,178.132 194.725,177.787 192.580 C 177.442 190.436,176.904 188.187,176.591 187.583 C 176.279 186.978,175.909 185.700,175.771 184.742 C 175.632 183.784,175.189 181.830,174.787 180.400 C 174.384 178.970,173.932 176.720,173.781 175.400 C 173.631 174.080,173.169 172.190,172.756 171.200 C 172.021 169.438,171.604 167.631,170.005 159.275 C 169.571 157.006,168.906 154.625,168.527 153.984 C 167.273 151.862,168.111 150.646,171.007 150.382 C 176.110 149.918,184.943 150.417,185.638 151.209 M294.689 150.880 C 296.307 151.687,296.359 152.752,296.363 184.800 C 296.367 219.441,296.373 219.302,294.951 219.950 C 293.238 220.730,280.224 220.552,279.549 219.739 C 278.763 218.792,278.535 153.125,279.312 151.600 C 280.028 150.194,292.176 149.625,294.689 150.880 M329.293 163.600 C 329.293 164.370,329.375 164.685,329.476 164.300 C 329.576 163.915,329.576 163.285,329.476 162.900 C 329.375 162.515,329.293 162.830,329.293 163.600 M329.353 203.800 C 329.353 206.440,329.418 207.468,329.497 206.084 C 329.575 204.701,329.574 202.541,329.495 201.284 C 329.416 200.028,329.352 201.160,329.353 203.800 M329.693 214.400 C 329.693 215.170,329.775 215.485,329.876 215.100 C 329.976 214.715,329.976 214.085,329.876 213.700 C 329.775 213.315,329.693 213.630,329.693 214.400 M151.000 243.229 C 133.389 243.406,117.651 243.735,116.000 243.961 C 114.350 244.186,111.216 244.556,109.036 244.783 C 106.856 245.009,105.001 245.266,104.914 245.352 C 104.319 245.948,132.302 246.200,199.000 246.200 C 270.626 246.200,302.747 245.847,294.000 245.157 C 292.130 245.009,289.610 244.676,288.400 244.417 C 284.476 243.578,275.442 243.291,251.600 243.248 C 238.730 243.224,218.030 243.139,205.600 243.057 C 193.170 242.975,168.600 243.052,151.000 243.229 " stroke="none" fill="#bf6c6d" fill-rule="evenodd"></path><path id="path3" d="M87.400 150.219 C 86.300 150.530,84.590 150.979,83.600 151.216 C 82.610 151.454,81.440 151.976,81.000 152.377 C 80.560 152.778,79.627 153.396,78.927 153.750 C 72.691 156.900,68.810 168.897,71.760 175.904 C 72.332 177.263,72.800 178.613,72.800 178.904 C 72.800 181.562,83.816 189.221,89.000 190.167 C 89.880 190.328,90.960 190.681,91.400 190.952 C 91.840 191.224,93.007 191.680,93.993 191.967 C 94.979 192.253,96.218 192.828,96.747 193.244 C 97.275 193.660,98.117 194.000,98.616 194.000 C 100.875 194.000,104.472 198.288,104.458 200.964 C 104.412 209.545,91.608 209.189,89.027 200.536 C 88.537 198.894,87.988 198.783,80.312 198.780 C 70.435 198.776,70.417 198.789,72.059 204.579 C 73.818 210.785,79.810 217.018,85.142 218.188 C 85.880 218.350,87.396 218.955,88.511 219.534 C 91.641 221.157,105.114 221.170,108.200 219.551 C 109.300 218.975,110.830 218.365,111.600 218.198 C 112.953 217.903,116.751 215.258,118.018 213.728 C 119.399 212.062,121.200 209.222,121.200 208.713 C 121.200 208.414,121.597 207.456,122.083 206.585 C 123.259 204.476,123.425 196.162,122.331 194.200 C 121.963 193.540,121.253 192.100,120.754 191.000 C 119.264 187.720,112.750 182.000,110.504 182.000 C 110.068 182.000,109.036 181.541,108.210 180.981 C 107.384 180.420,106.144 179.858,105.454 179.732 C 104.764 179.606,103.820 179.267,103.356 178.979 C 102.892 178.691,101.452 178.152,100.156 177.781 C 98.860 177.410,97.530 176.888,97.200 176.621 C 96.870 176.354,95.718 175.810,94.639 175.412 C 87.551 172.794,87.122 164.323,94.022 163.232 C 96.572 162.829,99.979 163.554,100.599 164.632 C 100.819 165.016,101.317 165.663,101.705 166.070 C 102.093 166.478,102.693 167.516,103.037 168.377 C 103.807 170.301,105.230 170.543,114.515 170.334 C 122.009 170.164,122.330 169.780,120.164 163.570 C 118.891 159.920,114.695 154.642,112.204 153.557 C 111.762 153.365,110.950 152.847,110.400 152.406 C 109.850 151.966,108.590 151.438,107.600 151.233 C 106.610 151.028,105.080 150.585,104.200 150.248 C 102.036 149.419,90.302 149.399,87.400 150.219 M102.600 151.024 C 103.260 151.300,104.812 151.711,106.048 151.939 C 107.285 152.167,108.975 152.814,109.804 153.377 C 110.633 153.940,111.537 154.400,111.813 154.400 C 112.089 154.400,112.420 154.674,112.548 155.010 C 112.677 155.345,113.124 155.750,113.542 155.910 C 115.037 156.481,118.256 160.885,118.774 163.067 C 119.044 164.205,119.514 165.465,119.819 165.867 C 120.125 166.270,120.380 167.185,120.387 167.900 L 120.400 169.200 112.480 169.200 C 104.264 169.200,103.600 169.073,103.600 167.501 C 103.600 167.094,103.177 166.365,102.661 165.881 C 102.144 165.396,101.508 164.595,101.247 164.100 C 100.986 163.605,100.521 163.200,100.214 163.200 C 99.908 163.200,99.355 162.898,98.987 162.529 C 97.111 160.654,91.198 161.971,89.291 164.689 C 86.504 168.659,89.278 175.021,94.396 176.399 C 95.345 176.654,96.376 177.119,96.688 177.431 C 97.000 177.743,97.738 178.101,98.328 178.227 C 98.918 178.352,100.120 178.792,101.000 179.204 C 101.880 179.616,103.378 180.128,104.329 180.341 C 105.279 180.554,106.359 180.996,106.729 181.324 C 107.098 181.652,108.072 182.103,108.894 182.326 C 109.715 182.549,110.865 183.107,111.448 183.566 C 112.031 184.025,112.889 184.410,113.354 184.422 C 115.157 184.469,119.922 190.553,120.965 194.138 C 121.320 195.360,121.788 196.469,122.005 196.603 C 122.627 196.987,122.471 203.272,121.819 204.133 C 121.514 204.535,121.041 205.795,120.769 206.933 C 119.744 211.210,114.030 216.978,110.000 217.800 C 109.230 217.958,108.021 218.438,107.314 218.867 C 104.795 220.397,91.032 220.247,89.270 218.671 C 88.902 218.341,87.743 217.944,86.695 217.789 C 85.647 217.634,84.683 217.334,84.551 217.121 C 84.419 216.908,83.567 216.401,82.656 215.994 C 79.863 214.748,76.516 211.674,75.187 209.137 C 74.766 208.332,74.241 207.612,74.020 207.537 C 73.334 207.303,72.565 201.275,73.146 200.693 C 73.478 200.360,75.543 200.157,79.492 200.069 C 86.730 199.908,87.904 200.095,88.438 201.501 C 90.457 206.809,98.265 210.606,101.084 207.650 C 101.478 207.237,102.172 206.785,102.628 206.646 C 104.636 206.030,106.166 201.909,105.448 199.047 C 105.058 197.496,101.130 193.734,99.551 193.400 C 98.808 193.242,97.840 192.797,97.400 192.411 C 96.960 192.024,95.982 191.591,95.226 191.449 C 94.471 191.307,93.549 190.916,93.179 190.581 C 92.808 190.246,91.428 189.751,90.111 189.483 C 88.794 189.214,87.465 188.799,87.158 188.560 C 86.851 188.322,85.790 187.813,84.800 187.430 C 83.810 187.046,82.730 186.502,82.400 186.220 C 82.070 185.938,81.350 185.597,80.800 185.461 C 79.679 185.186,75.200 181.223,75.200 180.507 C 75.200 180.253,74.868 179.810,74.461 179.523 C 74.051 179.232,73.498 178.022,73.216 176.800 C 72.938 175.590,72.460 174.201,72.155 173.714 C 71.408 172.521,71.404 166.687,72.150 165.486 C 72.453 164.999,72.911 163.722,73.169 162.649 C 73.657 160.617,74.954 158.602,77.000 156.695 C 77.660 156.080,78.566 155.222,79.014 154.788 C 79.462 154.355,80.034 154.000,80.285 154.000 C 80.537 154.000,81.057 153.685,81.440 153.300 C 82.112 152.626,87.658 151.082,91.800 150.417 C 94.378 150.003,101.050 150.378,102.600 151.024 M139.355 150.286 C 137.147 150.563,137.200 149.680,137.200 186.005 C 137.200 218.782,137.218 219.582,137.974 219.986 C 138.996 220.533,152.204 220.533,153.226 219.986 C 154.431 219.341,154.440 152.633,153.236 151.144 C 152.481 150.211,144.086 149.693,139.355 150.286 M171.007 150.382 C 168.111 150.646,167.273 151.862,168.527 153.984 C 168.906 154.625,169.571 157.006,170.005 159.275 C 171.604 167.631,172.021 169.438,172.756 171.200 C 173.169 172.190,173.631 174.080,173.781 175.400 C 173.932 176.720,174.384 178.970,174.787 180.400 C 175.189 181.830,175.632 183.784,175.771 184.742 C 175.909 185.700,176.279 186.978,176.591 187.583 C 176.904 188.187,177.442 190.436,177.787 192.580 C 178.132 194.725,178.607 196.840,178.843 197.280 C 179.079 197.721,179.436 199.241,179.637 200.659 C 179.838 202.076,180.359 203.936,180.796 204.791 C 181.241 205.664,181.705 207.632,181.853 209.274 C 181.998 210.883,182.541 213.511,183.058 215.112 C 183.576 216.714,184.000 218.384,184.000 218.822 C 184.000 220.235,185.649 220.446,195.693 220.320 C 206.370 220.186,205.748 220.380,206.147 217.057 C 206.283 215.926,206.842 213.740,207.389 212.200 C 207.936 210.660,208.387 208.896,208.392 208.280 C 208.396 207.664,208.675 206.629,209.011 205.979 C 209.346 205.330,209.896 202.961,210.232 200.715 C 210.568 198.468,211.009 196.430,211.212 196.186 C 211.415 195.941,211.859 194.404,212.199 192.770 C 212.539 191.137,213.072 188.990,213.384 188.000 C 213.696 187.010,214.147 184.869,214.388 183.243 C 214.695 181.165,215.107 179.950,215.774 179.158 C 216.296 178.537,216.806 177.798,216.907 177.515 C 217.245 176.567,217.528 177.377,217.970 180.560 C 218.211 182.298,218.761 184.290,219.192 184.988 C 219.623 185.685,220.087 187.323,220.223 188.628 C 220.359 189.933,220.802 192.080,221.208 193.400 C 221.614 194.720,222.066 196.790,222.212 198.000 C 222.359 199.210,222.824 200.993,223.245 201.963 C 223.666 202.932,224.117 204.462,224.248 205.363 C 224.378 206.263,224.808 208.350,225.203 210.000 C 225.598 211.650,226.046 213.896,226.199 214.991 C 226.942 220.327,227.105 220.400,238.259 220.400 C 247.406 220.400,248.784 220.202,248.818 218.886 C 248.827 218.509,249.101 217.480,249.426 216.600 C 249.750 215.720,250.285 213.627,250.614 211.949 C 250.943 210.271,251.469 208.381,251.784 207.749 C 252.098 207.117,252.551 205.340,252.790 203.800 C 253.029 202.260,253.476 200.100,253.783 199.000 C 254.091 197.900,254.465 196.100,254.614 195.000 C 254.764 193.900,255.132 192.609,255.432 192.132 C 255.732 191.654,256.326 189.288,256.752 186.873 C 257.179 184.459,257.703 182.149,257.918 181.741 C 258.132 181.334,258.439 180.010,258.599 178.800 C 258.759 177.590,259.295 175.610,259.792 174.400 C 260.288 173.190,260.796 170.909,260.921 169.330 C 261.046 167.752,261.447 165.883,261.812 165.177 C 262.177 164.471,262.639 162.738,262.839 161.324 C 263.039 159.910,263.455 158.267,263.763 157.672 C 264.630 155.995,264.962 152.957,264.421 151.651 L 263.950 150.513 257.475 150.234 C 248.176 149.835,246.405 150.307,246.397 153.189 C 246.396 153.745,246.044 155.660,245.616 157.445 C 245.189 159.230,244.641 162.630,244.400 165.002 C 244.158 167.374,243.695 169.830,243.369 170.460 C 243.043 171.090,242.592 173.089,242.367 174.902 C 242.141 176.716,241.696 179.370,241.376 180.800 C 241.057 182.230,240.643 184.931,240.457 186.803 C 240.159 189.801,237.793 197.526,237.318 197.051 C 237.238 196.971,236.991 195.780,236.770 194.405 C 236.548 193.029,236.010 191.203,235.573 190.347 C 235.136 189.491,234.611 187.488,234.406 185.896 C 234.201 184.303,233.761 182.190,233.428 181.200 C 233.095 180.210,232.644 178.253,232.426 176.852 C 232.208 175.450,231.753 173.882,231.415 173.367 C 231.077 172.851,230.629 171.216,230.419 169.733 C 229.950 166.420,228.586 160.423,227.750 158.000 C 227.408 157.010,226.855 155.071,226.520 153.690 C 225.677 150.215,225.694 150.220,216.432 150.289 C 207.277 150.356,206.828 150.513,206.272 153.838 C 206.091 154.917,205.678 156.880,205.352 158.200 C 205.027 159.520,204.444 161.950,204.056 163.600 C 203.669 165.250,203.152 166.968,202.907 167.417 C 202.662 167.866,202.253 169.756,201.998 171.617 C 201.744 173.478,201.190 175.984,200.768 177.186 C 200.345 178.389,200.000 179.671,200.000 180.035 C 200.000 180.400,199.550 182.076,199.000 183.761 C 198.450 185.446,198.000 187.320,198.000 187.925 C 198.000 189.128,197.344 191.601,195.977 195.555 C 194.899 198.673,194.539 198.279,194.157 193.561 C 194.007 191.713,193.483 188.940,192.992 187.400 C 192.502 185.860,191.977 183.430,191.826 182.000 C 191.674 180.570,191.301 178.500,190.996 177.400 C 190.690 176.300,190.249 173.420,190.014 171.000 C 189.779 168.580,189.318 165.827,188.990 164.883 C 188.661 163.939,188.212 161.869,187.991 160.283 C 187.398 156.026,186.363 152.035,185.638 151.209 C 184.943 150.417,176.110 149.918,171.007 150.382 M284.611 150.400 C 279.995 150.593,279.803 150.636,279.312 151.600 C 278.535 153.125,278.763 218.792,279.549 219.739 C 280.021 220.307,281.071 220.400,287.030 220.400 C 295.341 220.400,295.852 220.246,296.153 217.650 C 296.548 214.235,296.378 153.858,295.969 152.562 C 295.280 150.377,293.460 150.030,284.611 150.400 M315.909 150.302 C 312.092 150.531,312.400 147.424,312.400 185.745 C 312.400 217.244,312.443 219.345,313.100 219.843 C 314.141 220.633,327.541 220.624,328.624 219.832 C 329.973 218.845,330.013 152.760,328.665 151.076 C 328.177 150.467,320.717 150.014,315.909 150.302 M152.426 152.014 C 153.249 152.454,153.676 217.831,152.864 219.110 C 152.618 219.498,150.839 219.593,145.371 219.510 L 138.200 219.400 138.096 186.000 C 138.000 154.955,138.041 152.565,138.673 152.100 C 139.527 151.472,151.277 151.399,152.426 152.014 M184.971 152.229 C 185.317 152.574,185.600 153.275,185.600 153.786 C 185.600 154.298,185.947 155.860,186.371 157.258 C 186.795 158.656,187.267 161.060,187.420 162.600 C 187.573 164.140,188.036 166.109,188.449 166.975 C 188.921 167.965,189.205 169.452,189.212 170.975 C 189.230 174.480,189.897 179.111,190.582 180.483 C 190.907 181.135,191.290 183.048,191.433 184.734 C 191.576 186.420,192.008 188.533,192.393 189.430 C 192.778 190.326,193.225 192.486,193.387 194.230 C 193.548 195.973,193.942 198.030,194.262 198.800 L 194.844 200.200 195.613 199.200 C 196.036 198.650,196.386 197.902,196.391 197.537 C 196.396 197.172,196.848 196.002,197.395 194.937 C 198.069 193.627,198.471 192.029,198.638 190.000 C 198.774 188.350,199.213 186.280,199.615 185.400 C 200.017 184.520,200.470 182.900,200.622 181.800 C 200.774 180.700,201.228 179.062,201.632 178.160 C 202.035 177.258,202.487 175.278,202.636 173.760 C 202.785 172.242,203.242 170.100,203.653 169.000 C 204.063 167.900,204.510 166.100,204.645 165.000 C 204.781 163.900,205.147 162.592,205.459 162.094 C 205.771 161.596,206.263 159.476,206.553 157.384 C 207.367 151.501,207.217 151.590,216.170 151.640 C 225.599 151.692,225.236 151.568,225.860 154.950 C 226.137 156.448,226.587 157.944,226.861 158.274 C 227.135 158.604,227.576 160.458,227.841 162.394 C 228.105 164.331,228.593 166.519,228.924 167.257 C 229.254 167.996,229.636 169.680,229.771 171.000 C 229.923 172.483,230.337 173.837,230.853 174.544 C 231.469 175.386,231.764 176.597,231.976 179.144 C 232.134 181.045,232.551 183.230,232.902 184.000 C 233.253 184.770,233.749 186.695,234.003 188.278 C 234.257 189.861,234.709 191.358,235.007 191.606 C 235.305 191.853,235.673 193.078,235.823 194.328 C 236.409 199.197,237.749 200.338,238.806 196.868 C 239.052 196.061,239.593 194.761,240.007 193.980 C 240.422 193.199,240.880 191.309,241.024 189.780 C 241.169 188.251,241.615 185.470,242.015 183.600 C 242.415 181.730,242.872 178.678,243.030 176.818 C 243.188 174.958,243.642 172.702,244.039 171.806 C 244.435 170.909,244.874 168.921,245.014 167.388 C 245.154 165.855,245.513 163.700,245.813 162.600 C 246.112 161.500,246.548 158.724,246.781 156.431 C 247.305 151.284,246.396 151.822,254.812 151.675 C 262.992 151.532,263.797 151.723,263.480 153.735 C 262.910 157.347,261.878 161.939,261.398 163.000 C 260.637 164.682,260.485 165.358,260.027 169.096 C 259.805 170.909,259.363 172.799,259.044 173.296 C 258.725 173.793,258.334 175.280,258.174 176.600 C 258.014 177.920,257.536 179.665,257.112 180.479 C 256.640 181.385,256.254 183.166,256.115 185.079 C 255.978 186.977,255.582 188.811,255.106 189.760 C 254.675 190.618,254.167 192.422,253.976 193.769 C 253.785 195.117,253.359 196.761,253.029 197.422 C 252.699 198.084,252.253 200.150,252.039 202.013 C 251.825 203.876,251.355 205.986,250.994 206.703 C 250.633 207.420,250.180 209.040,249.987 210.303 C 249.793 211.566,249.341 213.410,248.982 214.400 C 248.623 215.390,248.205 216.920,248.054 217.800 L 247.778 219.400 238.549 219.507 L 229.319 219.614 228.265 218.094 C 227.411 216.861,227.135 215.827,226.801 212.609 C 226.575 210.428,226.148 208.274,225.853 207.822 C 225.557 207.370,225.185 205.920,225.025 204.600 C 224.866 203.280,224.324 201.480,223.821 200.600 C 223.132 199.394,222.856 198.138,222.698 195.497 C 222.559 193.170,222.260 191.646,221.808 190.956 C 221.434 190.385,220.966 188.776,220.769 187.380 C 220.571 185.985,220.065 184.158,219.645 183.321 C 219.224 182.485,218.762 180.658,218.616 179.263 C 218.329 176.505,217.817 174.800,217.276 174.800 C 216.191 174.800,213.999 179.148,213.586 182.122 C 213.350 183.818,212.899 185.822,212.585 186.574 C 212.271 187.326,211.897 188.989,211.754 190.270 C 211.612 191.552,211.160 193.353,210.750 194.273 C 210.340 195.193,209.820 197.251,209.594 198.846 C 209.367 200.441,208.922 202.513,208.603 203.451 C 208.285 204.388,207.851 206.234,207.639 207.551 C 207.427 208.869,206.984 210.364,206.655 210.874 C 206.326 211.383,205.862 213.229,205.622 214.976 C 204.957 219.826,205.483 219.601,194.838 219.594 C 184.238 219.587,184.932 219.854,184.230 215.515 C 183.925 213.630,183.496 211.753,183.279 211.344 C 183.061 210.935,182.669 209.160,182.408 207.400 C 182.147 205.640,181.669 203.786,181.344 203.279 C 181.020 202.773,180.491 200.729,180.169 198.737 C 179.847 196.745,179.422 194.815,179.225 194.447 C 179.028 194.079,178.678 192.433,178.447 190.789 C 178.216 189.145,177.661 187.087,177.213 186.215 C 176.766 185.344,176.397 184.084,176.394 183.415 C 176.390 182.747,176.106 181.120,175.762 179.800 C 175.418 178.480,174.884 176.050,174.575 174.400 C 174.266 172.750,173.672 170.680,173.254 169.800 C 172.835 168.920,172.379 166.867,172.238 165.238 C 172.098 163.610,171.627 161.472,171.191 160.488 C 170.756 159.503,170.392 157.956,170.382 157.049 C 170.373 156.142,170.129 154.741,169.842 153.935 C 169.355 152.573,169.378 152.441,170.159 152.062 C 171.639 151.344,184.229 151.486,184.971 152.229 M294.320 152.080 C 294.829 152.589,295.060 217.658,294.557 218.967 C 294.266 219.725,281.742 219.918,280.374 219.186 C 279.618 218.782,279.600 217.987,279.600 185.619 L 279.600 152.467 280.700 152.065 C 282.332 151.469,293.722 151.482,294.320 152.080 M327.381 152.064 C 328.222 152.447,328.405 152.814,328.429 154.164 C 328.712 169.818,328.311 219.010,327.899 219.276 C 327.625 219.453,324.340 219.554,320.600 219.499 L 313.800 219.400 313.542 216.000 C 313.171 211.115,313.337 152.698,313.724 152.100 C 314.158 151.429,325.919 151.398,327.381 152.064 " stroke="none" fill="#d29495" fill-rule="evenodd"></path><path id="path4" d="M251.010 148.323 C 250.860 148.473,249.724 148.687,248.485 148.798 C 246.239 148.999,246.230 149.006,245.754 150.656 C 245.491 151.566,244.990 152.749,244.639 153.284 C 244.272 153.844,243.893 155.603,243.746 157.428 C 243.606 159.173,243.310 160.829,243.090 161.108 C 242.570 161.767,241.632 167.956,241.614 170.849 C 241.605 172.259,241.277 173.826,240.735 175.049 C 240.202 176.252,239.799 178.150,239.685 180.000 C 239.549 182.189,239.305 183.186,238.781 183.686 C 238.386 184.064,237.952 184.721,237.817 185.146 C 237.602 185.825,237.426 185.865,236.386 185.472 C 235.201 185.025,235.200 185.023,235.187 181.612 C 235.177 178.813,234.998 177.841,234.191 176.200 C 233.650 175.100,233.205 173.570,233.202 172.800 C 233.199 172.030,232.801 170.770,232.318 170.000 C 231.663 168.956,231.413 167.867,231.336 165.720 C 231.275 164.011,230.841 161.652,230.270 159.920 C 229.740 158.314,229.203 156.322,229.077 155.494 C 228.951 154.665,228.477 153.516,228.024 152.940 C 227.571 152.364,227.200 151.479,227.200 150.975 C 227.200 148.892,226.733 148.800,216.194 148.800 C 205.428 148.800,205.200 148.857,205.200 151.558 C 205.200 152.096,204.905 152.863,204.544 153.262 C 204.096 153.757,203.764 155.286,203.498 158.072 C 203.213 161.057,202.896 162.443,202.321 163.221 C 201.819 163.901,201.455 165.208,201.314 166.843 C 201.193 168.249,200.959 169.580,200.795 169.800 C 200.165 170.645,199.200 174.811,199.200 176.689 C 199.200 178.288,199.013 178.818,198.200 179.525 C 197.341 180.272,197.200 180.733,197.200 182.797 C 197.200 185.168,197.185 185.200,196.069 185.200 C 194.540 185.200,192.964 180.716,192.647 175.461 C 192.503 173.076,192.167 171.371,191.617 170.235 C 191.019 168.999,190.800 167.750,190.800 165.568 C 190.800 163.257,190.604 162.230,189.926 160.994 C 189.258 159.775,188.995 158.437,188.810 155.310 C 188.585 151.499,188.489 151.136,187.409 150.010 L 186.250 148.800 176.939 148.800 C 167.789 148.800,167.620 148.815,167.163 149.670 C 166.674 150.582,166.905 155.214,167.483 156.116 C 168.197 157.230,168.789 159.518,168.796 161.200 C 168.809 163.977,169.529 167.756,170.130 168.200 C 170.427 168.420,170.778 169.649,170.910 170.931 C 171.041 172.213,171.429 173.689,171.771 174.212 C 172.155 174.798,172.540 176.837,172.778 179.545 C 173.019 182.297,173.453 184.575,173.943 185.664 C 174.372 186.619,174.822 188.221,174.944 189.225 C 175.065 190.229,175.505 191.849,175.923 192.825 C 176.340 193.801,176.810 195.950,176.968 197.600 C 177.128 199.269,177.573 201.145,177.972 201.827 C 178.365 202.503,178.813 203.943,178.965 205.027 C 179.118 206.112,179.578 208.260,179.988 209.800 C 180.397 211.340,180.850 213.500,180.995 214.600 C 181.302 216.933,181.948 218.800,182.449 218.800 C 182.642 218.800,182.800 219.124,182.800 219.520 C 182.800 220.725,183.661 221.200,185.847 221.200 C 187.057 221.200,187.997 221.392,188.086 221.658 C 188.342 222.425,196.705 222.554,197.844 221.808 C 199.055 221.014,199.720 221.041,201.516 221.956 C 203.348 222.890,206.155 221.887,206.882 220.038 C 207.106 219.467,207.514 218.550,207.788 218.000 C 208.061 217.450,208.513 215.560,208.793 213.800 C 209.072 212.040,209.609 210.054,209.986 209.386 C 210.363 208.718,210.797 206.946,210.951 205.449 C 211.104 203.951,211.478 202.338,211.781 201.863 C 212.084 201.388,212.609 199.236,212.947 197.079 C 213.444 193.914,213.739 193.015,214.481 192.413 C 215.205 191.827,215.400 191.266,215.400 189.779 C 215.400 187.306,216.306 186.597,217.742 187.946 C 218.721 188.865,218.860 189.373,219.564 194.600 C 219.771 196.140,220.148 197.940,220.401 198.600 C 220.654 199.260,221.040 200.790,221.261 202.000 C 221.481 203.210,221.983 204.755,222.377 205.432 C 222.792 206.147,223.215 207.995,223.382 209.832 C 223.541 211.575,224.003 213.762,224.410 214.693 C 224.816 215.624,225.272 217.208,225.423 218.213 C 225.796 220.699,226.407 221.200,229.065 221.200 C 230.660 221.200,231.553 221.420,232.280 221.991 C 233.081 222.621,233.451 222.694,234.098 222.348 C 234.544 222.109,235.470 221.995,236.155 222.095 C 236.840 222.195,237.850 222.156,238.400 222.008 C 238.950 221.860,239.890 221.903,240.488 222.104 C 241.193 222.341,242.250 222.306,243.488 222.005 C 244.540 221.749,246.456 221.391,247.748 221.208 C 250.991 220.749,251.221 220.418,251.535 215.741 C 251.753 212.491,251.963 211.574,252.701 210.636 C 253.275 209.905,253.600 208.943,253.600 207.969 C 253.600 207.131,253.941 205.850,254.357 205.123 C 255.194 203.662,255.549 201.576,255.655 197.500 C 255.694 196.015,255.865 194.800,256.034 194.800 C 256.895 194.800,257.600 193.402,257.600 191.698 C 257.600 190.652,257.957 189.115,258.424 188.149 C 258.988 186.986,259.325 185.266,259.489 182.723 C 259.666 179.977,259.927 178.731,260.486 177.973 C 260.910 177.398,261.346 175.946,261.477 174.673 C 261.606 173.423,261.845 172.400,262.007 172.400 C 262.580 172.400,263.163 170.165,263.415 167.000 C 263.678 163.692,264.199 161.575,265.087 160.211 C 265.369 159.777,265.606 158.517,265.614 157.411 C 265.622 156.305,265.886 154.950,266.200 154.400 C 268.489 150.396,266.427 148.800,258.964 148.800 C 255.822 148.800,252.809 148.631,252.267 148.426 C 251.725 148.220,251.160 148.174,251.010 148.323 M86.466 148.770 C 83.651 148.943,82.615 149.162,82.253 149.659 C 81.988 150.021,81.101 150.598,80.281 150.941 C 79.460 151.283,78.682 151.842,78.552 152.182 C 78.421 152.522,77.968 152.800,77.544 152.800 C 76.680 152.800,74.000 155.289,74.000 156.092 C 74.000 156.377,73.595 156.788,73.100 157.005 C 72.605 157.222,72.142 157.805,72.072 158.300 C 72.002 158.795,71.698 159.200,71.396 159.200 C 70.547 159.200,70.424 159.629,69.945 164.268 C 69.162 171.864,69.666 178.167,71.187 179.787 C 71.634 180.262,72.000 180.943,72.000 181.299 C 72.000 181.655,72.370 182.064,72.823 182.207 C 73.276 182.351,73.818 182.920,74.028 183.473 C 74.238 184.025,74.757 184.568,75.182 184.679 C 75.607 184.791,76.010 185.268,76.078 185.741 C 76.165 186.357,76.531 186.638,77.369 186.733 C 78.011 186.806,78.879 187.301,79.298 187.833 C 79.744 188.401,80.476 188.800,81.071 188.800 C 81.676 188.800,82.402 189.203,82.871 189.800 C 83.360 190.421,84.064 190.801,84.729 190.802 C 85.318 190.803,86.686 191.253,87.768 191.802 C 88.927 192.390,90.418 192.800,91.396 192.800 C 92.668 192.800,93.259 193.034,93.925 193.800 C 94.403 194.350,95.165 194.800,95.619 194.800 C 96.072 194.800,97.105 195.250,97.914 195.800 C 98.723 196.350,99.569 196.800,99.793 196.801 C 100.752 196.802,102.505 200.401,102.265 201.877 C 101.348 207.531,93.889 206.287,90.661 199.942 L 89.368 197.400 80.384 197.302 C 75.140 197.245,71.150 197.364,70.800 197.588 C 69.726 198.276,69.947 207.446,71.058 208.324 C 71.529 208.696,72.033 209.396,72.178 209.880 C 72.323 210.363,72.792 210.870,73.220 211.006 C 73.649 211.143,74.000 211.527,74.000 211.861 C 74.000 212.710,76.431 215.200,77.260 215.200 C 77.664 215.200,77.997 215.567,78.072 216.096 C 78.142 216.589,78.521 217.053,78.914 217.128 C 79.306 217.203,80.063 217.700,80.596 218.232 C 81.128 218.764,81.963 219.200,82.450 219.200 C 82.938 219.200,83.621 219.439,83.969 219.731 C 84.745 220.384,87.519 221.200,88.963 221.200 C 89.551 221.200,90.580 221.605,91.250 222.100 C 92.389 222.942,92.865 223.000,98.669 223.000 C 104.618 223.000,104.900 222.963,105.599 222.100 C 106.166 221.400,106.742 221.200,108.190 221.200 C 110.099 221.200,111.572 220.667,112.094 219.787 C 112.256 219.514,113.016 219.173,113.783 219.030 C 114.550 218.886,115.407 218.448,115.689 218.058 C 115.970 217.667,116.532 217.223,116.938 217.072 C 117.344 216.920,117.770 216.437,117.885 215.998 C 117.999 215.559,118.273 215.200,118.494 215.200 C 119.444 215.200,121.943 212.110,122.230 210.580 C 122.392 209.711,122.862 208.545,123.272 207.989 C 123.717 207.386,124.170 205.771,124.394 203.989 C 124.600 202.345,124.887 200.253,125.032 199.339 C 125.303 197.625,124.083 192.877,123.043 191.600 C 122.774 191.270,121.939 189.757,121.186 188.239 C 120.434 186.720,119.507 185.396,119.128 185.297 C 118.748 185.198,118.155 184.685,117.809 184.158 C 117.464 183.631,117.004 183.200,116.787 183.200 C 116.570 183.200,115.648 182.660,114.737 182.000 C 113.600 181.177,112.611 180.800,111.587 180.800 C 110.471 180.800,110.044 180.613,109.900 180.061 C 109.782 179.609,109.187 179.217,108.373 179.055 C 107.639 178.908,106.670 178.454,106.219 178.047 C 105.769 177.639,104.530 177.193,103.467 177.056 C 102.404 176.919,101.081 176.450,100.527 176.014 C 99.972 175.578,98.862 175.100,98.059 174.952 C 97.257 174.804,96.204 174.259,95.719 173.741 C 95.235 173.224,94.390 172.800,93.842 172.800 C 91.649 172.800,90.647 168.119,92.475 166.416 C 94.170 164.837,99.922 165.550,99.987 167.347 C 99.994 167.538,100.495 168.288,101.100 169.014 C 101.705 169.740,102.523 170.799,102.919 171.367 L 103.637 172.400 112.157 172.400 C 121.509 172.400,121.563 172.387,122.159 169.879 C 122.609 167.986,121.963 161.620,121.247 160.904 C 120.899 160.556,120.304 159.578,119.924 158.730 C 119.544 157.882,118.956 157.081,118.617 156.951 C 118.278 156.821,118.000 156.527,118.000 156.298 C 118.000 155.684,115.333 153.200,114.675 153.200 C 114.364 153.200,113.431 152.660,112.600 152.000 C 111.769 151.340,110.763 150.800,110.363 150.800 C 109.963 150.800,109.186 150.350,108.636 149.800 C 107.656 148.819,107.525 148.801,101.918 148.866 L 96.200 148.932 100.870 149.177 C 104.424 149.364,105.717 149.582,106.281 150.092 C 106.688 150.460,107.770 150.882,108.685 151.028 C 109.659 151.184,110.720 151.689,111.244 152.247 C 111.737 152.771,112.387 153.200,112.689 153.200 C 113.152 153.200,116.594 156.515,118.576 158.870 C 120.075 160.651,121.271 163.892,121.489 166.764 C 121.801 170.881,121.973 170.800,112.974 170.800 C 103.845 170.800,103.432 170.723,102.612 168.855 C 100.799 164.725,99.813 164.065,95.400 164.032 C 91.300 164.002,89.600 165.330,89.600 168.566 C 89.600 170.408,91.441 173.600,92.504 173.600 C 92.707 173.600,93.331 173.960,93.891 174.400 C 94.450 174.840,95.218 175.200,95.598 175.200 C 95.978 175.200,96.910 175.622,97.669 176.137 C 98.428 176.652,99.795 177.193,100.707 177.339 C 101.619 177.485,103.210 178.053,104.242 178.602 C 105.274 179.151,106.417 179.600,106.782 179.600 C 107.146 179.600,108.055 180.050,108.800 180.600 C 109.545 181.150,110.634 181.600,111.219 181.600 C 111.804 181.600,112.769 182.050,113.362 182.600 C 113.956 183.150,114.667 183.600,114.942 183.600 C 115.582 183.600,120.000 187.998,120.000 188.635 C 120.000 188.899,120.260 189.214,120.578 189.336 C 120.895 189.458,121.379 190.332,121.653 191.279 C 121.927 192.225,122.477 193.429,122.876 193.954 C 123.961 195.384,123.939 204.440,122.845 206.233 C 122.431 206.912,121.976 207.999,121.833 208.651 C 121.128 211.861,115.028 218.119,112.122 218.615 C 111.285 218.758,110.150 219.187,109.600 219.568 C 107.913 220.738,99.175 222.166,96.898 221.644 C 95.854 221.404,93.398 221.018,91.439 220.785 C 89.007 220.496,87.564 220.115,86.885 219.581 C 86.339 219.152,85.514 218.800,85.052 218.800 C 82.871 218.800,76.879 214.323,73.833 210.417 C 72.453 208.648,70.683 203.548,70.655 201.257 C 70.615 198.020,70.672 198.000,80.227 198.000 C 88.792 198.000,88.795 198.001,89.408 199.994 C 89.907 201.616,92.772 205.208,93.928 205.661 C 96.718 206.754,102.231 206.252,102.655 204.866 C 102.767 204.500,103.037 203.869,103.255 203.464 C 104.306 201.513,102.990 196.768,101.244 196.214 C 100.820 196.079,100.379 195.723,100.264 195.422 C 100.149 195.122,99.457 194.751,98.727 194.599 C 97.997 194.447,96.770 193.958,96.000 193.513 C 95.230 193.067,93.700 192.436,92.600 192.110 C 91.500 191.785,90.420 191.377,90.200 191.204 C 89.980 191.032,89.037 190.765,88.105 190.611 C 87.173 190.457,85.770 189.897,84.988 189.366 C 84.205 188.835,83.377 188.400,83.147 188.400 C 80.940 188.400,73.241 181.947,72.397 179.390 C 72.169 178.700,71.626 177.436,71.191 176.583 C 69.904 174.057,70.032 165.228,71.400 162.237 C 71.950 161.035,72.400 159.878,72.400 159.667 C 72.400 158.802,77.226 153.773,78.419 153.394 C 78.863 153.253,79.696 152.702,80.271 152.169 C 80.846 151.636,81.570 151.200,81.880 151.200 C 82.190 151.200,83.257 150.829,84.252 150.376 C 85.265 149.915,87.672 149.380,89.730 149.159 C 96.178 148.467,94.547 148.273,86.466 148.770 M136.370 149.832 L 135.400 150.864 135.304 184.654 C 135.193 223.535,134.993 221.200,138.435 221.200 C 139.938 221.200,140.651 221.390,141.015 221.888 C 141.549 222.618,143.406 222.717,146.700 222.188 C 147.748 222.020,148.400 222.069,148.400 222.316 C 148.400 223.411,155.570 220.928,156.057 219.665 C 156.329 218.957,156.422 207.212,156.333 184.665 L 156.200 150.731 155.078 149.765 C 153.969 148.812,153.853 148.800,145.647 148.800 L 137.339 148.800 136.370 149.832 M278.411 149.387 C 278.039 149.835,277.902 157.342,277.832 181.087 C 277.781 198.199,277.599 212.515,277.427 212.900 C 277.255 213.285,277.249 213.915,277.413 214.300 C 277.577 214.685,277.821 216.241,277.956 217.758 C 278.122 219.641,278.391 220.604,278.800 220.791 C 279.130 220.942,280.000 221.365,280.732 221.733 C 281.867 222.301,282.179 222.320,282.836 221.860 C 283.484 221.406,283.941 221.406,285.691 221.860 C 288.311 222.539,288.735 222.533,290.146 221.798 C 290.813 221.449,292.358 221.200,293.846 221.200 C 298.436 221.200,298.000 224.994,298.000 185.016 L 298.000 150.431 297.125 149.616 C 295.970 148.540,279.283 148.336,278.411 149.387 M312.000 149.078 C 310.380 149.657,310.400 149.198,310.400 185.200 C 310.400 225.354,309.850 221.221,315.229 221.468 C 327.826 222.047,331.407 221.275,330.623 218.151 C 330.429 217.375,330.583 216.857,331.204 216.195 C 332.034 215.312,332.037 215.251,331.377 212.982 C 330.816 211.052,330.727 209.202,330.835 201.834 C 330.907 196.975,330.921 185.217,330.867 175.704 C 330.796 163.474,330.899 158.162,331.217 157.567 C 331.565 156.918,331.523 156.283,331.034 154.788 C 330.685 153.722,330.400 152.505,330.400 152.085 C 330.400 151.664,330.202 150.753,329.961 150.060 L 329.522 148.800 321.061 148.832 C 316.407 148.849,312.330 148.960,312.000 149.078 M153.854 150.556 C 155.011 151.887,155.321 162.643,155.137 195.136 L 155.000 219.271 154.056 220.036 C 152.990 220.898,139.904 221.200,137.826 220.410 L 136.800 220.020 136.800 185.472 C 136.800 153.076,136.844 150.885,137.500 150.293 C 139.099 148.852,152.560 149.068,153.854 150.556 M181.865 149.600 L 185.612 149.600 186.411 150.900 C 187.482 152.643,187.919 154.370,188.367 158.627 C 188.574 160.592,189.028 162.874,189.376 163.697 C 189.723 164.520,190.195 167.014,190.423 169.239 C 190.652 171.465,191.098 174.301,191.414 175.543 C 191.731 176.784,192.163 179.483,192.375 181.539 C 192.592 183.645,193.033 185.697,193.386 186.235 C 193.760 186.806,194.187 188.930,194.444 191.496 C 194.858 195.633,195.186 197.199,195.213 195.167 C 195.219 194.635,195.668 193.300,196.208 192.200 C 196.770 191.057,197.302 189.085,197.448 187.600 C 197.589 186.170,198.131 183.970,198.652 182.712 C 199.174 181.454,199.608 179.834,199.618 179.112 C 199.627 178.390,199.913 177.080,200.252 176.200 C 200.591 175.320,201.103 173.027,201.391 171.105 C 201.679 169.182,202.294 166.882,202.757 165.992 C 203.221 165.103,203.600 163.745,203.600 162.975 C 203.600 162.205,203.952 160.531,204.382 159.255 C 204.811 157.979,205.356 155.689,205.591 154.167 C 206.170 150.421,207.047 149.628,210.722 149.526 C 226.140 149.097,226.206 149.112,226.975 153.354 C 227.130 154.209,227.604 155.556,228.028 156.348 C 228.453 157.140,228.800 158.369,228.800 159.079 C 228.800 159.789,229.176 161.375,229.636 162.604 C 230.096 163.833,230.607 166.322,230.772 168.136 C 230.952 170.107,231.346 171.851,231.751 172.469 C 232.124 173.038,232.609 174.650,232.829 176.052 C 233.049 177.453,233.472 179.140,233.770 179.800 C 234.068 180.460,234.504 182.672,234.739 184.715 C 235.032 187.266,235.405 188.734,235.929 189.401 C 236.380 189.974,236.816 191.403,236.992 192.886 L 237.289 195.400 237.840 193.800 C 238.143 192.920,238.684 191.686,239.043 191.057 C 239.466 190.317,239.819 188.271,240.044 185.257 C 240.235 182.696,240.660 179.791,240.988 178.800 C 241.317 177.810,241.765 175.513,241.985 173.696 C 242.204 171.878,242.691 169.808,243.066 169.096 C 243.532 168.210,243.839 166.274,244.038 162.973 C 244.206 160.184,244.589 157.523,244.944 156.672 C 245.283 155.862,245.750 154.169,245.983 152.911 C 246.647 149.319,246.461 149.387,255.316 149.485 C 264.337 149.584,264.592 149.628,265.133 151.178 C 265.688 152.772,265.023 157.345,263.992 159.012 C 263.538 159.748,263.200 160.998,263.200 161.946 C 263.200 162.854,262.851 164.633,262.424 165.898 C 261.997 167.164,261.442 169.640,261.191 171.400 C 260.940 173.160,260.453 175.039,260.109 175.575 C 259.765 176.111,259.159 178.271,258.762 180.375 C 258.366 182.479,257.757 185.730,257.409 187.600 C 257.061 189.470,256.422 191.655,255.988 192.454 C 255.555 193.254,255.196 194.424,255.192 195.054 C 255.187 195.685,254.909 197.370,254.575 198.800 C 254.240 200.230,253.644 202.960,253.251 204.866 C 252.858 206.773,252.263 208.753,251.928 209.266 C 251.594 209.780,251.198 211.370,251.049 212.800 C 250.711 216.035,249.338 219.898,248.335 220.435 C 247.866 220.686,243.879 220.794,237.830 220.720 C 226.540 220.581,226.730 220.643,226.009 216.855 C 225.773 215.615,225.233 213.160,224.809 211.400 C 224.384 209.640,223.933 207.255,223.805 206.099 C 223.677 204.944,223.233 203.414,222.818 202.699 C 222.403 201.985,221.936 200.320,221.780 199.000 C 221.625 197.680,221.258 195.970,220.966 195.200 C 220.540 194.077,219.600 188.596,219.600 187.232 C 219.600 187.062,219.253 186.522,218.829 186.033 C 218.334 185.463,217.959 184.223,217.782 182.572 C 217.484 179.789,217.339 179.636,216.010 180.712 C 215.300 181.287,215.060 182.074,214.761 184.812 C 214.558 186.675,214.054 189.010,213.643 190.000 C 213.231 190.990,212.766 192.696,212.609 193.791 C 212.452 194.885,212.006 196.415,211.617 197.191 C 211.221 197.981,210.811 199.970,210.685 201.721 C 210.539 203.725,210.162 205.411,209.632 206.429 C 209.177 207.301,208.693 209.046,208.556 210.307 C 208.419 211.568,207.968 213.195,207.553 213.923 C 207.139 214.650,206.800 215.732,206.800 216.326 C 206.800 220.722,206.615 220.793,195.400 220.754 C 183.808 220.713,183.993 220.751,183.361 218.274 C 183.094 217.229,182.684 216.143,182.450 215.860 C 182.216 215.578,181.824 213.559,181.579 211.373 C 181.335 209.188,180.806 206.680,180.405 205.800 C 180.004 204.920,179.547 203.219,179.389 202.019 C 179.232 200.819,178.771 199.199,178.366 198.419 C 177.922 197.563,177.525 195.652,177.365 193.600 C 177.195 191.427,176.837 189.763,176.371 188.988 C 175.971 188.321,175.455 186.597,175.225 185.156 C 174.995 183.715,174.545 182.010,174.227 181.368 C 173.908 180.725,173.523 178.760,173.372 177.000 C 173.221 175.240,172.777 173.080,172.385 172.200 C 171.993 171.320,171.548 169.880,171.397 169.000 C 171.245 168.120,170.792 166.299,170.390 164.953 C 169.988 163.608,169.530 161.178,169.372 159.553 C 169.214 157.929,168.751 155.973,168.342 155.206 C 165.899 150.617,168.021 148.970,175.759 149.453 C 177.056 149.534,179.804 149.600,181.865 149.600 M295.493 150.072 C 295.985 150.323,296.501 150.888,296.641 151.329 C 297.281 153.347,296.866 219.305,296.209 219.963 C 295.199 220.974,280.255 221.155,279.166 220.169 C 278.423 219.497,278.400 218.468,278.406 185.638 C 278.413 146.839,278.106 149.901,282.010 149.600 C 286.146 149.281,294.518 149.573,295.493 150.072 M325.686 149.577 C 328.305 149.597,328.834 149.716,329.182 150.367 C 329.790 151.502,329.819 219.541,329.212 220.148 C 328.191 221.169,312.837 220.733,311.967 219.658 C 311.228 218.746,311.207 217.654,311.302 185.190 L 311.400 151.664 312.355 150.648 C 313.334 149.606,316.326 149.196,321.000 149.463 C 321.880 149.513,323.989 149.564,325.686 149.577 M152.400 240.843 C 84.418 241.295,74.400 241.882,74.400 245.412 C 74.400 246.603,83.382 247.457,101.400 247.980 C 109.100 248.203,116.429 248.487,117.686 248.611 C 121.978 249.034,277.743 248.862,290.185 248.421 C 313.078 247.608,323.126 246.891,324.208 245.993 C 325.504 244.918,324.945 243.341,323.100 242.867 C 317.077 241.317,232.321 240.312,152.400 240.843 M251.600 243.248 C 275.442 243.291,284.476 243.578,288.400 244.417 C 289.610 244.676,292.130 245.009,294.000 245.157 C 302.747 245.847,270.626 246.200,199.000 246.200 C 132.302 246.200,104.319 245.948,104.914 245.352 C 105.001 245.266,106.856 245.009,109.036 244.783 C 111.216 244.556,114.350 244.186,116.000 243.961 C 119.857 243.433,176.284 242.864,205.600 243.057 C 218.030 243.139,238.730 243.224,251.600 243.248 " stroke="none" fill="#ac4144" fill-rule="evenodd"></path></g></svg>