<svg xmlns="http://www.w3.org/2000/svg" width="120.776" height="40.64" viewBox="0 0 120.776 40.64"><defs><style>.a{fill:#fff;}</style></defs><g transform="translate(28.562 4.465)"><g transform="translate(0 0)"><path class="a" d="M458.9-340.612H458.4a.924.924,0,0,1-.919-.929.924.924,0,0,1,.924-.919h.005a66.352,66.352,0,0,0,7.26-.35c.132-1.909.176-3.842.135-5.759a25.475,25.475,0,0,0-5.1.1c.006,1.124-.03,2.255-.11,3.378l1.815.012-.005-2.08a.924.924,0,0,1,.921-.927h0a.924.924,0,0,1,.924.922l.008,2.748a1.125,1.125,0,0,1-.47.974,1.313,1.313,0,0,1-.787.215l-3.417-.023a.924.924,0,0,1-.679-.3.924.924,0,0,1-.234-.706,42.213,42.213,0,0,0,.173-4.99.923.923,0,0,1,.784-.937,27.356,27.356,0,0,1,7.176-.137.923.923,0,0,1,.82.886,65.674,65.674,0,0,1-.134,7.026,1.471,1.471,0,0,1-.579,1.144,1.81,1.81,0,0,1-.927.289A69.475,69.475,0,0,1,458.9-340.612Zm7.074-2.23Z" transform="translate(-457.486 350.502)"/></g><g transform="translate(11.77 23.619)"><path class="a" d="M506.73-249.9a23.716,23.716,0,0,1-2.675-.152.807.807,0,0,1-.715-.774,57.925,57.925,0,0,1,.116-6.152,1.268,1.268,0,0,1,.5-1,1.57,1.57,0,0,1,.808-.254,59.651,59.651,0,0,1,6.6-.325.806.806,0,0,1,.8.811.808.808,0,0,1-.811.8,57.134,57.134,0,0,0-6.313.306c-.115,1.676-.154,3.37-.117,5.05a22,22,0,0,0,4.427-.085c-.006-.986.026-1.978.1-2.964l-1.574-.011.005,1.824a.807.807,0,0,1-.8.809h0a.807.807,0,0,1-.807-.8l-.006-2.407a.982.982,0,0,1,.41-.85,1.132,1.132,0,0,1,.686-.189l2.973.02a.8.8,0,0,1,.592.265.806.806,0,0,1,.205.616,37.258,37.258,0,0,0-.151,4.372.806.806,0,0,1-.684.817A23.584,23.584,0,0,1,506.73-249.9Z" transform="translate(-503.306 258.554)"/></g><g transform="translate(82.027 25.952)"><path class="a" d="M780.744-239.581a27.413,27.413,0,0,1-3.074-.173.924.924,0,0,1-.82-.886,65.777,65.777,0,0,1,.134-7.026,1.471,1.471,0,0,1,.579-1.144,1.81,1.81,0,0,1,.927-.29,68.515,68.515,0,0,1,7.589-.371.924.924,0,0,1,.919.929.924.924,0,0,1-.924.919h0a66.441,66.441,0,0,0-7.26.35c-.131,1.911-.177,3.844-.135,5.759a25.458,25.458,0,0,0,5.1-.1c-.006-1.125.031-2.255.11-3.378L782.065-245l.005,2.076-1.848.009.924,0h-.924l-.007-2.745a1.122,1.122,0,0,1,.472-.974,1.311,1.311,0,0,1,.784-.214l3.419.023a.924.924,0,0,1,.679.3.925.925,0,0,1,.234.707,42.154,42.154,0,0,0-.173,4.99.924.924,0,0,1-.785.937A27.3,27.3,0,0,1,780.744-239.581Zm-2.231-7.661Z" transform="translate(-776.811 249.472)"/></g><g transform="translate(71.577 0.175)"><path class="a" d="M737.361-341.164h-.43a.807.807,0,0,1-.8-.811.807.807,0,0,1,.807-.8h0a57.058,57.058,0,0,0,6.313-.306c.115-1.674.154-3.368.117-5.05a22,22,0,0,0-4.428.084c.006.987-.026,1.979-.1,2.964l1.574.011-.005-1.824a.807.807,0,0,1,.8-.809h0a.807.807,0,0,1,.807.8l.006,2.407a.979.979,0,0,1-.41.85,1.138,1.138,0,0,1-.686.189l-2.973-.02a.806.806,0,0,1-.593-.266.807.807,0,0,1-.2-.616,37.229,37.229,0,0,0,.151-4.371.807.807,0,0,1,.684-.817,23.634,23.634,0,0,1,6.244-.12.807.807,0,0,1,.715.774,57.95,57.95,0,0,1-.117,6.152,1.269,1.269,0,0,1-.5,1,1.573,1.573,0,0,1-.808.254A60.084,60.084,0,0,1,737.361-341.164Z" transform="translate(-736.129 349.821)"/></g><g transform="translate(40.66 22.951)"><path class="a" d="M623.783-248.207c-.861,0-1.731-.012-2.358-.021l-.66-.007a7.583,7.583,0,0,1-2.33-.123.77.77,0,0,1-.432-.985c.164-.435.748-1.67,1.082-2.368.1-.21.262-.608.433-1.03a19.194,19.194,0,0,1,.931-2.086l.015-.024a1.063,1.063,0,0,1,1.011-.489,1.015,1.015,0,0,1,.846.657c.012.032,1.281,3.514,1.328,3.69a.77.77,0,0,1-.128.659.77.77,0,0,1-.6.308c-.2.005-.313.012-.4.018a5.607,5.607,0,0,1-.7,0,.769.769,0,0,1-.741-.8.769.769,0,0,1,.747-.741c-.164-.455-.36-1-.532-1.471-.118.282-.239.579-.349.849-.188.463-.35.864-.471,1.116-.228.478-.432.91-.6,1.268.237,0,.53.005.892.006l.68.007c.946.013,2.659.038,3.849,0-.12-.333-.255-.7-.366-.98-.346-.881-2.49-6.051-3.733-8.646-1.214,2.541-3.393,7.329-3.94,8.715a.77.77,0,0,1-1,.433.769.769,0,0,1-.433-1c.658-1.665,3.211-7.232,4.264-9.4a.771.771,0,0,1,.251-.294,1.612,1.612,0,0,1,1.256-.164,1.061,1.061,0,0,1,.738.532c1.2,2.408,3.653,8.307,4.026,9.258.23.586.687,1.861.738,2.074a.769.769,0,0,1-.119.619.769.769,0,0,1-.541.322C625.874-248.226,624.835-248.207,623.783-248.207Zm-4.878-1.61Zm1.974-4.33h0Z" transform="translate(-615.772 261.155)"/></g></g><g transform="translate(31.39 17.266)"><path class="a" d="M468.561-299.933c-.131,7.153-.061,14.286.152,21.437.039,1.32,4.839,1.5,4.806.388-.213-7.15-.283-14.284-.152-21.437.023-1.277-4.784-1.556-4.806-.388Z" transform="translate(-468.495 300.672)"/></g><g transform="translate(42.172 4.628)"><path class="a" d="M510.537-349.177c-.131,6.266-.061,12.511.152,18.775.042,1.239,4.533,1.4,4.5.363-.213-6.264-.283-12.508-.152-18.775.025-1.193-4.475-1.459-4.5-.363Z" transform="translate(-510.471 349.87)"/></g><g transform="translate(112.941 4.584)"><path class="a" d="M790.89-327.8c.132-7.05.061-14.081-.152-21.129-.04-1.311-4.8-1.491-4.771-.385.213,7.048.283,14.078.152,21.129-.024,1.267,4.749,1.545,4.771.385Z" transform="translate(-785.967 350.042)"/></g><g transform="translate(102.448 16.117)"><path class="a" d="M749.661-285.5c.133-6.206.165-12.391-.043-18.6-.041-1.239-4.536-1.4-4.5-.364.208,6.205.175,12.39.043,18.6-.025,1.193,4.478,1.461,4.5.364Z" transform="translate(-745.117 305.145)"/></g><g transform="translate(50.134 0.337)"><path class="a" d="M541.471-350.374c3.572,7.871,6.842,15.693,11.183,23.195.474.82,4.233.74,4.654-.15,1.549-3.276,2.8-6.693,4.251-10.011.787-1.8,1.6-3.582,2.537-5.308.42-.778.9-1.508,1.344-2.269a6.114,6.114,0,0,0,.627-1.21l.308-.373q-1.858-.307-.966.14c.172.443,1.071,1.039,1.361,1.579.408.76.766,1.551,1.159,2.319.936,1.829,1.9,3.644,2.871,5.456,1.758,3.29,3.572,6.555,5.217,9.9.448.912,4.47.693,4.727-.323,1.6-6.323,3.664-12.508,5.108-18.882,1.5-6.612,3.142-13.184,4.67-19.787.119-.512-4.449-.879-4.727.323-1.528,6.6-3.167,13.177-4.67,19.787-1.449,6.373-3.51,12.56-5.108,18.882l4.727-.323c-2.113-4.3-4.479-8.478-6.712-12.717-1.783-3.383-2.734-7.531-7.171-7.743-1.845-.088-4.162.167-5.374,1.734a33.327,33.327,0,0,0-3.186,5.886c-2.022,4.233-3.568,8.673-5.572,12.911l4.654-.15c-4.341-7.5-7.611-15.324-11.183-23.195-.524-1.155-4.915-.091-4.727.323Z" transform="translate(-541.465 366.575)"/></g><g transform="translate(0 0)"><path class="a" d="M368.808-367.766c-4.957-.01-9.98-.256-14.931-.013-3,.147-6.28,1.3-7.282,4.43-1.11,3.466,1.04,5.73,3.793,7.506a96.883,96.883,0,0,0,10.027,5.1,11.968,11.968,0,0,1,5.449,5.386,17.791,17.791,0,0,1,1.3,6.092c.207,2.014.677,4.9-1.42,5.977-1.625.833-4.135.97-5.929,1.26-1.837.3-3.692.55-5.541.752-.886.1-1.383.278-1.831-.664a7.9,7.9,0,0,1-.3-2.9c-.051-1.547-.109-4.316.733-5.665a7.116,7.116,0,0,1,2.819-1.871,15.738,15.738,0,0,1,2.234-.9,4.78,4.78,0,0,0,.637-.187,1.529,1.529,0,0,0,.335-.047l-1.942-.49c-.3.119.023-.257.044.229a6.783,6.783,0,0,0,.493,1.219,10.115,10.115,0,0,1,.444,2.324c.013.2.012.41.035.61.068.589.526-.208.048.095a18.619,18.619,0,0,1-2.2,1.1c-3.2,1.463,1.05,4.663,3.341,3.616,1.22-.557,3.38-1.249,4.1-2.475.737-1.248.334-3.217.009-4.531-.825-3.332-2.911-6.231-6.741-5.594-2.839.472-6.991,2.1-8.735,4.513-1.024,1.418-1.189,3.794-1.29,5.5-.131,2.217-.279,4.814.963,6.742,2.91,4.515,8.073,3.461,12.6,2.834a68.885,68.885,0,0,0,7.181-1.379c2.322-.577,4.138-1.294,5.177-3.6,1.018-2.264.533-5.037.245-7.425a16.655,16.655,0,0,0-2.093-6.963,18.648,18.648,0,0,0-8.044-6.967c-2.332-1.1-4.716-2.069-6.965-3.343-1.888-1.07-4.389-2.033-3.323-4.56,1-2.381,4.468-1.722,6.48-1.717l10.715.022c3.793.008,2.525-4-.633-4.01Z" transform="translate(-346.297 367.886)"/></g></svg>