<svg xmlns="http://www.w3.org/2000/svg" width="76.568" height="76.568" viewBox="0 0 76.568 76.568"><defs><style>.a{fill:#fff;}.b{fill:#ccc;}.c{fill:#4a0d4a;}.d{fill:#f88011;}</style></defs><rect class="a" width="76.568" height="76.568" rx="15.318"/><g transform="translate(-656.198 75.039)"><path class="b" d="M699.583-46.058q.147-7.524.147-15.047c0-1.574-5.846-1.869-5.846-.472q0,7.524-.148,15.046C693.706-44.979,699.555-44.636,699.583-46.058Z"/><path class="b" d="M693.8-27.455q0,7.524-.147,15.046c-.03,1.553,5.819,1.9,5.847.473q.147-7.524.147-15.047C699.649-28.557,693.8-28.852,693.8-27.455Z"/><path class="b" d="M696.448-32.573c-.548,0-1.093-.008-1.631-.015-.42-.006-.839-.013-1.257-.015a.784.784,0,0,1-.781-.788.785.785,0,0,1,.784-.78h.005c.423,0,.847.009,1.272.015,1.366.02,2.779.039,4.142-.073.078-1.345.108-3.187.082-4.686A24.372,24.372,0,0,0,695.24-39c0,.853-.018,1.9-.067,2.805l1.189.007,0-1.374a.786.786,0,0,1,.783-.787h0a.786.786,0,0,1,.784.782l.005,1.98a.926.926,0,0,1-.363.779,1.02,1.02,0,0,1-.639.192l-2.6-.016a.784.784,0,0,1-.574-.257.782.782,0,0,1-.2-.595c.1-1.185.137-3.063.111-4.194a.784.784,0,0,1,.656-.791,23.793,23.793,0,0,1,5.608.075.782.782,0,0,1,.687.753c.056,1.747.019,4.248-.086,5.817a1.175,1.175,0,0,1-.429.892,1.32,1.32,0,0,1-.707.244C698.413-32.6,697.425-32.573,696.448-32.573Z"/><path class="c" d="M697.021-32.321c-.549,0-1.094-.007-1.632-.015-.42-.006-.84-.012-1.258-.014a.785.785,0,0,1-.78-.789.785.785,0,0,1,.784-.78h.005c.423,0,.847.009,1.272.015,1.368.02,2.779.04,4.142-.073.077-1.345.108-3.186.082-4.686a24.37,24.37,0,0,0-3.824-.089c0,.853-.018,1.9-.067,2.805l1.189.007,0-1.374a.784.784,0,0,1,.783-.786h0a.785.785,0,0,1,.784.781l.005,1.98a.929.929,0,0,1-.363.78,1.027,1.027,0,0,1-.639.191l-2.6-.016a.787.787,0,0,1-.574-.256.786.786,0,0,1-.2-.6c.1-1.185.137-3.063.111-4.194a.783.783,0,0,1,.656-.791,23.846,23.846,0,0,1,5.608.075.783.783,0,0,1,.687.753c.056,1.747.019,4.248-.086,5.817a1.179,1.179,0,0,1-.429.892,1.32,1.32,0,0,1-.707.244C698.986-32.346,698-32.321,697.021-32.321Z"/><path class="d" d="M700.6-46.466q.145-7.522.147-15.046c0-1.575-5.847-1.869-5.847-.473q0,7.526-.147,15.047c-.03,1.552,5.819,1.9,5.847.472Z"/><path class="c" d="M700.52-12.344q.145-7.522.148-15.046c0-1.575-5.848-1.869-5.847-.472q0,7.524-.148,15.046c-.03,1.552,5.82,1.9,5.847.472Z"/><path class="b" d="M683.358-53.666c-4.65-.009-9.571-.48-14.2.045-2.554.289-5.167,1.36-6.05,4.014-2.032,6.115,7.595,8.928,11.571,10.793,3.745,1.757,6.028,4.2,6.729,8.44.427,2.584,1.149,5.645-1.725,7-1.639.775-4.067.831-5.856,1.084-2.934.416-5.427-.559-5.133-3.9.215-2.445.761-3.763,3.04-4.857a9.957,9.957,0,0,0,2.014-.785c-.99.891-1.061-2.163-.778.533.248,2.361.936,2.159-1.438,3.258-3.184,1.474,1.049,4.654,3.326,3.6,3.921-1.815,5.239-3.646,3.25-8.05-1.509-3.342-4.4-3.967-7.686-2.942-4.624,1.444-7.037,3.509-7.379,8.448-.329,4.75,1.5,8.894,6.741,9.239,4.109.271,12.62-.5,15.774-3.252,3.537-3.092,1.884-10.57-.078-14.112-2.119-3.824-5.793-5.8-9.618-7.5-1.983-.882-11.735-5.3-5.009-7.049,3.86-1,9.174-.021,13.133-.013,3.776.007,2.513-3.986-.631-3.993Z"/><path class="d" d="M684.565-54.414c-4.65-.01-9.571-.48-14.2.044-2.554.289-5.167,1.36-6.05,4.014-2.032,6.115,7.6,8.928,11.571,10.793,3.746,1.757,6.029,4.2,6.729,8.44.427,2.584,1.149,5.645-1.725,7-1.639.774-4.067.83-5.856,1.083-2.934.416-5.427-.558-5.133-3.9.215-2.445.761-3.763,3.04-4.857a9.935,9.935,0,0,0,2.014-.785c-.99.891-1.061-2.162-.778.533.248,2.362.937,2.16-1.438,3.259-3.184,1.473,1.049,4.653,3.326,3.6,3.921-1.815,5.239-3.646,3.251-8.05-1.51-3.342-4.4-3.967-7.686-2.942-4.625,1.444-7.038,3.509-7.38,8.448-.329,4.75,1.5,8.894,6.741,9.239,4.109.271,12.62-.495,15.774-3.251,3.537-3.093,1.884-10.571-.078-14.112-2.119-3.825-5.793-5.8-9.618-7.505-1.982-.882-11.734-5.3-5.009-7.049,3.86-1,9.174-.021,13.133-.013,3.776.007,2.513-3.986-.631-3.992Z"/><path class="b" d="M724.3-49.951l.02-.277a4.056,4.056,0,0,0-2.346-3.747,1.9,1.9,0,0,0-1.994-.129c-.412.278-7.4,4.994-13.614,9.195l-.406.277a3.579,3.579,0,0,0-.8,2.818c.03.6.188,2.034,1.025,2.56l.529.29c1.578.856,6.178,3.348,8.505,4.579-.726.487-3.372,2.215-5.935,3.888l-3.076,2.01-.532.415a4.005,4.005,0,0,0-.566,2.769,3.544,3.544,0,0,0,1.017,2.357l.622.3c4.918,1.963,8.188,3.028,13.091,4.624l1.745.568.122-.012c1.779-.182,2.67-2.181,2.606-3.969l-.014-.376-.348-.14c-2.829-1.135-6.193-2.336-9.447-3.5-.757-.27-1.522-.543-2.284-.817,2.53-1.615,4.831-3.012,5.717-3.463a4.282,4.282,0,0,0,2.313-3.847,5.013,5.013,0,0,0-2.328-4.815c-.683-.41-2.255-1.284-4.075-2.295-.676-.376-1.4-.78-2.143-1.193,4.238-2.515,8.013-4.9,12.371-7.919Z"/><path class="c" d="M725.32-50.562l.019-.277a4.054,4.054,0,0,0-2.345-3.747A1.9,1.9,0,0,0,721-54.715c-.412.278-7.4,4.994-13.614,9.195l-.405.277a3.576,3.576,0,0,0-.8,2.818c.029.6.188,2.034,1.024,2.56l.529.29c1.578.856,6.178,3.348,8.506,4.578-.726.488-3.372,2.215-5.935,3.889l-3.077,2.01-.531.414a4,4,0,0,0-.566,2.77,3.542,3.542,0,0,0,1.016,2.357l.622.3c4.918,1.963,8.189,3.028,13.092,4.623l1.744.569.122-.013c1.779-.182,2.671-2.18,2.606-3.969l-.013-.375-.349-.14c-2.829-1.135-6.193-2.336-9.446-3.5-.757-.271-1.522-.543-2.285-.817,2.53-1.615,4.831-3.012,5.718-3.463a4.279,4.279,0,0,0,2.312-3.847A5.012,5.012,0,0,0,718.94-39c-.684-.41-2.256-1.284-4.076-2.295l-2.143-1.193c4.239-2.515,8.013-4.9,12.371-7.919Z"/></g></svg>