<svg id="AddEvent_Logo" xmlns="http://www.w3.org/2000/svg" width="156" height="156" viewBox="0 0 156 156">
  <rect id="Rectangle_130" data-name="Rectangle 130" width="156" height="156" fill="#efefef"/>
  <path id="Icon_material-add-to-photos" data-name="Icon material-add-to-photos" d="M5.068,7.135H3V21.609a2.074,2.074,0,0,0,2.068,2.068H19.542V21.609H5.068ZM21.609,3H9.2A2.074,2.074,0,0,0,7.135,5.068V17.474A2.074,2.074,0,0,0,9.2,19.542H21.609a2.074,2.074,0,0,0,2.068-2.068V5.068A2.074,2.074,0,0,0,21.609,3Zm-1.034,9.3H16.44V16.44H14.372V12.3H10.237V10.237h4.135V6.1H16.44v4.135h4.135Z" transform="translate(65 50.095)" fill="#700066"/>
</svg>
