<svg id="Calendar" xmlns="http://www.w3.org/2000/svg" width="17.212" height="17.242" viewBox="0 0 17.212 17.242">
  <rect id="Rectangle_557" data-name="Rectangle 557" width="17" height="17" transform="translate(0 0.242)" fill="none"/>
  <path id="Path_149" data-name="Path 149" d="M2.152,5.379v9.682H15.061V5.379ZM13.985,2.152h2.152a1.016,1.016,0,0,1,1.076,1.076V16.136a1.016,1.016,0,0,1-1.076,1.076H1.076A1.016,1.016,0,0,1,0,16.136V3.227A1.016,1.016,0,0,1,1.076,2.152H3.227V1.076A1.016,1.016,0,0,1,4.3,0,1.016,1.016,0,0,1,5.379,1.076V2.152h6.455V1.076a1.076,1.076,0,1,1,2.152,0ZM12.909,12.909H10.758V10.758h2.152Zm-3.227,0H7.53V10.758H9.682Zm3.227-3.227H10.758V7.53h2.152Zm-3.227,0H7.53V7.53H9.682ZM6.455,12.909H4.3V10.758H6.455Z" fill="#700066"/>
</svg>
