<svg xmlns="http://www.w3.org/2000/svg" width="22" height="22" viewBox="0 0 22 22"><defs><style>.a{fill:#fff;stroke:#707070;opacity:0;}.b{fill:#464e5f;}.c{stroke:none;}.d{fill:none;}</style></defs><g class="a"><rect class="c" width="22" height="22"/><rect class="d" x="0.5" y="0.5" width="21" height="21"/></g><g transform="translate(-722 -255.482)"><path class="b" d="M739.161,267.581h-.774v-7.807H728.324v7.807h-.774V259h11.611Z" transform="translate(-0.228)"/><rect class="b" width="7.741" height="0.774" transform="translate(729.258 260.935)"/><rect class="b" width="7.741" height="0.774" transform="translate(729.258 262.87)"/><rect class="b" width="5.419" height="0.774" transform="translate(729.258 264.806)"/><path class="b" d="M738.2,271.021H728.134v-1.548a.775.775,0,0,0-.774-.774h-1.935v-.774h1.935a1.549,1.549,0,0,1,1.548,1.548v.774h8.515v-.774a1.549,1.549,0,0,1,1.548-1.548h1.935v.774h-1.935a.775.775,0,0,0-.774.774Z" transform="translate(-0.038 -0.797)"/><path class="b" d="M739.708,274.99h-13.16A1.549,1.549,0,0,1,725,273.442v-5.548l2.4-3.2.619.464-2.245,2.993v5.289a.775.775,0,0,0,.774.774h13.16a.775.775,0,0,0,.774-.774v-5.289l-2.245-2.993.619-.464,2.4,3.2v5.548A1.549,1.549,0,0,1,739.708,274.99Z" transform="translate(0 -0.509)"/></g></svg>