<svg xmlns="http://www.w3.org/2000/svg" width="22" height="22" viewBox="0 0 22 22"><defs><style>.a{fill:#fff;stroke:#707070;opacity:0;}.b{fill:#464e5f;}.c{stroke:none;}.d{fill:none;}</style></defs><g class="a"><rect class="c" width="22" height="22"/><rect class="d" x="0.5" y="0.5" width="21" height="21"/></g><g transform="translate(-650 -254)"><path class="b" d="M656.8,261.534l-2.405-2.405.539-.539,1.866,1.866,1.866-1.866.539.539Z" transform="translate(4.202 4.774)"/><rect class="b" width="0.763" height="8.769" transform="translate(660.625 257)"/><path class="b" d="M665.677,262.24h-9.912v-1.525a.764.764,0,0,0-.765-.761h-1.906v-.765H655a1.525,1.525,0,0,1,1.525,1.525v.765h8.391v-.765a1.525,1.525,0,0,1,1.525-1.525h1.906v.765h-1.906a.764.764,0,0,0-.765.761Z" transform="translate(0.285 6.577)"/><path class="b" d="M667.488,270.154H654.525A1.527,1.527,0,0,1,653,268.628v-5.452l3.523-5.224h2.958v.765h-2.554l-3.167,4.692v5.22a.767.767,0,0,0,.765.765h12.962a.767.767,0,0,0,.765-.765v-5.22l-3.167-4.692h-2.554v-.765h2.958l3.523,5.224v5.452A1.527,1.527,0,0,1,667.488,270.154Z" transform="translate(0 2.859)"/></g></svg>