<svg xmlns="http://www.w3.org/2000/svg" width="22" height="22" viewBox="0 0 22 22"><defs><style>.a{fill:#fff;stroke:#707070;opacity:0;}.b{fill:#464e5f;}.c{stroke:none;}.d{fill:none;}</style></defs><g class="a"><rect class="c" width="22" height="22"/><rect class="d" x="0.5" y="0.5" width="21" height="21"/></g><g transform="translate(-1.518 -1.22)"><g transform="translate(4.518 5.22)"><g transform="translate(1.836 0.405)"><path class="b" d="M746.345,1028.763a.937.937,0,0,1-.667-.276l-6.8-6.8a.945.945,0,0,1-.275-.7l.128-3.507a.929.929,0,0,1,.272-.625l.455.455a.29.29,0,0,0-.084.194l-.128,3.506a.3.3,0,0,0,.088.223l6.8,6.8a.307.307,0,0,0,.423,0l5.05-5.05a.3.3,0,0,0,0-.423l-6.8-6.8a.292.292,0,0,0-.223-.087l-3.506.128a.289.289,0,0,0-.194.084l-.455-.455a.929.929,0,0,1,.625-.272l3.507-.128a.952.952,0,0,1,.7.276l6.8,6.8a.944.944,0,0,1,0,1.333l-5.05,5.049A.936.936,0,0,1,746.345,1028.763Z" transform="translate(-738.598 -1015.024)"/><path class="b" d="M774.155,1051.6a1.024,1.024,0,1,1,.724-.3A1.017,1.017,0,0,1,774.155,1051.6Zm0-1.4a.381.381,0,0,0-.269.65.39.39,0,0,0,.539,0,.381.381,0,0,0-.269-.65Z" transform="translate(-771.187 -1047.603)"/></g><path class="b" d="M710.08,1010.942l-2.327-2.327-.976.976.8.8-.455.455-1.024-1.024a.321.321,0,0,1,0-.455l1.431-1.431a.321.321,0,0,1,.227-.094h0a.321.321,0,0,1,.227.094l2.554,2.554Z" transform="translate(-706 -1007.838)"/></g></g></svg>