<svg xmlns="http://www.w3.org/2000/svg" width="22" height="22" viewBox="0 0 22 22"><defs><style>.a{fill:#fff;stroke:#707070;opacity:0;}.b{fill:#464e5f;}.c{stroke:none;}.d{fill:none;}</style></defs><g class="a"><rect class="c" width="22" height="22"/><rect class="d" x="0.5" y="0.5" width="21" height="21"/></g><g transform="translate(-578 -254.268)"><path class="b" d="M589.552,259.517l-1.857-1.857-1.857,1.857-.537-.537,2.394-2.394,2.394,2.394Z" transform="translate(1.275)"/><rect class="b" width="0.759" height="8.729" transform="translate(588.59 257.123)"/><path class="b" d="M593.816,266.474H583.95v-1.517a.761.761,0,0,0-.76-.76h-1.9v-.759h1.9a1.52,1.52,0,0,1,1.518,1.518v.759h8.349v-.759a1.519,1.519,0,0,1,1.518-1.518h1.9v.759h-1.9a.761.761,0,0,0-.76.76Z" transform="translate(0.087 2.033)"/><path class="b" d="M595.421,271.778h-12.9A1.52,1.52,0,0,1,581,270.26v-5.429l3.506-5.2h2.946v.758h-2.543l-3.151,4.67v5.2a.761.761,0,0,0,.76.76h12.9a.761.761,0,0,0,.76-.76v-5.2l-3.152-4.67h-2.541v-.758h2.946l3.506,5.2v5.429A1.52,1.52,0,0,1,595.421,271.778Z" transform="translate(0 0.904)"/></g></svg>