<svg xmlns="http://www.w3.org/2000/svg" width="22" height="22" viewBox="0 0 22 22"><defs><style>.a{fill:#fff;stroke:#707070;opacity:0;}.b{fill:#464e5f;}.c{stroke:none;}.d{fill:none;}</style></defs><g class="a"><rect class="c" width="22" height="22"/><rect class="d" x="0.5" y="0.5" width="21" height="21"/></g><g transform="translate(-329.481 -228.131)"><path class="b" d="M345.7,236.882H335.319a.839.839,0,0,1-.838-.837v-1.239a.839.839,0,0,1,.838-.837H345.7a.838.838,0,0,1,.837.837v1.239A.838.838,0,0,1,345.7,236.882Zm-10.385-2.331a.255.255,0,0,0-.255.255v1.239a.255.255,0,0,0,.255.255H345.7a.255.255,0,0,0,.255-.255v-1.239a.255.255,0,0,0-.255-.255Z" transform="translate(0 -0.452)"/><path class="b" d="M344.835,248.345h-7.8a.838.838,0,0,1-.837-.837V237.353a.291.291,0,0,1,.291-.292h8.9a.291.291,0,0,1,.292.292v10.155A.839.839,0,0,1,344.835,248.345Zm-8.059-10.7v9.864a.255.255,0,0,0,.255.255h7.8a.256.256,0,0,0,.256-.255v-9.864Z" transform="translate(-0.422 -1.214)"/><g transform="translate(338.216 238.336)"><path class="b" d="M339.728,246.46a.292.292,0,0,1-.292-.292v-5.514a.292.292,0,1,1,.583,0v5.514A.291.291,0,0,1,339.728,246.46Z" transform="translate(-339.436 -240.363)"/><path class="b" d="M342.386,246.46a.291.291,0,0,1-.291-.292v-5.514a.291.291,0,1,1,.583,0v5.514A.291.291,0,0,1,342.386,246.46Z" transform="translate(-340.091 -240.363)"/><path class="b" d="M345.045,246.46a.291.291,0,0,1-.292-.292v-5.514a.291.291,0,1,1,.583,0v5.514A.291.291,0,0,1,345.045,246.46Z" transform="translate(-340.745 -240.363)"/></g><path class="b" d="M343.664,232.714h-3.8a.291.291,0,1,1,0-.583h3.8a.291.291,0,1,1,0,.583Z" transform="translate(-1.255)"/></g></svg>