<svg xmlns="http://www.w3.org/2000/svg" xmlns:xlink="http://www.w3.org/1999/xlink" width="605" height="800" viewBox="0 0 605 800"><defs><style>.a{fill:#240505;stroke:#707070;}.b{fill:#4a0d4a;}.c{clip-path:url(#a);}.d{opacity:0.414;}.e{fill:#5a365b;}</style><clipPath id="a"><rect class="a" width="604" height="800" transform="translate(272)"/></clipPath></defs><rect class="b" width="605" height="800"/><g class="c" transform="translate(-272)"><g class="d" transform="translate(379.229 -516.183) rotate(45)"><path class="e" d="M407.458,945.347c-10.011.022-20.135,0-30.61-.057a57.268,57.268,0,0,1,.283-114.536c11.336-.34,20.146.091,29.93.091,162.755,0,260.485-7.656,420.183-21.755q12.35-180.348,8.4-356.879a1589.128,1589.128,0,0,0-315.726,5.979c.4,69.816-1.9,139.857-6.851,209.287l112.463.781L625.182,539.4a57.317,57.317,0,0,1,57.1-57.438h.17a57.293,57.293,0,0,1,57.268,57.087l.453,170.308c0,32.977-15.877,50.982-29.172,60.336-19.229,13.442-40.293,13.465-48.582,13.329l-211.9-1.438A57.255,57.255,0,0,1,393.937,718.9a2598.108,2598.108,0,0,0,10.7-309.2,57.275,57.275,0,0,1,48.695-58,1693.133,1693.133,0,0,1,444.587-8.471,57.256,57.256,0,0,1,50.768,54.912,4087.473,4087.473,0,0,1-8.289,435.3c-.861,11.914-3.511,48.027-35.966,70.959-20.724,14.642-43.633,16.692-57.325,17.9C678.306,937.227,577.88,945.347,407.458,945.347Z" transform="translate(0 0)"/></g></g></svg>