<svg xmlns="http://www.w3.org/2000/svg" width="30" height="30" viewBox="0 0 30 30"><defs><style>.a{fill:none;}.b{fill:#666;}</style></defs><g transform="translate(2471 -3362)"><rect class="a" width="30" height="30" rx="4" transform="translate(-2471 3362)"/><g transform="translate(-2466.956 3339.436)"><g transform="translate(-0.001 27.798)"><g transform="translate(0 0)"><path class="b" d="M21.679,35.513,11.292,27.907a.569.569,0,0,0-.673,0L.232,35.513a.569.569,0,1,0,.673.919l10.051-7.359,10.051,7.359a.569.569,0,0,0,.673-.919Z" transform="translate(0.001 -27.798)"/></g></g><g transform="translate(2.415 36.56)"><path class="b" d="M72.963,232.543a.569.569,0,0,0-.569.569v9.062H67.839v-4.947a2.847,2.847,0,1,0-5.694,0v4.947H57.591v-9.062a.569.569,0,1,0-1.139,0v9.632a.569.569,0,0,0,.569.569h5.693a.569.569,0,0,0,.567-.525.43.43,0,0,0,0-.044v-5.516a1.708,1.708,0,0,1,3.416,0v5.516a.417.417,0,0,0,0,.044.569.569,0,0,0,.567.526h5.693a.569.569,0,0,0,.569-.569v-9.632A.569.569,0,0,0,72.963,232.543Z" transform="translate(-56.452 -232.543)"/></g></g></g></svg>