<svg xmlns="http://www.w3.org/2000/svg" width="30" height="30" viewBox="0 0 30 30"><defs><style>.a,.b{fill:none;}.b{stroke:#2061eb;}</style></defs><g transform="translate(2373 -3362)"><rect class="a" width="30" height="30" rx="4" transform="translate(-2373 3362)"/><g transform="translate(-2616.221 3308.002)"><path class="b" d="M267.425,61.7v12.19H246.712V61.7" transform="translate(0.638 5.103)"/><rect class="b" width="6.001" height="11.226" transform="translate(258.852 67.772)"/><rect class="b" width="6.775" height="7.291" transform="translate(250.013 67.706)"/><path class="b" d="M246.221,61.484l2.667-3.708H266.5l2.582,3.451.032.5v1.86a1.909,1.909,0,0,1-3.812.17,1.9,1.9,0,0,1-3.793,0,1.9,1.9,0,0,1-3.8,0,1.9,1.9,0,0,1-3.8,0,1.9,1.9,0,0,1-3.793,0,1.911,1.911,0,0,1-3.814-.17V61.73h20.287" transform="translate(0)"/></g></g></svg>